<svg width="765" height="881" viewBox="0 0 765 881" fill="none" xmlns="http://www.w3.org/2000/svg">
<path d="M465.403 119.778C473.706 119.021 493.248 123.961 506.346 149.338C506.725 150.072 507.789 150.089 508.166 149.353C521.56 123.157 538.051 96.7085 589.82 128.472C590.704 129.014 591.86 128.014 591.429 127.071C583.09 108.833 578.816 74.5721 617.719 57.4344C618.589 57.0513 618.546 55.7571 617.634 55.4905L608.103 52.7047C607.073 52.4038 607.184 50.9983 608.253 50.9072C618.722 50.0152 633.081 50.6962 628.048 56.8096C622.094 64.0429 620.63 68.6162 622.081 76.1679" stroke="black" stroke-width="5" stroke-linecap="round"/>
<path fill-rule="evenodd" clip-rule="evenodd" d="M55.5583 388.773C54.0148 388.335 52.4002 389.19 51.8936 390.712L48.2496 401.662C47.9011 402.709 47.0056 403.48 45.9183 403.67L34.5496 405.651C32.969 405.927 31.885 407.397 32.089 408.988L33.5568 420.435C33.6972 421.529 33.2251 422.613 32.3276 423.255L22.9446 429.973C21.6401 430.907 21.3013 432.702 22.1756 434.048L28.4644 443.724C29.0659 444.649 29.1107 445.83 28.5809 446.798L23.0418 456.922C22.2718 458.33 22.7453 460.094 24.1167 460.926L33.981 466.916C34.9245 467.488 35.4772 468.533 35.42 469.635L34.8221 481.16C34.739 482.762 35.9311 484.146 37.528 484.301L49.014 485.417C50.1126 485.524 51.0638 486.226 51.4905 487.244L55.9522 497.886C56.5724 499.366 58.247 500.096 59.753 499.543L70.5858 495.564C71.6219 495.184 72.7833 495.403 73.6094 496.135L82.2469 503.788C83.4478 504.852 85.2731 504.783 86.39 503.631L94.424 495.347C95.1924 494.555 96.3339 494.248 97.3958 494.549L108.498 497.697C110.042 498.134 111.657 497.28 112.163 495.758L115.807 484.808C116.156 483.761 117.051 482.989 118.138 482.8L129.507 480.818C131.088 480.543 132.172 479.073 131.968 477.481L130.5 466.035C130.359 464.94 130.832 463.857 131.729 463.214L141.112 456.496C142.417 455.562 142.755 453.767 141.881 452.422L135.592 442.746C134.991 441.82 134.946 440.639 135.476 439.671L141.015 429.547C141.785 428.14 141.311 426.376 139.94 425.543L130.076 419.554C129.132 418.981 128.58 417.936 128.637 416.834L129.235 405.309C129.318 403.707 128.126 402.323 126.529 402.168L115.043 401.052C113.944 400.945 112.993 400.244 112.566 399.226L108.105 388.583C107.484 387.104 105.81 386.374 104.304 386.927L93.4709 390.905C92.4348 391.285 91.2734 391.066 90.4473 390.334L81.8098 382.681C80.609 381.617 78.7836 381.687 77.6667 382.838L69.6327 391.123C68.8643 391.915 67.7228 392.221 66.6609 391.92L55.5583 388.773ZM66.6163 434.419C67.7785 436.616 66.9399 439.339 64.7432 440.501C62.5464 441.663 59.8234 440.825 58.6611 438.628C57.4988 436.431 58.3374 433.708 60.5342 432.546C62.7309 431.384 65.454 432.222 66.6163 434.419ZM71.0358 432.081C73.4895 436.718 71.7191 442.467 67.0815 444.921C62.4439 447.374 56.6953 445.604 54.2416 440.966C51.7879 436.329 53.5583 430.58 58.1959 428.126C62.8334 425.673 68.5821 427.443 71.0358 432.081ZM104.406 453.456C106.603 452.294 107.442 449.571 106.28 447.374C105.117 445.177 102.394 444.338 100.197 445.501C98.0007 446.663 97.1621 449.386 98.3244 451.583C99.4867 453.78 102.21 454.618 104.406 453.456ZM106.745 457.875C111.382 455.422 113.153 449.673 110.699 445.035C108.245 440.398 102.497 438.627 97.8591 441.081C93.2215 443.535 91.4511 449.284 93.9048 453.921C96.3586 458.559 102.107 460.329 106.745 457.875ZM83.5494 419.084C83.4672 417.706 82.2833 416.655 80.9051 416.738C79.5268 416.82 78.4761 418.004 78.5582 419.382L81.3911 466.917C81.4732 468.295 82.6571 469.346 84.0354 469.263C85.4136 469.181 86.4643 467.997 86.3822 466.619L83.5494 419.084Z" fill="black"/>
<path d="M761.903 275C761.903 304.526 737.747 328.5 707.903 328.5C678.058 328.5 653.903 304.526 653.903 275C653.903 245.474 678.058 221.5 707.903 221.5C737.747 221.5 761.903 245.474 761.903 275Z" stroke="black" stroke-width="5"/>
<path d="M708.403 300V308" stroke="black" stroke-width="5" stroke-linecap="round"/>
<path d="M708.403 250V242" stroke="black" stroke-width="5" stroke-linecap="round"/>
<path d="M722.403 253.398C718.851 251.632 713.458 249.981 708.416 250C702.339 250.023 696.771 252.473 695.548 260.073C693.934 270.096 706.165 273.695 713.451 277.317C723.522 282.324 723.431 291.709 717.367 296.23C714.64 298.264 711.544 299.379 708.416 299.801C703.843 300.418 699.202 299.55 695.548 297.899" stroke="black" stroke-width="5" stroke-linecap="round"/>
<path d="M407.903 155.001C399.236 126.168 400.818 67.5402 476.403 62.5011C551.403 57.5009 562.903 58.5 575.403 60.4999" stroke="black" stroke-width="5" stroke-linecap="round"/>
<path d="M265.403 695C288.367 678.321 338.917 647.897 357.295 659.623C380.26 674.278 365.598 676.3 353.869 673.268" stroke="black" stroke-width="5" stroke-linecap="round"/>
<path d="M332.859 673.754C344.69 671.982 368.559 672.206 369.35 687.294C369.797 696.092 367.372 694.629 362.936 691.882C359.754 689.916 355.541 687.294 350.606 687.294H329.403" stroke="black" stroke-width="5" stroke-linecap="round"/>
<path d="M329.403 688H350.734C355.699 688 359.938 690.677 363.138 692.684C366.27 698.363 368.588 708.836 352.723 705.28C336.859 701.725 330.562 702.812 329.403 703.799" stroke="black" stroke-width="5" stroke-linecap="round"/>
<path d="M352.997 705C358.243 710.995 364.296 722.284 346.602 719.487C328.908 716.69 314.986 725.314 310.237 729.976C302.213 735.304 283.199 741.963 271.403 725.98" stroke="black" stroke-width="5" stroke-linecap="round"/>
<path d="M183.1 720.371C266.246 674.274 266.331 717.688 259.307 744.163C248.916 770.93 197.371 800.414 174.23 803.941C141.587 811.441 83.7864 802.553 113.763 706.988C151.243 587.534 168.197 500.296 293.403 477" stroke="black" stroke-width="5" stroke-linecap="round"/>
<path d="M228.403 617C228.403 662.111 225.763 661.049 206.403 702" stroke="black" stroke-width="5" stroke-linecap="round"/>
<path d="M398.403 641V628" stroke="black" stroke-width="5" stroke-linecap="round"/>
<path d="M413.403 640L418.403 624" stroke="black" stroke-width="5" stroke-linecap="round"/>
<path d="M428.403 644L440.403 616" stroke="black" stroke-width="5" stroke-linecap="round"/>
<path d="M197.403 801C200.884 840.017 202.369 837.548 208.342 859.772C268.656 877.552 402.1 897.998 453.403 837.548" stroke="black" stroke-width="5" stroke-linecap="round"/>
<path d="M259.403 567L261.29 564.139C272.663 546.979 294.593 540.128 313.786 547.745C331.007 554.578 350.693 549.816 362.831 535.883L378.403 518" stroke="black" stroke-width="5" stroke-linecap="round"/>
<path d="M367.496 476.111C371.87 463.835 367.87 455.574 363.989 454C340.602 474.775 305.13 467.063 291.989 454.471C287.308 458.627 290.032 470.918 291.989 474.695C317.317 501.892 353.368 486.657 367.496 476.111Z" fill="black"/>
<path d="M436.417 274.236C425.518 313.473 420.051 316.949 404.198 334.331C404.198 317.153 401.242 288.318 401.242 276.31C349.291 276.31 305.455 255.068 290.011 244.445C290.575 280.466 256.852 304.019 256.852 304.019C256.852 304.019 261.687 318.566 264.455 351.122C266.675 377.17 260.303 372.136 256.852 366.363C246.91 334.22 230.612 342.81 223.693 351.122C138.925 213.149 269.289 186.489 294.163 189.029C312.955 172.958 339.161 160.364 357.577 158.517C424.032 151.855 454.099 210.618 436.417 274.236Z" fill="black"/>
<path d="M257.403 390.915C266.394 445.791 326.717 485.253 370.254 440.797C413.791 396.344 405.073 314.972 400.424 277" stroke="black" stroke-width="5" stroke-linecap="round"/>
<path d="M223.197 347C217.916 360.371 222.871 390 257.403 390" stroke="black" stroke-width="5" stroke-linecap="round"/>
<path d="M240.596 355C239.983 357.475 240.473 363.343 247.403 367" stroke="black" stroke-width="5" stroke-linecap="round"/>
<path d="M400.403 383C411.79 378.204 419.829 360.443 416.735 332" stroke="black" stroke-width="5" stroke-linecap="round"/>
<path d="M334.403 416.326C345.023 419.523 344.352 410.723 352.403 403" stroke="black" stroke-width="5" stroke-linecap="round"/>
<path d="M368.903 354C373.045 354 376.403 350.418 376.403 346C376.403 341.582 373.045 338 368.903 338C364.76 338 361.403 341.582 361.403 346C361.403 350.418 364.76 354 368.903 354Z" fill="black"/>
<path d="M302.903 354C307.597 354 311.403 350.866 311.403 347C311.403 343.134 307.597 340 302.903 340C298.208 340 294.403 343.134 294.403 347C294.403 350.866 298.208 354 302.903 354Z" fill="black"/>
<path d="M286.403 330C288.048 325.775 295.163 317.96 310.403 320.495" stroke="black" stroke-width="5" stroke-linecap="round"/>
<path d="M356.403 321C360.037 318.736 369.928 315.567 380.403 321" stroke="black" stroke-width="5" stroke-linecap="round"/>
<path d="M331.201 344C330.051 353.555 329.251 372.933 335.403 374" stroke="black" stroke-width="5" stroke-linecap="round"/>
<path d="M317.19 663L291.397 619.666C289.383 616.28 290.527 611.891 293.941 609.933C297.269 608.025 301.503 609.135 303.466 612.426L330.403 657.501" stroke="black" stroke-width="5" stroke-linecap="round"/>
<path d="M323.403 814C337.118 769.664 369.052 683.592 389.335 686.052C390.256 686.164 391.177 686.427 392.099 686.557L468.403 697.246" stroke="black" stroke-width="5" stroke-linecap="round"/>
<path d="M479.403 715L472.403 736" stroke="black" stroke-width="5" stroke-linecap="round"/>
<path d="M391.169 697C376.538 705.933 354.771 767.231 342.073 808.479C339.301 817.469 345.428 826.668 354.788 827.839L427.105 836.88C434.498 837.802 441.48 833.335 443.721 826.264L449.403 808.299" stroke="black" stroke-width="5" stroke-linecap="round"/>
<path d="M402.896 705C407.724 703.246 417.763 692.905 414.897 682.883C414.411 681.144 413.525 679.414 412.153 677.739C402.896 666.425 386.952 677.741 391.068 686.998" stroke="black" stroke-width="5" stroke-linecap="round"/>
<path d="M414.403 683.162C419.327 677.14 432.639 674.389 439.597 686.258C446.068 700.711 433.63 708.968 426.168 710" stroke="black" stroke-width="5" stroke-linecap="round"/>
<path d="M440.403 685.967C445.602 681.999 459.518 676.651 467.572 687.004C477.121 703.048 460.028 713.4 452.976 711.846" stroke="black" stroke-width="5" stroke-linecap="round"/>
<path d="M467.403 687.043C474.04 683.146 485.832 681.451 490.366 691.617C494.9 701.784 483.729 715 473.005 715" stroke="black" stroke-width="5" stroke-linecap="round"/>
<path d="M429.519 771C426.79 774.731 427.356 784.354 451.403 793" stroke="black" stroke-width="5" stroke-linecap="round"/>
<path d="M492.403 751.167C466.41 746.162 439.734 744.307 429.628 744.004C424.207 743.843 418.188 748.471 421.215 753.711C422.053 755.053 424.686 758.035 428.499 759.236C444.693 764.511 451.602 764.98 458.733 765" stroke="black" stroke-width="5" stroke-linecap="round"/>
<path d="M458.403 764.78C451.269 764.76 444.358 764.29 428.158 759C424.463 760.337 423.984 766.697 429.835 770.668C433.53 773.185 440.218 776.272 451.269 780" stroke="black" stroke-width="5" stroke-linecap="round"/>
<path d="M368.403 477C449.227 509.095 513.679 603.405 505.74 732.773C504.581 751.041 495.126 788.865 466.571 794" stroke="black" stroke-width="5" stroke-linecap="round"/>
<path d="M437.903 292C453.569 287.667 488.603 283.2 503.403 300C521.903 321 512.903 327.5 533.903 300C550.703 278 618.569 274.5 650.403 275.5" stroke="black" stroke-width="5" stroke-linecap="round"/>
<path d="M730.403 219.498C728.403 214.665 726.635 197 730.403 183.498C736.403 161.998 755.903 82.9998 734.903 65.4984C707.743 42.8634 688.903 53.4992 646.403 57.9988" stroke="black" stroke-width="5" stroke-linecap="round"/>
<path d="M477.93 180.403L479.87 243.45C479.888 244.021 480.38 244.461 480.95 244.416L509.94 242.078C510.477 242.034 510.883 241.574 510.859 241.036L507.952 176.59C507.925 176.004 507.402 175.567 506.821 175.644L478.798 179.381C478.289 179.448 477.915 179.89 477.93 180.403Z" stroke="black" stroke-width="5" stroke-linecap="round"/>
<path d="M530.903 164.583V242.528C530.903 243.234 531.615 243.718 532.271 243.457L559.296 232.74C559.665 232.594 559.912 232.244 559.927 231.848L562.367 166.959C562.387 166.423 561.981 165.967 561.446 165.924L531.982 163.586C531.4 163.539 530.903 163.999 530.903 164.583Z" stroke="black" stroke-width="5" stroke-linecap="round"/>
<path d="M587.403 146.5V233C587.403 233.552 587.85 234 588.403 234H617.403C617.955 234 618.403 233.552 618.403 233V146.5C618.403 145.948 617.955 145.5 617.403 145.5H588.403C587.85 145.5 587.403 145.948 587.403 146.5Z" stroke="black" stroke-width="5" stroke-linecap="round"/>
<path d="M647.38 128.94L644.935 231.147C644.919 231.819 645.558 232.316 646.205 232.134L676.252 223.683C676.645 223.572 676.931 223.234 676.975 222.828L687.278 127.65C687.344 127.044 686.856 126.521 686.246 126.543L648.342 127.965C647.814 127.985 647.393 128.412 647.38 128.94Z" stroke="black" stroke-width="5" stroke-linecap="round"/>
<path d="M214.887 117C214.188 128.443 213.713 151.864 217.403 154" stroke="black" stroke-width="5" stroke-linecap="round"/>
<path d="M195.403 140L233.403 135" stroke="black" stroke-width="5" stroke-linecap="round"/>
<path d="M511.887 453C511.188 464.443 510.713 487.864 514.403 490" stroke="black" stroke-width="5" stroke-linecap="round"/>
<path d="M492.403 476L530.403 471" stroke="black" stroke-width="5" stroke-linecap="round"/>
<path d="M667.903 561C667.903 563.363 665.838 566.227 660.822 568.648C655.981 570.985 649.119 572.5 641.403 572.5C633.687 572.5 626.824 570.985 621.983 568.648C616.967 566.227 614.903 563.363 614.903 561C614.903 558.637 616.967 555.773 621.983 553.352C626.824 551.015 633.687 549.5 641.403 549.5C649.119 549.5 655.981 551.015 660.822 553.352C665.838 555.773 667.903 558.637 667.903 561Z" stroke="black" stroke-width="5"/>
<path d="M614.403 561.5V579.549C614.403 579.836 614.519 580.104 614.737 580.29C622.17 586.627 641.736 596.03 663.403 585" stroke="black" stroke-width="5" stroke-linecap="round"/>
<path d="M116.903 221C116.903 223.363 114.838 226.227 109.822 228.648C104.981 230.985 98.1187 232.5 90.4026 232.5C82.6865 232.5 75.8238 230.985 70.9834 228.648C65.9672 226.227 63.9026 223.363 63.9026 221C63.9026 218.637 65.9672 215.773 70.9834 213.352C75.8238 211.015 82.6865 209.5 90.4026 209.5C98.1187 209.5 104.981 211.015 109.822 213.352C114.838 215.773 116.903 218.637 116.903 221Z" stroke="black" stroke-width="5"/>
<path d="M63.4026 221.5V239.549C63.4026 239.836 63.5186 240.104 63.7367 240.29C71.1702 246.627 90.7356 256.03 112.403 245" stroke="black" stroke-width="5" stroke-linecap="round"/>
<path d="M627.65 395.632C626.001 397.324 622.524 397.935 617.241 396.17C612.143 394.466 606.17 390.762 600.643 385.378C595.116 379.994 591.258 374.12 589.421 369.068C587.518 363.834 588.037 360.342 589.686 358.649C591.335 356.957 594.812 356.346 600.095 358.112C605.193 359.816 611.166 363.519 616.693 368.903C622.22 374.287 626.078 380.161 627.915 385.213C629.818 390.448 629.299 393.94 627.65 395.632Z" stroke="black" stroke-width="5"/>
<path d="M588.979 358.658L576.384 371.587C576.184 371.792 576.08 372.065 576.107 372.351C577.009 382.077 584.462 402.465 607.68 409.683" stroke="black" stroke-width="5" stroke-linecap="round"/>
</svg>
