<svg width="1004" height="775" viewBox="0 0 1004 775" fill="none" xmlns="http://www.w3.org/2000/svg">
<path d="M119.133 78.8496L118.253 79.6312C116.892 80.8414 114.688 79.7422 114.69 77.9207C114.696 73.388 113.985 69.1276 111.286 71.5262C106.578 75.711 103.963 91.4029 100.824 85.1262C97.6857 78.8496 96.6395 77.2808 90.3624 83.0343C84.0852 88.7879 86.1776 78.8485 83.039 80.9414C81.2271 82.1497 76.0375 85.6093 71.7161 88.4902C70.1867 89.5098 68.2229 88.1095 68.7238 86.341C75.7888 61.3981 91.2334 21.2017 112.332 27.0626C132.21 34.909 121.748 132.728 141.103 107.619C151.183 94.5422 152.611 44.6386 169.35 52.1712C198.392 61.8517 190.71 144.481 227.026 226.107C227.849 227.958 231.259 227.533 232.695 226.105C234 224.809 235.849 224.224 238.399 225.317C245.722 228.455 242.584 231.594 249.384 225.317C256.184 219.039 255.661 234.732 259.846 226.886C264.031 219.039 259.846 208.054 270.308 215.901C280.77 223.747 282.862 228.455 284.432 221.132C286.001 213.808 286.001 214.855 290.186 217.993C294.206 221.008 294.847 224.506 298.137 218.748C298.409 218.273 298.466 217.721 298.297 217.201C289.989 191.637 272.335 132.207 266.123 92.4498C259.846 52.2759 247.815 40.8375 242.584 40.14C230.204 39.4425 199.271 40.0354 174.581 47.9865" stroke="black" stroke-width="5" stroke-linecap="round"/>
<path d="M447.206 329.413C403.277 345.554 353.425 400.864 483.732 481.111" stroke="black" stroke-width="5" stroke-linecap="round"/>
<path d="M556.308 322.599C585.552 318.666 662.62 336.363 623.57 416.495C618.858 426.163 601.734 445.205 570.931 444.025C531.45 442.513 510.167 482.699 497.332 502.035" stroke="black" stroke-width="5" stroke-linecap="round"/>
<path d="M568.474 354.522C541.601 374.822 489.437 440.863 495.768 542.627C502.098 644.39 502.692 658.371 502.197 652.64" stroke="black" stroke-width="5" stroke-linecap="round"/>
<path d="M529.764 461.234V544.93" stroke="black" stroke-width="5" stroke-linecap="round"/>
<path d="M468.039 471.696V551.207" stroke="black" stroke-width="5" stroke-linecap="round"/>
<path d="M484.778 479.019C482.964 451.467 473.1 376.488 448.161 296.981" stroke="black" stroke-width="5" stroke-linecap="round"/>
<path d="M538.155 381.723C537.818 367.66 541.486 334.59 558.852 314.806C580.56 290.076 582.982 270.566 582.982 224.5" stroke="black" stroke-width="5" stroke-linecap="round"/>
<path d="M530.482 242.709C538.686 241.239 552.634 231.44 542.788 204" stroke="black" stroke-width="5" stroke-linecap="round"/>
<path d="M411.544 199.685C411.857 205.243 415.015 216.582 425.145 217.47" stroke="black" stroke-width="5" stroke-linecap="round"/>
<path d="M425.145 242.579C405.329 231.464 373.523 204.159 404.833 183.853C409.126 180.867 419.2 179.076 425.145 195.797" stroke="black" stroke-width="5" stroke-linecap="round"/>
<path d="M440.595 60.3219C330.009 71.7676 363.799 155.209 394.518 195.5C400.793 181.686 413.145 181.193 418.537 182.672C423.635 104.921 472.295 115.413 495.987 130.377C545.398 128.404 557.751 147.974 557.751 158.005C579.169 144.558 597.306 160.345 598.777 163.799C653.678 2.76973 515.758 28.2542 440.595 60.3219Z" fill="black"/>
<path d="M495.763 207.008C500.674 207.008 504.656 202.793 504.656 197.593C504.656 192.392 500.674 188.177 495.763 188.177C490.852 188.177 486.87 192.392 486.87 197.593C486.87 202.793 490.852 207.008 495.763 207.008Z" fill="black"/>
<path d="M572.784 204.227C576.8 205.854 581.639 203.267 583.592 198.447C585.545 193.628 583.873 188.401 579.857 186.774C575.84 185.146 571.001 187.734 569.048 192.553C567.095 197.372 568.767 202.599 572.784 204.227Z" fill="black"/>
<path d="M538.134 190.269H520.349" stroke="black" stroke-width="5" stroke-linecap="round"/>
<path d="M456.482 188.5L423.052 190.269" stroke="black" stroke-width="5" stroke-linecap="round"/>
<path d="M455.145 180L418.145 182" stroke="black" stroke-width="5" stroke-linecap="round"/>
<path d="M404.221 364.984C301.553 421.593 182.762 572.459 352.615 755.215" stroke="black" stroke-width="5" stroke-linecap="round"/>
<path d="M391.667 667.334C372.861 636.671 372.534 630.946 370.743 592.008" stroke="black" stroke-width="5" stroke-linecap="round"/>
<path d="M679.37 477.973C663.725 526.614 667.336 582.294 671.423 637.518" stroke="black" stroke-width="5" stroke-linecap="round"/>
<path d="M545.457 281.288C539.57 274.973 522.749 266.13 502.563 281.288" stroke="black" stroke-width="5" stroke-linecap="round"/>
<path d="M688.786 436.125C685.701 429.101 659.565 373.21 632.292 358.706" stroke="black" stroke-width="5" stroke-linecap="round"/>
<path d="M92.9778 407.878L90.3623 393.754L158.365 370.215L160.981 379.107L198.644 367.076L200.736 372.307L92.9778 407.878Z" fill="black"/>
<path d="M68.2717 595.02C39.857 537.523 13.3814 402.857 2.98041 338.287C2.74472 336.824 4.13822 335.681 5.55364 336.12L16.2574 339.442C17.088 339.7 17.9899 339.392 18.4886 338.679L24.0089 330.793C24.5671 329.996 25.6183 329.716 26.499 330.13L31.8466 332.647C32.9249 333.154 34.2048 332.612 34.5905 331.484L39.6065 316.822C40.0911 315.406 41.9029 315.004 42.9405 316.084L52.0201 325.526C52.906 326.448 54.4169 326.313 55.1259 325.25L57.0167 322.413C57.5473 321.618 58.5671 321.309 59.45 321.677L62.3135 322.87C63.3515 323.302 64.5419 322.794 64.9478 321.746L68.1766 313.405C68.8841 311.577 71.5164 311.747 71.9653 313.654C89.6829 388.947 103.553 482.471 128.958 566.625C129.506 568.441 127.457 569.942 125.894 568.867L125.404 568.53C124.077 567.618 122.271 568.568 122.271 570.178V570.741C122.271 572.284 120.597 573.246 119.263 572.468L105.883 564.663C104.69 563.967 103.169 564.66 102.91 566.016L101.738 572.172C101.525 573.29 100.423 574.005 99.315 573.745L94.3341 572.573C93.2855 572.326 92.2299 572.954 91.9465 573.993L90.0152 581.075C89.6651 582.358 88.1824 582.949 87.0458 582.257L79.5058 577.667C78.3841 576.984 76.92 577.55 76.5479 578.809L71.8677 594.65C71.3607 596.366 69.0645 596.624 68.2717 595.02Z" stroke="black" stroke-width="5" stroke-linecap="round"/>
<path d="M25.498 358.183C27.5904 365.681 30.729 380.886 26.5442 381.723C21.3132 382.769 23.4056 368.645 33.3445 363.414C43.2833 358.183 35.4369 375.969 42.2372 374.399C49.0374 372.83 57.407 352.429 52.6991 352.429C47.9912 352.429 45.3757 373.876 57.9301 373.353C70.4844 372.83 66.8227 349.814 64.2073 353.998C61.5918 358.183 64.7304 368.122 74.1461 370.738" stroke="black" stroke-width="3" stroke-linecap="round"/>
<path d="M70.4849 545.976C70.3105 551.032 72.0542 558.112 80.4237 545.976C82.5159 543.36 82.202 540.222 78.8542 542.314C74.6694 544.93 80.4235 553.299 87.2238 549.637C94.024 545.976 102.917 536.037 96.6395 537.083C90.3623 538.129 94.5471 547.545 102.394 544.406" stroke="black" stroke-width="3" stroke-linecap="round"/>
<path d="M59.4993 524.528C66.6483 523.831 82.3063 521.076 87.7465 515.636" stroke="black" stroke-width="3" stroke-linecap="round"/>
<path d="M64.2073 508.312C69.787 507.615 81.7834 505.592 85.1312 503.081" stroke="black" stroke-width="3" stroke-linecap="round"/>
<path d="M92.4547 501.512V493.666" stroke="black" stroke-width="3" stroke-linecap="round"/>
<path d="M98.2086 501.512V493.143" stroke="black" stroke-width="3" stroke-linecap="round"/>
<path d="M48.5142 470.126C58.9761 467.685 80.6324 462.384 83.5617 460.71" stroke="black" stroke-width="3" stroke-linecap="round"/>
<path d="M38.0524 436.648C46.7707 434.904 66.5089 430.266 75.7154 425.663" stroke="black" stroke-width="3" stroke-linecap="round"/>
<path d="M35.9598 429.848C45.3756 429.848 65.0441 424.407 72.5767 419.386" stroke="black" stroke-width="3" stroke-linecap="round"/>
<path d="M102.917 451.818L211.631 414.745C214.27 413.845 215.663 410.96 214.728 408.334L200.213 367.599" stroke="black" stroke-width="5" stroke-linecap="round"/>
<path d="M85.6542 371.784L151.564 350.337" stroke="black" stroke-width="5" stroke-linecap="round"/>
<path d="M158.961 373.794L138.408 308.027C137.585 305.393 139.052 302.589 141.685 301.764L245.695 269.171C248.316 268.35 251.109 269.797 251.95 272.411L272.954 337.708C273.803 340.346 272.345 343.17 269.703 344.006L165.242 377.07C162.602 377.905 159.786 376.437 158.961 373.794Z" stroke="black" stroke-width="5" stroke-linecap="round"/>
<path d="M100.824 424.093C103.091 420.955 108.566 414.887 112.332 415.724C117.04 416.77 118.61 416.77 123.317 411.016C128.025 405.262 129.072 415.201 136.918 411.016C144.764 406.831 153.134 398.985 157.319 403.169C160.667 406.517 164.293 401.775 165.688 398.985" stroke="black" stroke-width="3" stroke-linecap="round"/>
<path d="M160.395 344.12C159.611 341.459 158.553 338.108 157.59 335.599C156.996 334.052 158.012 331.254 159.58 330.718L173.782 325.859C174.808 325.508 175.928 326.04 176.304 327.057L180.146 337.429C180.536 338.483 179.981 339.652 178.918 340.015L162.983 345.467C161.896 345.839 160.72 345.222 160.395 344.12Z" stroke="black" stroke-width="3"/>
<path d="M235.26 344.583L238.399 329.413" stroke="black" stroke-width="3" stroke-linecap="round"/>
<path d="M242.583 335.689C245.722 334.119 251.999 337.783 248.338 339.351C246.895 339.968 242.06 332.027 256.184 332.55" stroke="black" stroke-width="3" stroke-linecap="round"/>
<path d="M218.521 341.992C221.66 340.422 227.937 344.086 224.275 345.654C222.832 346.271 217.998 338.33 232.122 338.853" stroke="black" stroke-width="3" stroke-linecap="round"/>
<path d="M107.624 26.0143C123.317 20.7833 158.889 11.3643 175.627 15.5523C184.52 17.7774 193.761 36.1277 192.366 43.7999" stroke="black" stroke-width="5" stroke-linecap="round"/>
<path d="M129.594 32.2934C142.672 32.2932 162.236 23.4007 167.257 25.4931" stroke="black" stroke-width="3" stroke-linecap="round"/>
<path d="M130.117 38.571C136.046 38.571 149.367 37.4202 155.226 32.8169" stroke="black" stroke-width="3" stroke-linecap="round"/>
<path d="M199.69 69.9567C213.465 68.7362 241.956 65.8765 245.722 64.2026" stroke="black" stroke-width="3" stroke-linecap="round"/>
<path d="M203.351 77.803C215.208 75.7106 241.223 71.6304 250.43 72.0489" stroke="black" stroke-width="3" stroke-linecap="round"/>
<path d="M204.92 102.911C215.905 104.481 242.165 95.9018 244.676 97.1572" stroke="black" stroke-width="3" stroke-linecap="round"/>
<path d="M205.444 110.76C221.66 110.759 241.537 99.2502 255.661 101.868" stroke="black" stroke-width="3" stroke-linecap="round"/>
<path d="M750.023 83.6599L752.613 74.4097C752.901 73.3818 753.945 72.7611 754.986 72.9994L844.542 93.5123C845.719 93.7818 846.39 95.0244 845.971 96.1564L842.15 106.473C841.797 107.426 840.786 107.962 839.8 107.721L751.474 86.142C750.376 85.8736 749.718 84.7487 750.023 83.6599Z" fill="black"/>
<path d="M760.973 55.312L849.832 74.4584C852.87 75.1129 854.581 78.351 853.411 81.2297L825.393 150.125C824.45 152.445 821.935 153.709 819.51 153.082L732.726 130.638" stroke="black" stroke-width="5" stroke-linecap="round"/>
<path d="M768.82 28.6344C760.884 38.2414 738.564 115.181 723.915 149.279C723.859 149.41 723.787 149.536 723.703 149.651C715.975 160.333 714.92 149.432 711.279 142.669C707.617 135.868 691.925 151.039 685.124 153.131C678.324 155.224 686.17 139.531 675.709 142.669C665.247 145.808 665.247 141.623 664.723 137.438C664.396 134.816 658.057 137.157 652.894 139.636C651.354 140.375 649.572 139.044 649.943 137.377C660.271 91.0357 684.444 34.6587 696.56 9.49354C697.125 8.31958 698.639 8.04312 699.8 8.63339C705.279 11.4173 708.649 5.45901 713.895 3.52596C723.834 -0.13663 717.033 16.6034 725.926 14.5107C734.819 12.418 736.388 14.5107 737.434 16.6034C738.48 18.6961 743.188 17.6493 748.942 11.3721C754.696 5.09497 757.312 6.14116 758.358 14.5107C759.404 22.8803 766.204 13.9876 769.866 17.6493C772.795 20.5787 770.389 26.1932 768.82 28.6344Z" stroke="black" stroke-width="5" stroke-linecap="round"/>
<path d="M678.847 95.5903C695.587 100.821 728.228 99.0428 731.157 102.391" stroke="black" stroke-width="3" stroke-linecap="round"/>
<path d="M702.387 107.622C705.525 106.924 713.058 105.948 718.08 107.622" stroke="black" stroke-width="3" stroke-linecap="round"/>
<path d="M688.263 67.3433L722.787 69.9588" stroke="black" stroke-width="3" stroke-linecap="round"/>
<path d="M694.017 58.4507C705.7 59.3225 730.634 61.5893 736.911 63.6817" stroke="black" stroke-width="3" stroke-linecap="round"/>
<path d="M699.248 119.13L704.479 114.945" stroke="black" stroke-width="3" stroke-linecap="round"/>
<path d="M711.802 115.991L709.71 121.745" stroke="black" stroke-width="3" stroke-linecap="round"/>
<path d="M718.079 118.084L717.556 121.746" stroke="black" stroke-width="3" stroke-linecap="round"/>
<path d="M724.357 117.561V121.222" stroke="black" stroke-width="3" stroke-linecap="round"/>
<path d="M702.91 28.1109C699.771 31.4239 694.645 37.7359 699.248 36.4805C704.522 35.0423 713.749 27.4536 714.449 35.0528C714.565 36.3181 713.014 37.3943 712.288 36.3515C711.75 35.5779 712.674 34.6359 717.556 33.865C727.495 32.2957 719.126 37.5267 728.542 36.4805C737.957 35.4343 744.758 22.3568 741.096 26.0185C737.434 29.6802 733.249 39.6188 743.188 39.0957C753.127 38.5726 754.696 26.5413 751.558 32.8185C748.419 39.0957 751.558 38.5726 751.558 40.665" stroke="black" stroke-width="3" stroke-linecap="round"/>
<path d="M743.188 101.868C745.106 100.822 750.721 100.508 757.835 107.622C766.728 116.514 779.282 105.006 782.944 110.237C786.605 115.468 786.082 115.991 790.79 114.422" stroke="black" stroke-width="3" stroke-linecap="round"/>
<path d="M692.937 722.497L694.172 713.85C694.383 712.372 695.649 711.274 697.142 711.274H809.824C811.65 711.274 813.052 712.891 812.794 714.699L811.559 723.345C811.348 724.823 810.082 725.921 808.589 725.921H695.907C694.081 725.921 692.679 724.304 692.937 722.497Z" fill="black"/>
<path d="M814.96 695.81L805.761 770.367C805.576 771.871 804.299 773 802.784 773H689.084C687.266 773 685.866 771.396 686.112 769.595L696.278 695.038C696.481 693.551 697.751 692.443 699.251 692.443H811.983C813.785 692.443 815.181 694.021 814.96 695.81Z" stroke="black" stroke-width="3" stroke-linecap="round"/>
<path d="M699.771 745.276C703.258 742.137 711.488 736.802 716.51 740.568C722.787 745.276 727.495 736.906 733.249 742.137C739.003 747.368 754.173 735.86 760.45 742.137C765.472 747.159 770.912 744.23 773.005 742.137" stroke="black" stroke-width="3" stroke-linecap="round"/>
<path d="M717.033 690.873L723.057 646.857C723.468 643.854 721.134 641.179 718.103 641.179H609.435C606.943 641.179 604.832 643.014 604.484 645.481L594.399 716.992C593.97 720.033 596.359 722.738 599.43 722.689L691.925 721.213" stroke="black" stroke-width="5" stroke-linecap="round"/>
<path d="M610.056 689.168L611.163 679.567C611.28 678.558 612.134 677.796 613.15 677.796H629.87C631.126 677.796 632.071 678.941 631.834 680.174L629.988 689.775C629.807 690.716 628.983 691.397 628.024 691.397H612.042C610.847 691.397 609.919 690.355 610.056 689.168Z" stroke="black" stroke-width="3" stroke-linecap="round"/>
<path d="M674.139 711.275L684.078 698.72" stroke="black" stroke-width="3" stroke-linecap="round"/>
<path d="M655.831 706.043C657.4 704.3 661.481 701.335 665.247 703.428C669.955 706.043 668.909 711.274 663.678 710.228C658.447 709.182 663.154 702.382 674.139 705.52" stroke="black" stroke-width="3" stroke-linecap="round"/>
<path d="M686.17 705.52C687.74 706.915 691.506 708.659 694.017 704.474" stroke="black" stroke-width="3" stroke-linecap="round"/>
<path d="M767.373 400.554C764.518 404.457 765.11 414.525 790.267 423.571" stroke="black" stroke-width="5" stroke-linecap="round"/>
<path d="M797.936 394.277C790.476 394.256 783.248 393.766 766.306 388.246C762.316 386.99 759.561 383.87 758.685 382.467C755.518 376.985 761.816 372.143 767.487 372.311C773.67 372.497 785.783 373.238 800.215 374.868" stroke="black" stroke-width="5" stroke-linecap="round"/>
<path d="M797.591 394.048C790.128 394.026 782.897 393.535 765.949 388C762.083 389.398 761.582 396.053 767.703 400.207C771.568 402.84 778.566 406.07 790.128 409.97" stroke="black" stroke-width="5" stroke-linecap="round"/>
<path d="M669.431 599.855C699.422 624.091 756.974 622.327 780.851 559.053C801.775 503.605 809.099 455.654 810.145 432.986" stroke="black" stroke-width="5" stroke-linecap="round"/>
<path d="M695.586 554.868C696.11 551.73 706.571 507.266 723.311 490.527" stroke="black" stroke-width="5" stroke-linecap="round"/>
<path d="M809.622 428.802C813.981 416.945 820.084 389.36 809.622 373.876" stroke="black" stroke-width="5" stroke-linecap="round"/>
<path d="M777.712 419.387L775.802 477.182C775.723 479.556 773.048 480.901 771.096 479.549L770.957 479.453C769.73 478.604 768.066 478.785 767.051 479.879L764.066 483.093C762.936 484.309 761.034 484.377 759.82 483.245L756.155 479.824C755.029 478.773 753.291 478.745 752.132 479.759L747.209 484.067C746.348 484.82 745.135 485.019 744.079 484.579L734.831 480.725C733.851 480.317 732.727 480.457 731.877 481.095L723.003 487.75C721.714 488.717 719.891 488.493 718.875 487.242L715.847 483.516C714.779 482.201 712.834 482.031 711.554 483.141L709.943 484.536C708.205 486.043 705.514 485.186 705.14 482.916C692.021 403.212 719.248 200.973 821.652 216.948C839.264 219.563 872.917 241.847 866.639 310.059C860.497 376.801 875.556 395.901 884.375 397.346C884.755 397.408 885.167 397.56 885.507 397.38C886.3 396.961 887.43 394.959 888.086 389.046C889.123 379.72 895.805 321.121 919.826 350.009C920.26 350.531 920.519 351.23 920.519 351.909V422.574C920.519 424.755 922.774 426.207 924.76 425.305L930.724 422.594C931.548 422.219 932.497 422.237 933.307 422.642L940.969 426.473C941.912 426.944 943.033 426.886 943.922 426.321L962.986 414.189C964.379 413.302 966.227 413.709 967.12 415.098L973.348 424.786C974.224 426.149 976.025 426.57 977.415 425.736L985.728 420.748C986.942 420.02 988.519 420.502 989.118 421.785V421.785C990.031 423.743 992.829 423.571 993.429 421.496C999.624 400.062 1006.48 361.703 994.275 343.014C990.176 336.737 932.55 331.331 910.057 338.306" stroke="black" stroke-width="5" stroke-linecap="round"/>
<path d="M822.176 216.424C846.064 216.773 901.217 215.559 918.949 228.455C947.72 249.379 931.503 322.09 941.442 334.121" stroke="black" stroke-width="5" stroke-linecap="round"/>
<path d="M784.513 361.322C789.57 330.11 804.914 270.826 856.177 244.148" stroke="black" stroke-width="5" stroke-linecap="round"/>
<path d="M869.255 235.255C880.937 235.255 905.976 235.778 912.672 237.871" stroke="black" stroke-width="3" stroke-linecap="round"/>
<path d="M874.486 244.148C894.887 244.148 918.949 249.065 921.042 247.81" stroke="black" stroke-width="3" stroke-linecap="round"/>
<path d="M878.67 277.103L923.134 278.672" stroke="black" stroke-width="3" stroke-linecap="round"/>
<path d="M882.855 285.473C891.574 286.519 909.847 287.984 913.195 285.473" stroke="black" stroke-width="3" stroke-linecap="round"/>
<path d="M878.67 317.382L916.857 318.951" stroke="black" stroke-width="3" stroke-linecap="round"/>
<path d="M883.902 324.182C889.307 324.88 900.641 325.856 902.733 324.182" stroke="black" stroke-width="3" stroke-linecap="round"/>
<path d="M941.966 355.045C943.012 363.938 944.477 381.828 941.966 382.246C938.827 382.769 951.382 362.368 955.043 366.553C958.705 370.738 944.058 392.708 961.32 382.246C966.028 378.41 974.188 369.169 969.167 362.891C962.89 355.045 963.936 386.431 967.597 382.246C971.259 378.061 981.721 359.23 984.86 370.215C987.998 381.2 975.444 381.2 979.629 377.015C983.813 372.83 989.044 370.215 992.183 377.015" stroke="black" stroke-width="3" stroke-linecap="round"/>
<path d="M461.482 217C506.112 242.502 519.924 201.119 520.466 175.076C520.49 173.94 519.536 173.044 518.401 173.098L458.388 175.911C457.321 175.961 456.482 176.84 456.482 177.908V189.5" stroke="black" stroke-width="5" stroke-linecap="round"/>
<path d="M585.482 220.5C545.575 227.8 537.723 200.362 537.486 175.072C537.475 173.94 538.423 173.04 539.554 173.088L594.426 175.413C595.552 175.461 596.417 176.429 596.336 177.554L595.482 189.5" stroke="black" stroke-width="5" stroke-linecap="round"/>
</svg>
