<svg width="813" height="506" viewBox="0 0 813 506" fill="none" xmlns="http://www.w3.org/2000/svg">
<path d="M281.757 480.23L2.8623 288.714L286.547 441.52L381.109 288.714L289.085 478.291C287.749 481.043 284.278 481.961 281.757 480.23Z" fill="black"/>
<path d="M194.266 262.077C180.564 223.315 151.907 141.139 146.903 122.533C142.634 106.661 131.125 98.3405 123.581 95.1272C121.558 94.2653 119.306 95.1889 118.154 97.0624L3.98436 282.66C2.48929 285.091 3.32808 288.278 5.82594 289.657L282.069 442.215C284.433 443.521 287.407 442.713 288.786 440.391L396.23 259.394C398.265 256.484 398.881 249.884 385.624 246.241C384.963 246.06 384.264 246.034 383.588 246.146L217.501 273.706" stroke="black" stroke-width="5" stroke-linecap="round"/>
<path d="M14.2258 287.835C21.0522 283.055 40.5817 273.495 64.0882 273.495C86.9358 273.495 167.152 266.722 207.606 263.05C209.661 262.863 211.609 263.959 212.528 265.807L276.894 395.384C280.455 402.553 286.51 420.478 282.236 434.818" stroke="black" stroke-width="5" stroke-linecap="round"/>
<path d="M264.866 65.9996L332.696 61.6504C334.675 61.5236 336.542 62.578 337.455 64.3383L350.265 89.039" stroke="black" stroke-width="5" stroke-linecap="round"/>
<path d="M126.239 90.3953L144.355 38.2543C145.218 35.7713 147.856 34.3803 150.392 35.071L402.213 103.649" stroke="black" stroke-width="5" stroke-linecap="round"/>
<path d="M387.602 243.26L408.706 175.078" stroke="black" stroke-width="5" stroke-linecap="round"/>
<path d="M209.031 163.714L308.057 188.065" stroke="black" stroke-width="3" stroke-linecap="round"/>
<path d="M187.927 179.948L319.42 214.039" stroke="black" stroke-width="3" stroke-linecap="round"/>
<path d="M209.031 205.922L290.2 223.779" stroke="black" stroke-width="3" stroke-linecap="round"/>
<path d="M593.771 275.401C523.246 281.601 492.893 197.459 436.652 180.631C414.333 170.888 374.697 146.266 394.694 125.717C414.691 105.169 479.8 131.917 509.855 147.86C519.08 153.174 542.707 158.843 563.418 139.003" stroke="black" stroke-width="5" stroke-linecap="round"/>
<path d="M548.316 136.117C535.077 125.046 498.36 106.925 457.407 123.007" stroke="black" stroke-width="5" stroke-linecap="round"/>
<path d="M681.433 214.039C674.578 181.325 655.323 114.468 633.147 108.758C610.971 103.048 563.699 81.9918 542.834 72.1775C527.931 64.445 480.241 58.259 408.706 95.375" stroke="black" stroke-width="5" stroke-linecap="round"/>
<path d="M584.031 89.0389C571.29 73.506 548.746 37.1284 542.167 20.9329C538.527 11.9715 528.82 22.7252 523.966 34.3749" stroke="black" stroke-width="5" stroke-linecap="round"/>
<path d="M559.68 77.6753C542.044 59.5116 507.436 18.8174 499.597 7.10479C490.63 -6.29461 473.591 16.0378 479.868 32.1171" stroke="black" stroke-width="5" stroke-linecap="round"/>
<path d="M541.823 69.4326C519.537 56.3143 470.151 29.5529 450.896 27.454C431.641 25.3551 451.193 55.7313 463.376 71.1817" stroke="black" stroke-width="5" stroke-linecap="round"/>
<path d="M182.773 129.099C182.511 129.252 182.081 129.341 181.484 129.365C180.921 129.4 180.485 129.375 180.175 129.291C179.899 129.216 179.78 129.109 179.817 128.969C181.662 124.651 183.207 120.139 184.453 115.434C186.668 107.07 188.125 99.546 188.824 92.8624L190.416 92.2856L194.429 95.9511C192.771 101.516 190.792 107.665 188.492 114.4C186.201 121.1 184.295 126 182.773 129.099Z" fill="black"/>
<path d="M192.634 131.324C194.624 127.157 196.093 123.279 197.044 119.689C197.995 116.099 198.526 113.535 198.638 111.996C198.794 110.432 198.85 109.103 198.808 108.008C198.8 106.923 198.797 106.306 198.8 106.157L200.247 105.709L203.892 108.883C203.632 110.979 203.323 112.706 202.963 114.066C202.603 115.425 202.323 116.413 202.122 117.031C204.325 114.566 206.531 112.717 208.74 111.486C210.949 110.254 212.793 109.839 214.274 110.241C217.133 111.016 218.041 113.373 216.998 117.311C216.186 120.378 214.92 123.975 213.199 128.103C211.488 132.196 210.406 134.817 209.955 135.964C209.412 136.34 208.59 136.379 207.488 136.08C207.247 136.015 207.14 135.93 207.168 135.825C208.866 131.504 210.111 127.845 210.905 124.848C212.354 119.376 212.062 116.365 210.03 115.814C208.48 115.394 206.542 116.231 204.215 118.327C201.923 120.433 199.646 123.663 197.386 128.018L197.282 127.99C196.357 129.532 195.629 130.679 195.097 131.432C194.486 131.789 193.905 131.893 193.354 131.743C192.837 131.603 192.597 131.464 192.634 131.324Z" fill="black"/>
<path d="M243.39 118.023L243.255 118.323C240.395 121.32 237.617 124.769 234.923 128.671C232.272 132.547 230.185 136.388 228.66 140.196L223.732 140.821C222.871 140.587 222.281 140.166 221.963 139.557C221.514 136.372 221.348 132.61 221.463 128.271C221.622 123.906 222.149 120.034 223.044 116.653C223.432 115.189 223.832 114.028 224.244 113.168L225.771 112.63L229.35 115.841C228.038 118.287 226.943 121.165 226.067 124.476C225.199 127.752 224.572 131.934 224.185 137.021C226.125 133.737 228.699 130.289 231.907 126.676C235.125 123.029 238.114 120.104 240.875 117.902C241.659 117.591 242.464 117.548 243.29 117.772C243.394 117.8 243.427 117.884 243.39 118.023Z" fill="black"/>
<path d="M250.971 121.648C250.763 122.712 250.512 123.802 250.216 124.917C248.611 130.981 245.793 137.371 241.763 144.085C241.152 144.442 240.433 144.509 239.606 144.284C239.434 144.238 239.318 144.188 239.258 144.134C239.233 144.09 239.247 144.038 239.3 143.977C241.446 139.218 243.073 134.747 244.181 130.564C245.288 126.382 245.854 122.502 245.879 118.922L247.327 118.474L250.971 121.648ZM250.224 115.898C249.363 115.665 248.769 115.186 248.444 114.463C248.153 113.749 248.128 112.939 248.368 112.033C248.608 111.127 249.211 110.45 250.179 110.003C251.156 109.52 252.429 109.38 254 109.582C254.803 110.733 255.042 111.919 254.719 113.139C254.406 114.324 253.799 115.149 252.901 115.615C252.011 116.047 251.119 116.141 250.224 115.898Z" fill="black"/>
<path d="M270.933 126.444L268.414 129.683C266.634 129.574 264.861 129.299 263.096 128.857C259.987 137.951 257.354 144.409 255.197 148.232C254.655 148.607 253.867 148.655 252.833 148.375C252.592 148.31 252.486 148.225 252.513 148.12C254.581 143.377 256.234 138.67 257.47 134C257.923 132.292 258.429 130.17 258.99 127.632C257.22 126.928 255.856 126.297 254.896 125.738C254.717 125.577 254.586 125.168 254.502 124.51C254.461 123.827 254.47 123.306 254.528 122.948L254.817 122.691C256.087 123.334 257.703 123.921 259.666 124.454C260.475 120.564 260.968 117.933 261.146 116.562L262.622 116.01L266.211 119.392L264.281 125.425C266.162 125.711 268.281 125.725 270.638 125.467L270.933 126.444Z" fill="black"/>
<path d="M283.8 129.877L288.469 129.182L289.515 130.25C287.483 133.322 285.881 137.071 284.709 141.498C284.211 143.38 283.674 146.035 283.098 149.465C282.522 152.895 282.215 155.24 282.176 156.499C282.149 156.604 281.877 156.586 281.36 156.446C280.843 156.306 280.409 155.927 280.056 155.308C279.636 152.43 279.764 148.393 280.439 143.197C278.069 146.29 275.578 148.659 272.964 150.304C270.385 151.958 268.287 152.565 266.668 152.126C263.568 151.286 262.54 148.896 263.583 144.958C264.182 142.693 265.207 140.636 266.656 138.788C268.105 136.939 269.795 135.437 271.726 134.279C275.578 131.999 279.603 130.532 283.8 129.877ZM271.119 146.609C272.221 146.908 273.679 146.351 275.493 144.938C277.35 143.499 279.247 141.286 281.182 138.3C281.276 137.803 281.508 136.857 281.878 135.463C282.247 134.069 282.536 133.045 282.746 132.392C279.332 133.297 276.454 134.478 274.111 135.935C271.779 137.356 270.266 139.374 269.574 141.988C268.882 144.602 269.397 146.142 271.119 146.609Z" fill="black"/>
<path d="M308.569 136.649L306.05 139.888C304.271 139.779 302.498 139.504 300.732 139.062C297.623 148.155 294.99 154.613 292.833 158.436C292.291 158.812 291.503 158.86 290.47 158.58C290.229 158.515 290.122 158.43 290.15 158.325C292.218 153.582 293.87 148.875 295.107 144.205C295.559 142.497 296.066 140.374 296.627 137.837C294.857 137.133 293.492 136.502 292.533 135.943C292.354 135.782 292.222 135.373 292.138 134.715C292.097 134.032 292.106 133.511 292.164 133.153L292.454 132.895C293.723 133.538 295.339 134.126 297.302 134.658C298.111 130.769 298.604 128.138 298.783 126.767L300.258 126.215L303.847 129.597L301.918 135.63C303.799 135.916 305.917 135.93 308.274 135.672L308.569 136.649Z" fill="black"/>
<path d="M316.759 139.486C316.551 140.55 316.3 141.64 316.004 142.755C314.399 148.819 311.581 155.208 307.551 161.923C306.94 162.28 306.221 162.347 305.394 162.122C305.222 162.076 305.106 162.026 305.046 161.972C305.021 161.928 305.035 161.876 305.088 161.815C307.234 157.056 308.861 152.585 309.968 148.402C311.076 144.22 311.642 140.34 311.667 136.76L313.114 136.312L316.759 139.486ZM316.012 133.736C315.15 133.503 314.557 133.024 314.232 132.301C313.941 131.587 313.916 130.777 314.156 129.871C314.396 128.965 314.999 128.288 315.967 127.841C316.944 127.358 318.217 127.218 319.788 127.42C320.591 128.571 320.83 129.757 320.507 130.977C320.194 132.162 319.587 132.987 318.689 133.453C317.799 133.885 316.907 133.979 316.012 133.736Z" fill="black"/>
<path d="M341.525 145.585L338.284 147.788C339.586 150.68 339.761 153.922 338.81 157.511C337.472 162.565 334.842 166.017 330.919 167.867C328.853 168.838 326.58 168.987 324.1 168.315C321.655 167.652 319.817 166.089 318.587 163.626C317.39 161.173 317.254 158.203 318.177 154.718C319.146 151.059 321.37 148.095 324.85 145.826C326.678 144.64 329.004 143.87 331.83 143.516C334.69 143.171 337.861 143.321 341.345 143.967L341.525 145.585ZM326.135 163.768C328.236 164.338 330.215 163.903 332.072 162.464C333.964 161.035 335.169 159.344 335.686 157.393C336.802 153.176 336.718 149.66 335.433 146.846C332.661 146.58 330.104 147.176 327.762 148.632C325.419 150.089 323.921 152.055 323.266 154.529C322.61 157.004 322.529 159.055 323.021 160.682C323.547 162.319 324.585 163.348 326.135 163.768Z" fill="black"/>
<path d="M341.716 171.747C343.706 167.58 345.176 163.701 346.126 160.111C347.077 156.522 347.608 153.958 347.72 152.419C347.876 150.855 347.933 149.526 347.89 148.431C347.882 147.346 347.88 146.729 347.882 146.58L349.33 146.132L352.974 149.305C352.715 151.401 352.405 153.129 352.045 154.488C351.685 155.847 351.405 156.836 351.204 157.454C353.408 154.988 355.614 153.14 357.822 151.908C360.031 150.677 361.876 150.262 363.357 150.664C366.215 151.439 367.123 153.795 366.08 157.734C365.268 160.801 364.002 164.398 362.281 168.526C360.57 172.619 359.489 175.24 359.037 176.387C358.495 176.763 357.672 176.801 356.57 176.503C356.329 176.437 356.222 176.352 356.25 176.248C357.948 171.927 359.194 168.268 359.987 165.271C361.436 159.799 361.145 156.787 359.113 156.236C357.563 155.816 355.624 156.654 353.297 158.75C351.005 160.855 348.729 164.085 346.468 168.441L346.365 168.413C345.439 169.955 344.711 171.102 344.18 171.854C343.568 172.212 342.987 172.315 342.436 172.166C341.919 172.026 341.68 171.886 341.716 171.747Z" fill="black"/>
<path d="M809.681 333.357C775.319 309.277 705.18 257.265 694.421 246.507C673.316 225.403 613.252 209.169 619.746 300.89C625.485 381.957 754.486 483.52 795.882 503" stroke="black" stroke-width="5" stroke-linecap="round"/>
</svg>
