<svg width="835" height="773" viewBox="0 0 835 773" fill="none" xmlns="http://www.w3.org/2000/svg">
<path d="M550.388 345.319C644.395 395.074 832.409 537.648 832.409 709.898" stroke="black" stroke-width="5" stroke-linecap="round"/>
<path d="M174.582 742.921V614.364C174.582 611.658 176.733 609.444 179.438 609.366L718.948 593.803C721.765 593.722 724.092 595.983 724.092 598.801V742.921" stroke="black" stroke-width="5" stroke-linecap="round"/>
<path d="M609.83 597.618L605.207 746.884" stroke="black" stroke-width="5" stroke-linecap="round"/>
<path d="M691.729 593.655C688.036 581.8 680.672 557.834 677.542 546.561C676.929 544.35 674.928 542.799 672.634 542.799H518.686" stroke="black" stroke-width="5" stroke-linecap="round"/>
<path d="M516.705 554.687L526.612 596.957" stroke="black" stroke-width="5" stroke-linecap="round"/>
<path d="M526.278 595.7L517.622 563.113C517.317 561.964 515.619 562.213 515.656 563.401L516.674 595.988C516.691 596.528 517.134 596.957 517.674 596.957H525.311C525.968 596.957 526.447 596.334 526.278 595.7Z" fill="black"/>
<path d="M623.7 540.817L620.857 531.815C620.192 529.71 618.226 528.29 616.019 528.321L432.824 530.91" stroke="black" stroke-width="5" stroke-linecap="round"/>
<path d="M439.43 541.478C441.191 556.008 447.223 587.975 457.262 599.599" stroke="black" stroke-width="5" stroke-linecap="round"/>
<path d="M455.918 597.89C449.054 588.366 443.89 568.979 440.983 553.905C440.748 552.687 438.668 552.838 438.677 554.079C438.811 574.209 440.027 599.599 443.392 599.599H455.078C455.935 599.599 456.418 598.584 455.918 597.89Z" fill="black"/>
<path d="M541.142 527.608L533.761 502.058C533.07 499.665 530.74 498.145 528.272 498.485C476.722 505.581 371.255 516.673 329.132 508.454" stroke="black" stroke-width="5" stroke-linecap="round"/>
<path d="M333.094 521.664L357.531 603.563" stroke="black" stroke-width="5" stroke-linecap="round"/>
<path d="M443.392 507.133L431.71 475.592C430.837 473.234 428.369 471.889 425.914 472.433C389.909 480.424 318.887 492.49 291.484 483.356" stroke="black" stroke-width="5" stroke-linecap="round"/>
<path d="M282.898 481.375C291.484 516.821 309.845 590.617 314.6 602.241" stroke="black" stroke-width="5" stroke-linecap="round"/>
<path d="M314.735 602.182C309.241 586.942 291.196 515.631 282.898 481.375L301.919 602.717C301.995 603.204 302.415 603.562 302.907 603.562H313.771C314.482 603.562 314.976 602.85 314.735 602.182Z" fill="black"/>
<path d="M263.084 515.719H289.503" stroke="black" stroke-width="5" stroke-linecap="round"/>
<path d="M253.177 517.7L276.294 604.222" stroke="black" stroke-width="5" stroke-linecap="round"/>
<path d="M262.33 605.307L254.432 529.706C254.304 528.485 256.063 528.153 256.39 529.336L277.265 604.937C277.441 605.574 276.962 606.203 276.301 606.203H263.325C262.813 606.203 262.383 605.816 262.33 605.307Z" fill="black"/>
<path d="M341.576 600.697L333.124 528.565C332.981 527.35 334.727 526.991 335.075 528.164L356.489 600.296C356.68 600.937 356.199 601.58 355.531 601.58H342.57C342.062 601.58 341.635 601.2 341.576 600.697Z" fill="black"/>
<path d="M263.084 557.328L200.412 554.941C197.077 554.814 194.556 557.928 195.375 561.164L206.944 606.864" stroke="black" stroke-width="5" stroke-linecap="round"/>
<path d="M206.629 605.618L196.384 565.151C196.086 563.973 194.34 564.247 194.417 565.46L196.978 605.927C197.011 606.453 197.448 606.864 197.976 606.864H205.66C206.312 606.864 206.789 606.25 206.629 605.618Z" fill="black"/>
<path d="M186.506 504.834L208.434 553.788" stroke="black" stroke-width="5" stroke-linecap="round"/>
<path d="M435.35 327.066C432.5 335.686 433.44 357.049 452.448 348.704C471.682 340.26 473.819 321.261 493.588 307.011" stroke="black" stroke-width="5" stroke-linecap="round"/>
<path d="M417.986 341.355C406.416 368.612 438.373 423.127 502.835 371.394" stroke="black" stroke-width="5" stroke-linecap="round"/>
<path d="M185.809 505.812C171.279 530.145 123.065 522.324 97.3065 549.403C71.5481 576.482 49.6531 571.772 45.3899 542.713C43.3012 528.476 62.5303 501.721 75.6873 495.209C82.7711 491.58 96.1475 486.464 119.762 487.319" stroke="black" stroke-width="5" stroke-linecap="round"/>
<path d="M120.423 485.338C60.3196 485.338 43.3372 528.484 45.383 542.711C47.3016 556.055 67.1944 586.521 100.878 543.59C108.804 535.752 119.236 533.391 124.385 530.911L120.423 485.338Z" fill="black"/>
<path d="M44.5786 541.125C41.5398 601.954 110.822 630.403 137.595 770" stroke="black" stroke-width="5" stroke-linecap="round"/>
<path d="M150.094 430.002L126.43 375.394C125.291 372.766 126.587 369.723 129.251 368.671C155.049 358.483 202.117 335.868 217.462 313.099" stroke="black" stroke-width="5" stroke-linecap="round"/>
<path d="M187.74 500.673L192.512 511.647C193.548 514.031 196.218 515.232 198.672 514.375C226.802 504.549 278.708 483.74 298.177 466.126C299.742 464.71 300.044 462.431 299.09 460.549L228.295 320.902" stroke="black" stroke-width="5" stroke-linecap="round"/>
<path d="M284.219 398.156C311.959 386.268 375.628 359.32 408.388 346.639" stroke="black" stroke-width="5" stroke-linecap="round"/>
<path d="M448.016 392.872C435.242 399.257 410.897 419.555 415.653 449.672" stroke="black" stroke-width="5" stroke-linecap="round"/>
<path d="M461.542 433.161C442.243 458.832 420.263 464.112 411.69 463.542" stroke="black" stroke-width="5" stroke-linecap="round"/>
<path d="M479.719 394.854C490.946 404.321 509.44 429.727 501.514 463.543" stroke="black" stroke-width="5" stroke-linecap="round"/>
<path d="M456.602 398.156C455.176 406.15 455.479 419.717 461.542 433.161C466.655 444.523 475.875 455.798 491.607 463.542" stroke="black" stroke-width="5" stroke-linecap="round"/>
<path d="M150.34 464.868C149.691 463.249 149.366 458.135 153.261 450.625C158.129 441.237 168.839 422.462 161.05 424.405C153.261 426.347 117.885 469.076 122.754 490.44" stroke="black" stroke-width="5" stroke-linecap="round"/>
<path d="M174.488 507.894C176.911 504.417 181.947 498.611 187.22 495.901C190.2 494.369 193.164 491.067 191.329 488.263C188.904 484.558 184.573 481.831 177.798 484.466C164.888 489.486 160.585 495.845 155.951 504.547" stroke="black" stroke-width="5" stroke-linecap="round"/>
<path d="M180.232 485.232C181.104 479.772 179.512 469.64 166.167 472.795C152.821 475.95 143.597 488.67 140.653 494.636" stroke="black" stroke-width="5" stroke-linecap="round"/>
<path d="M171.249 470.546C165.551 465.344 149.62 459.208 131.474 476.278" stroke="black" stroke-width="5" stroke-linecap="round"/>
<path d="M126.375 444.662C124.397 462.675 117.616 464.283 119.594 486.477" stroke="black" stroke-width="5" stroke-linecap="round"/>
<path d="M329.022 187.044C329.022 209.335 346.836 227.347 368.739 227.347C390.641 227.347 408.456 209.335 408.456 187.044C408.456 164.752 390.641 146.74 368.739 146.74C346.836 146.74 329.022 164.752 329.022 187.044Z" stroke="black" stroke-width="5"/>
<path d="M426.355 186.457C426.355 208.36 444.367 226.174 466.658 226.174C488.95 226.174 506.961 208.36 506.961 186.457C506.961 164.555 488.95 146.74 466.658 146.74C444.367 146.74 426.355 164.555 426.355 186.457Z" stroke="black" stroke-width="5"/>
<path d="M423.856 178.486C420.468 177.238 412.676 175.68 408.611 179.421" stroke="black" stroke-width="5" stroke-linecap="round"/>
<ellipse rx="9.38151" ry="9.96785" transform="matrix(-1 0 0 1 466.072 195.253)" fill="black"/>
<ellipse rx="10.5542" ry="9.96785" transform="matrix(-1 0 0 1 376.948 197.599)" fill="black"/>
<path d="M386.329 164.177C383.58 162.3 375.743 158.266 366.394 157.14" stroke="black" stroke-width="5" stroke-linecap="round"/>
<path d="M471.936 156.655C463.336 154.682 450.827 156.655 443.791 166.521" stroke="black" stroke-width="5" stroke-linecap="round"/>
<path d="M422.224 220.294C417.126 220.538 406.47 218.538 404.634 208.586" stroke="black" stroke-width="5" stroke-linecap="round"/>
<path d="M443.792 250.955C436.41 259.877 436.614 267.907 410.956 258.39" stroke="black" stroke-width="5" stroke-linecap="round"/>
<path d="M355.72 223.983C352.283 242.626 356.183 260.314 383.703 287.176C415.369 318.084 430.097 333.538 474.281 300.422" stroke="black" stroke-width="5" stroke-linecap="round"/>
<path d="M352.964 246.264C362.321 126.824 447.947 78.611 490.591 69.1431C515.739 73.2215 529.354 141.011 561.03 148.441C570.443 148.441 579.096 146.583 583.389 127.39C606.198 25.429 539.084 21.3184 509.599 24.7171C339.995 -69.9597 249.155 129.737 352.964 246.264Z" fill="black"/>
<path d="M565.75 193.493C566.635 196.073 567.874 202.265 565.75 206.392" stroke="black" stroke-width="5" stroke-linecap="round"/>
<path d="M505.943 177.075H566.923" stroke="black" stroke-width="5" stroke-linecap="round"/>
<path d="M557.923 181.077C568.283 173.93 585.854 179.585 579.733 206.604C575.916 223.452 558.468 225.834 555.197 215.283" stroke="black" stroke-width="5" stroke-linecap="round"/>
</svg>
