<svg width="1240" height="842" viewBox="0 0 1240 842" fill="none" xmlns="http://www.w3.org/2000/svg">
<path d="M253.403 121.033C240.126 166.064 215.687 260.307 224.14 277.033" stroke="black" stroke-width="5" stroke-linecap="round"/>
<path d="M228.674 133.602L251.604 119.355C252.442 118.834 253.535 119.003 254.178 119.753L270.43 138.719C271.076 139.473 272.178 139.639 273.018 139.108L324.627 106.459C332.668 100.065 332.534 94.2626 329.451 90.4722C323.963 83.724 307.975 81.3729 297.883 81.6256C297.04 81.6467 296.321 82.2177 296.077 83.0252L291.941 96.7311C291.763 97.3214 291.312 97.8015 290.735 98.0185C263.059 108.423 245.601 101.666 239.081 92.7788C238.754 92.3337 238.659 91.7662 238.787 91.229L241.278 80.7019C241.557 79.5258 240.742 78.3729 239.537 78.2845C225.875 77.2823 202.403 78.7717 202.403 92.0709C202.403 105.54 217.634 124.48 226.224 133.318C226.87 133.983 227.886 134.092 228.674 133.602Z" fill="black"/>
<path d="M164.663 235.191C171.135 166.249 191.899 109.279 201.877 90.2181C205.113 82.9695 212.879 77.976 221.293 77.3316C231.809 76.5262 312.196 76.6451 332.124 86.9965C350.731 96.6614 347.495 96.6614 342.641 150.624C338.758 193.794 323.225 251.3 315.944 274.656C311.09 287.543 281.805 298.496 252.034 287.543C214.821 273.851 226.146 281.1 192.169 274.656C164.987 269.502 163.529 247.273 164.663 235.191Z" stroke="black" stroke-width="5"/>
<path d="M345.403 118.102C340.115 112.434 328.112 106.767 322.402 129.438C315.264 157.777 299.274 221.07 297.812 229.029C295.432 241.983 294.642 275.99 307.332 255.748C317.484 239.554 329.275 171.541 332.712 139.154" stroke="black" stroke-width="5" stroke-linecap="round"/>
<ellipse cx="258.852" cy="141.119" rx="4.0355" ry="6.4546" transform="rotate(13.2587 258.852 141.119)" fill="black"/>
<ellipse cx="249.737" cy="174.145" rx="4.0355" ry="6.4546" transform="rotate(13.2587 249.737 174.145)" fill="black"/>
<ellipse cx="241.669" cy="212.873" rx="4.0355" ry="6.4546" transform="rotate(13.2587 241.669 212.873)" fill="black"/>
<ellipse cx="235.213" cy="253.214" rx="4.0355" ry="6.4546" transform="rotate(13.2587 235.213 253.214)" fill="black"/>
<path fill-rule="evenodd" clip-rule="evenodd" d="M55.5583 110.806C54.0148 110.368 52.4002 111.222 51.8936 112.745L48.2496 123.694C47.9011 124.742 47.0056 125.513 45.9183 125.702L34.5496 127.684C32.969 127.959 31.885 129.43 32.089 131.021L33.5568 142.467C33.6972 143.562 33.2251 144.646 32.3276 145.288L22.9446 152.006C21.6401 152.94 21.3013 154.735 22.1756 156.08L28.4644 165.756C29.0659 166.682 29.1107 167.863 28.5809 168.831L23.0418 178.955C22.2718 180.362 22.7453 182.127 24.1167 182.959L33.981 188.948C34.9245 189.521 35.4772 190.566 35.42 191.668L34.8221 203.193C34.739 204.795 35.9311 206.179 37.528 206.334L49.014 207.45C50.1126 207.557 51.0638 208.258 51.4905 209.276L55.9522 219.919C56.5724 221.399 58.247 222.128 59.753 221.575L70.5858 217.597C71.6219 217.217 72.7833 217.436 73.6094 218.168L82.2469 225.821C83.4478 226.885 85.2731 226.816 86.39 225.664L94.424 217.38C95.1924 216.587 96.3339 216.281 97.3958 216.582L108.498 219.729C110.042 220.167 111.657 219.313 112.163 217.79L115.807 206.841C116.156 205.793 117.051 205.022 118.138 204.832L129.507 202.851C131.088 202.575 132.172 201.105 131.968 199.514L130.5 188.068C130.359 186.973 130.832 185.889 131.729 185.247L141.112 178.529C142.417 177.595 142.755 175.8 141.881 174.455L135.592 164.779C134.991 163.853 134.946 162.672 135.476 161.704L141.015 151.58C141.785 150.172 141.311 148.408 139.94 147.576L130.076 141.587C129.132 141.014 128.58 139.969 128.637 138.867L129.235 127.342C129.318 125.74 128.126 124.356 126.529 124.201L115.043 123.085C113.944 122.978 112.993 122.277 112.566 121.259L108.105 110.616C107.484 109.136 105.81 108.407 104.304 108.96L93.4709 112.938C92.4348 113.318 91.2734 113.099 90.4473 112.367L81.8098 104.714C80.609 103.65 78.7836 103.719 77.6667 104.871L69.6327 113.155C68.8643 113.948 67.7228 114.254 66.6609 113.953L55.5583 110.806ZM66.6163 156.452C67.7785 158.648 66.9399 161.371 64.7432 162.534C62.5464 163.696 59.8234 162.857 58.6611 160.661C57.4988 158.464 58.3374 155.741 60.5342 154.579C62.7309 153.416 65.454 154.255 66.6163 156.452ZM71.0358 154.113C73.4895 158.751 71.7191 164.5 67.0815 166.953C62.4439 169.407 56.6953 167.637 54.2416 162.999C51.7879 158.361 53.5583 152.613 58.1959 150.159C62.8334 147.705 68.5821 149.476 71.0358 154.113ZM104.406 175.489C106.603 174.326 107.442 171.603 106.28 169.406C105.117 167.21 102.394 166.371 100.197 167.533C98.0007 168.696 97.1621 171.419 98.3244 173.615C99.4867 175.812 102.21 176.651 104.406 175.489ZM106.745 179.908C111.382 177.454 113.153 171.706 110.699 167.068C108.245 162.431 102.497 160.66 97.8591 163.114C93.2215 165.568 91.4511 171.316 93.9048 175.954C96.3586 180.591 102.107 182.362 106.745 179.908ZM83.5494 141.117C83.4672 139.739 82.2833 138.688 80.9051 138.77C79.5268 138.852 78.4761 140.036 78.5582 141.415L81.3911 188.949C81.4732 190.328 82.6571 191.378 84.0354 191.296C85.4136 191.214 86.4643 190.03 86.3822 188.652L83.5494 141.117Z" fill="black"/>
<path d="M468.903 95.5327C468.903 118.15 450.349 136.533 427.403 136.533C404.456 136.533 385.903 118.15 385.903 95.5327C385.903 72.9159 404.456 54.5327 427.403 54.5327C450.349 54.5327 468.903 72.9159 468.903 95.5327Z" stroke="black" stroke-width="5"/>
<path d="M427.403 115.033V121.033" stroke="black" stroke-width="5" stroke-linecap="round"/>
<path d="M427.403 76.0327V70.0327" stroke="black" stroke-width="5" stroke-linecap="round"/>
<path d="M438.403 78.6829C435.64 77.3058 431.446 76.0179 427.524 76.0328C422.798 76.0509 418.467 77.9614 417.515 83.8895C416.26 91.708 425.773 94.5147 431.44 97.3399C439.273 101.245 439.202 108.566 434.486 112.092C432.365 113.678 429.957 114.549 427.524 114.878C423.967 115.358 420.358 114.682 417.515 113.394" stroke="black" stroke-width="5" stroke-linecap="round"/>
<path d="M143.164 403.403C119.951 412.907 121.098 445.145 124.748 461.099C124.901 461.769 125.408 462.3 126.063 462.51C177.66 479.051 217.895 453.732 232.39 438.215C232.838 437.736 232.999 437.081 232.83 436.448C230.714 428.501 224.49 414.437 220.622 408.372C207.773 390.57 172.843 391.252 143.164 403.403Z" stroke="black" stroke-width="5" stroke-linecap="round"/>
<path d="M233.442 437.742C255.614 441.542 278.914 451.479 271.944 467.742C264.443 485.242 193.197 518.322 139.453 509.262C114.616 505.529 76.4434 488.571 124.443 462.242" stroke="black" stroke-width="5" stroke-linecap="round"/>
<path d="M1202.07 724.085C1214.58 736.817 1230.63 764.641 1194.69 774.085" stroke="black" stroke-width="5" stroke-linecap="round"/>
<path d="M1202.69 751.085C1200.56 739.934 1191.79 718.904 1172.86 712.151C1169.75 711.042 1166.37 710.317 1162.69 710.085" stroke="black" stroke-width="5" stroke-linecap="round"/>
<path d="M1180.78 647.085C1155.9 663.641 1115.04 707.21 1150.65 749.028C1186.26 790.847 1200.18 794.513 1202.69 791.118" stroke="black" stroke-width="5" stroke-linecap="round"/>
<path d="M1208.69 680.085L1172.69 712.085" stroke="black" stroke-width="5" stroke-linecap="round"/>
<path d="M1172.69 644.085C1174.9 644.335 1177.72 645.14 1180.88 646.688C1189.58 650.939 1200.9 660.79 1209.31 680.073C1211.72 685.604 1213.89 691.912 1215.69 699.085" stroke="black" stroke-width="5" stroke-linecap="round"/>
<path d="M1176.69 634.085C1192.43 636.085 1224.86 645.285 1228.69 666.085" stroke="black" stroke-width="5" stroke-linecap="round"/>
<path d="M1182.69 623.338C1190.53 621.14 1209.71 618.613 1223.69 626.085" stroke="black" stroke-width="5" stroke-linecap="round"/>
<path d="M568.686 140L631.965 228.389" stroke="black" stroke-width="5" stroke-linecap="round"/>
<path d="M574.094 222.201L605.658 249.293" stroke="black" stroke-width="5" stroke-linecap="round"/>
<path d="M595.903 285.5L504.903 252" stroke="black" stroke-width="5" stroke-linecap="round"/>
<path d="M543.668 322.234L586.506 320.772" stroke="black" stroke-width="5" stroke-linecap="round"/>
<path d="M481.403 382.678L598.319 353.96" stroke="black" stroke-width="5" stroke-linecap="round"/>
<path d="M722.162 321.348C716.175 343.691 705.775 362.456 693.924 374.753C682.004 387.123 669.081 392.535 657.826 389.519C646.57 386.503 638.085 375.355 633.947 358.683C629.833 342.107 630.208 320.656 636.195 298.313C642.181 275.97 652.582 257.205 664.433 244.908C676.353 232.538 689.275 227.126 700.531 230.142C711.786 233.157 720.271 244.306 724.41 260.978C728.524 277.554 728.149 299.005 722.162 321.348Z" stroke="black" stroke-width="5"/>
<path d="M671.432 323.284C675.7 324.428 680.897 318.868 683.042 310.866C685.186 302.864 683.464 295.45 679.196 294.306C674.929 293.163 669.731 298.723 667.587 306.725C665.443 314.727 667.164 322.141 671.432 323.284Z" fill="black"/>
<path d="M852.061 371.683C857.637 363.238 859.475 349.168 859.696 343.188L873.245 352.513C877.46 361.51 871.895 367.853 868.586 369.899L852.061 371.683Z" fill="black"/>
<path d="M671.901 389.15L868.585 369.899M873.244 352.513L707.033 232.919L873.244 352.513Z" stroke="black" stroke-width="5" stroke-linecap="round"/>
<path d="M671.727 320.257L711.889 348.1M677.939 297.075L726.124 294.974L677.939 297.075Z" stroke="black" stroke-width="5" stroke-linecap="round"/>
<path d="M882.873 643.531L842.139 684.602C808.85 714.472 786.873 691.5 773.372 679.209C759.373 659.5 737.373 634.879 737.373 552.5C737.373 501 749.873 475.908 800.373 494.908" stroke="black" stroke-width="5" stroke-linecap="round"/>
<path d="M873.244 352.512C874.926 355.896 876.348 364.111 868.586 369.899" stroke="black" stroke-width="5" stroke-linecap="round"/>
<path d="M858.859 342.447C859.12 348.556 857.322 361.705 851.094 371.424" stroke="black" stroke-width="5" stroke-linecap="round"/>
<path d="M966.873 433.5C932.373 433.5 854.373 451.5 822.373 525" stroke="black" stroke-width="5" stroke-linecap="round"/>
<path d="M733.596 436.221C731.315 439.144 728.841 446.293 735.699 452.867C736.207 453.354 736.766 453.838 737.381 454.317C746.287 461.259 750.671 454.945 751.749 450.92" stroke="black" stroke-width="5" stroke-linecap="round"/>
<path d="M760.802 438.385C763.489 445.357 758.273 447.181 755.329 447.221C754.631 447.14 753.791 447.009 752.848 446.82C747.689 445.785 739.461 443.03 734.631 437.534C734.234 437.082 733.891 436.645 733.596 436.221C729.648 430.544 734.469 427.351 737.607 426.426" stroke="black" stroke-width="5" stroke-linecap="round"/>
<path d="M742.774 414.869C739.865 414.78 734.483 416.064 736.228 421.915C737.973 427.766 752.702 435.129 759.849 438.079C760.16 438.197 760.479 438.3 760.802 438.385C763.728 439.157 766.985 438.493 768.034 434.578C769.516 429.046 762.935 425.275 761.411 424.522" stroke="black" stroke-width="5" stroke-linecap="round"/>
<path d="M764.078 402.978C761.039 403.371 757.561 406.822 763.197 412.059C768.834 417.297 765.988 421.607 763.861 423.107C760.681 424.671 751.884 424.143 742.137 409.522C732.389 394.901 755.221 393.53 767.856 394.673" stroke="black" stroke-width="5" stroke-linecap="round"/>
<path d="M788.5 421.945C784.191 416.132 775.164 407.191 773.528 417.934C771.892 428.676 778.049 435.192 781.332 437.107" stroke="black" stroke-width="5" stroke-linecap="round"/>
<path d="M777.363 471.242C775.198 467.729 772.671 457.458 779.875 444.48" stroke="black" stroke-width="5" stroke-linecap="round"/>
<path d="M776.474 379.899L764.069 410.74" stroke="black" stroke-width="5" stroke-linecap="round"/>
<path d="M787.336 426.292L811.101 376.237" stroke="black" stroke-width="5" stroke-linecap="round"/>
<path d="M743.745 465.34C741.286 474.516 733.704 485.426 742.587 490.912C753.433 497.61 757.568 487.161 762.959 476.7L778.167 445.058" stroke="black" stroke-width="5" stroke-linecap="round"/>
<path d="M796.373 414.5C801.706 433.333 801.873 471.908 801.873 548.408" stroke="black" stroke-width="5" stroke-linecap="round"/>
<path d="M1127.93 613.5C1152.37 672 1118.87 723.5 1127.93 821C1067.26 839 933.028 859.7 881.428 798.5C879.094 787.833 881.428 727.5 881.428 688.5" stroke="black" stroke-width="5" stroke-linecap="round"/>
<path d="M1076.43 526L1068.4 513.674C1060.57 501.662 1045.34 496.866 1032.04 502.228L1012.9 509.944C1000.96 514.758 987.285 511.419 978.907 501.645L956.926 476" stroke="black" stroke-width="5" stroke-linecap="round"/>
<path d="M965.926 435.415C961.426 422.415 965.525 413.666 969.525 412C993.525 434 1029.93 425.833 1043.43 412.5C1048.23 416.9 1045.43 429.915 1043.43 433.915C1017.43 462.715 980.426 446.581 965.926 435.415Z" fill="black"/>
<path d="M896.984 231.02C907.984 270.52 913.484 274.02 929.484 291.52C929.484 274.225 932.455 245.196 932.455 233.108C984.844 233.108 1029.06 211.722 1044.62 201.029C1044.06 237.292 1078.06 261.003 1078.06 261.003C1078.06 261.003 1073.18 275.648 1070.39 308.425C1068.16 334.646 1074.57 329.579 1078.06 323.767C1088.09 291.409 1104.53 300.056 1111.5 308.425C1196.98 169.521 1065.52 142.681 1040.44 145.238C1021.49 129.059 995.061 116.38 976.484 114.521C909.484 107.814 879.147 166.973 896.984 231.02Z" fill="black"/>
<path d="M1076.88 348.49C1067.88 403.435 1007.48 442.945 963.883 398.435C920.291 353.926 929.014 272.454 933.671 234.435" stroke="black" stroke-width="5" stroke-linecap="round"/>
<path d="M1112.48 305.02C1117.98 318.52 1112.82 348.435 1076.88 348.435" stroke="black" stroke-width="5" stroke-linecap="round"/>
<path d="M1096.63 312.435C1097.43 315.324 1096.79 322.169 1087.88 326.435" stroke="black" stroke-width="5" stroke-linecap="round"/>
<path d="M934.884 341.435C923.154 336.545 914.884 318.435 918.065 289.435" stroke="black" stroke-width="5" stroke-linecap="round"/>
<path d="M961.201 306.258C957.87 304.92 956.569 300.353 958.295 296.057C960.021 291.761 964.12 289.364 967.451 290.702C970.782 292.04 972.084 296.607 970.358 300.903C968.632 305.199 964.532 307.597 961.201 306.258Z" fill="black"/>
<path d="M1022.36 307.983C1018.98 306.773 1017.41 302.537 1018.85 298.521C1020.29 294.506 1024.19 292.232 1027.57 293.442C1030.95 294.652 1032.52 298.888 1031.09 302.903C1029.65 306.918 1025.74 309.193 1022.36 307.983Z" fill="black"/>
<path d="M1048.88 288.435C1047.3 283.788 1040.5 275.192 1025.88 277.98" stroke="black" stroke-width="5" stroke-linecap="round"/>
<path d="M978.883 279.435C975.398 276.417 965.919 272.191 955.883 279.435" stroke="black" stroke-width="5" stroke-linecap="round"/>
<path d="M987.68 301.085C986.515 310.959 978.873 332.085 991.873 332.085" stroke="black" stroke-width="5" stroke-linecap="round"/>
<path d="M1044.87 430C1144.37 430 1268.87 534.5 1230.06 665" stroke="black" stroke-width="5" stroke-linecap="round"/>
<path d="M1119.19 574.585C1123.69 579.418 1133.69 592.785 1137.69 607.585C1141.69 622.385 1153.02 632.752 1158.19 636.085" stroke="black" stroke-width="5" stroke-linecap="round"/>
<path d="M339.623 436.242C340.775 470.011 373.924 486.539 392.363 491.212C393.215 491.427 393.406 492.57 392.679 493.064C359.598 515.524 346.228 523.201 351.623 572.742C356.023 613.142 297.457 616.575 267.623 613.242C235.123 611.242 159.123 607.042 115.123 606.242C71.1233 605.442 50.7899 555.908 46.1233 531.242C44.1233 512.908 38.8233 456.942 33.6233 379.742C27.1233 283.242 165.623 294.742 262.623 310.742C359.623 326.742 338.123 392.242 339.623 436.242Z" stroke="black" stroke-width="5" stroke-linecap="round"/>
<path d="M81.4032 91.5327C80.5698 59.6994 103.201 1.43228 176.401 3.03228C267.901 5.03228 372.901 8.03228 400.901 60.0323" stroke="black" stroke-width="5" stroke-linecap="round"/>
<path d="M78.4025 231.033C75.4025 252.533 77.2019 300.233 84.4019 309.033" stroke="black" stroke-width="5" stroke-linecap="round"/>
<path d="M346.403 401.533C366.569 408.033 407.703 409.133 410.903 361.533C413.815 318.215 431.027 298.113 441.511 291.958C442.359 291.46 442.252 289.88 441.358 289.472C433.968 286.098 423.811 275.838 425.903 253.533C428.903 221.533 432.903 162.033 425.903 136.033" stroke="black" stroke-width="5" stroke-linecap="round"/>
<path d="M1004.11 367.819C1003.4 371.795 1001.74 375.094 999.762 377.232C997.762 379.394 995.711 380.125 994.038 379.825C992.364 379.526 990.695 378.129 989.569 375.407C988.456 372.716 988.044 369.046 988.756 365.07C989.467 361.094 991.127 357.795 993.105 355.657C995.105 353.495 997.156 352.764 998.829 353.064C1000.5 353.363 1002.17 354.76 1003.3 357.482C1004.41 360.173 1004.82 363.843 1004.11 367.819Z" stroke="black" stroke-width="5"/>
</svg>
