<svg width="1136" height="773" viewBox="0 0 1136 773" fill="none" xmlns="http://www.w3.org/2000/svg">
<path d="M523.281 388.106C534.931 376.418 558.416 356.547 559.152 370.573C560.072 388.106 537.077 433.322 559.152 413.021C581.226 392.72 607.899 356.732 609.739 370.573C611.578 384.415 614.338 388.106 640.091 363.191" stroke="black" stroke-width="5" stroke-linecap="round"/>
<path d="M76.3384 588.003C80.6348 593.846 94.3834 605.223 115.006 603.986" stroke="black" stroke-width="5" stroke-linecap="round"/>
<path d="M335.155 613.782C314.772 624.915 255.125 635.468 179.183 588.987C178.753 588.724 178.2 588.795 177.879 589.184C163.906 606.167 122.01 642.816 67.058 647.294C51.0751 648.596 39.7328 640.592 58.2931 633.889C68.6049 630.165 76.3384 627.702 79.9471 624.093" stroke="black" stroke-width="5" stroke-linecap="round"/>
<path d="M50.044 638.529C39.7326 643.341 26.3277 646.572 24.2654 637.498C21.6876 626.155 40.2482 628.218 47.4661 622.546" stroke="black" stroke-width="5" stroke-linecap="round"/>
<path d="M22.7188 638.013C5.18953 643.169 -2.94566 627.645 12.4075 619.968C26.8436 612.75 39.2172 615.328 48.4975 604.501" stroke="black" stroke-width="5" stroke-linecap="round"/>
<path d="M7.25162 623.576C3.29889 620.139 -1.41 611.306 11.3762 603.469C27.3589 593.673 102.117 560.676 92.8366 534.382C90.1074 526.649 75.3072 527.166 62.9334 511.182C53.7427 499.311 62.9334 485.404 74.276 493.137C77.1976 495.372 95.2083 507.058 104.695 502.933C116.524 497.79 155.548 493.16 183.377 528.457C183.505 528.62 183.675 528.741 183.875 528.8C206.708 535.501 257.613 545.357 281.021 531.805" stroke="black" stroke-width="5" stroke-linecap="round"/>
<path d="M105.726 550.882C112.085 556.897 129.958 559.131 141.3 548.304" stroke="black" stroke-width="5" stroke-linecap="round"/>
<path d="M1059.45 581.871C1055.15 587.714 1041.4 599.091 1020.78 597.854" stroke="black" stroke-width="5" stroke-linecap="round"/>
<path d="M800.632 607.65C821.014 618.784 880.662 629.337 956.603 582.855C957.033 582.592 957.587 582.664 957.907 583.053C971.88 600.036 1013.78 636.685 1068.73 641.162C1084.71 642.465 1096.05 634.46 1077.49 627.758C1067.18 624.034 1059.45 621.571 1055.84 617.962" stroke="black" stroke-width="5" stroke-linecap="round"/>
<path d="M1085.74 632.397C1096.05 637.209 1109.46 640.44 1111.52 631.366C1114.1 620.024 1095.54 622.086 1088.32 616.415" stroke="black" stroke-width="5" stroke-linecap="round"/>
<path d="M1113.07 631.882C1130.6 637.038 1138.73 621.514 1123.38 613.837C1108.94 606.619 1096.57 609.197 1087.29 598.37" stroke="black" stroke-width="5" stroke-linecap="round"/>
<path d="M1128.54 617.445C1132.49 614.008 1137.2 605.174 1124.41 597.337C1108.43 587.541 1033.67 554.545 1042.95 528.251C1045.68 520.518 1060.48 521.034 1072.85 505.051C1082.04 493.179 1072.85 479.272 1061.51 487.006C1058.59 489.24 1040.58 500.926 1031.09 496.802C1019.26 491.658 980.238 487.028 952.41 522.325C952.281 522.488 952.112 522.61 951.912 522.668C929.079 529.37 878.174 539.226 854.766 525.674" stroke="black" stroke-width="5" stroke-linecap="round"/>
<path d="M1030.06 544.75C1023.7 550.765 1005.83 552.999 994.486 542.172" stroke="black" stroke-width="5" stroke-linecap="round"/>
<path d="M512.731 176.36C516.623 220.743 536.543 299.019 584.911 302.053C635.862 305.248 657.091 201.924 657.091 175.294" stroke="black" stroke-width="5" stroke-linecap="round"/>
<path d="M522.011 174.263L507.575 172.201" stroke="black" stroke-width="5" stroke-linecap="round"/>
<path d="M662.562 172.201C678.199 176.133 690.495 193.22 652.967 225.821" stroke="black" stroke-width="5" stroke-linecap="round"/>
<path d="M505.962 172.201C492.333 173.988 477.986 194.721 519.949 225.821" stroke="black" stroke-width="5" stroke-linecap="round"/>
<ellipse cx="548.821" cy="180.966" rx="9.2803" ry="8.76473" fill="black"/>
<circle cx="619.454" cy="180.966" r="8.76473" fill="black"/>
<circle cx="549.852" cy="180.45" r="29.4655" stroke="black" stroke-width="5"/>
<path d="M647.373 180.45C647.373 196.762 634.373 209.916 618.423 209.916C602.473 209.916 589.473 196.762 589.473 180.45C589.473 164.138 602.473 150.985 618.423 150.985C634.373 150.985 647.373 164.138 647.373 180.45Z" stroke="black" stroke-width="5"/>
<path d="M577.693 177.357H590.067" stroke="black" stroke-width="5" stroke-linecap="round"/>
<path d="M572.688 196.948C570.007 211.814 569.709 236.495 596.254 222.904" stroke="black" stroke-width="5" stroke-linecap="round"/>
<path d="M566.35 254.693C572.022 251.58 586.767 247.223 600.378 254.693" stroke="black" stroke-width="5" stroke-linecap="round"/>
<path d="M644.718 172.201H662.247" stroke="black" stroke-width="5" stroke-linecap="round"/>
<path d="M504.098 86.1269C449.993 111.603 475.214 156.187 494.587 175.295C497.969 172.747 508.677 172.11 513.608 172.11C504.309 104.173 539.322 86.1263 554.82 81.8802C598.146 74.4495 647.812 86.1269 656.266 120.096C666.365 160.674 666.682 174.233 674.533 175.295C704.363 151.517 699.964 105.942 694.036 86.1269C701.77 63.9934 684.496 44.0198 674.533 31.9893C664.569 19.9587 637.245 -1.97999 588.635 0.143634C492.473 9.69732 498.814 69.1425 504.098 86.1269Z" fill="black"/>
<path d="M531.292 138.173C535.674 137.395 548.821 136.306 566.35 138.173" stroke="black" stroke-width="5" stroke-linecap="round"/>
<path d="M603.472 140.235C607.596 138.679 619.97 136.5 636.468 140.235" stroke="black" stroke-width="5" stroke-linecap="round"/>
<path d="M537.26 297.221C435.177 290.003 410.017 275.464 336.187 452.408" stroke="black" stroke-width="5" stroke-linecap="round"/>
<path d="M636.165 293.497C723.812 308.963 766.089 255.344 823.833 432.186" stroke="black" stroke-width="5" stroke-linecap="round"/>
<path d="M397.539 564.286C386.693 616.107 352.144 619.642 334.95 614.71C334.288 614.52 334.071 613.695 334.482 613.143C373.543 560.659 313.012 521.872 281.986 531.987C281.449 532.162 280.864 531.859 280.711 531.316C274.887 510.564 308.707 507.121 311.955 478.702C313.605 464.266 315.564 456.88 323.813 456.532C360.418 454.985 411.46 497.778 397.539 564.286Z" stroke="black" stroke-width="5" stroke-linecap="round"/>
<path d="M831.051 438.887C839.724 479.192 867.582 498.797 857.171 525.681C856.986 526.16 856.428 526.412 855.934 526.268C790.358 507.119 776.2 582.952 803.097 606.288C803.803 606.901 803.435 608.108 802.5 608.116C757.965 608.515 724.02 534.199 734.123 505.911C762.479 426.514 828.055 424.967 831.051 438.887Z" stroke="black" stroke-width="5" stroke-linecap="round"/>
<path d="M747.013 570.358C746.669 638.586 747.94 709.666 757.839 765.76" stroke="black" stroke-width="5" stroke-linecap="round"/>
<path d="M399.602 558.1C400.29 625.468 398.262 702.769 386.713 770" stroke="black" stroke-width="5" stroke-linecap="round"/>
<path d="M626.798 318.656C631.387 305.778 627.191 297.111 623.12 295.46C598.586 317.255 561.374 309.164 547.59 295.955C542.679 300.314 545.536 313.208 547.59 317.17C574.159 345.701 611.978 329.719 626.798 318.656Z" fill="black"/>
</svg>
