<svg width="988" height="776" viewBox="0 0 988 776" fill="none" xmlns="http://www.w3.org/2000/svg">
<path d="M642.186 65.5348L690.651 26.4504" stroke="black" stroke-width="5" stroke-linecap="round"/>
<path d="M354.525 275.809C360.388 272.682 363.905 267.992 365.86 262.52C370.003 250.918 373.143 245.248 377.91 242.414C382.677 239.579 412.263 221.761 410.325 235.8C409.683 240.447 404.122 241.083 397.613 243.669" stroke="black" stroke-width="5" stroke-linecap="round"/>
<path d="M398.3 206.239C403.98 195.549 412.872 181.688 418.575 173.408C422.923 167.095 426.978 159.181 418.575 146.049C408.071 129.634 361.561 80.3873 396.346 77.6514C424.174 75.4627 478.569 89.3765 484.676 77.6514C497.704 52.6374 523.213 3.70363 539.785 8.08109C560.5 13.5529 564.727 92.503 575.743 96.0206C586.758 99.5382 669.936 124.161 645.704 143.313C621.471 162.464 583.118 173.408 584.732 187.478C585.627 195.272 586.407 207.974 586.925 221.872M387.047 237.897C385.048 250.422 389.116 258.605 404.56 256.375C452.445 249.461 488.651 229.872 505.002 241.395C521.353 252.918 584.422 309.382 586.758 282.879C587.115 278.825 587.343 274.751 587.468 268.774" stroke="black" stroke-width="5" stroke-linecap="round"/>
<path d="M647.267 165.591C657.001 155.023 658.801 144.372 653.811 136.628C653.377 135.955 652.353 136.109 651.958 136.806C644.884 149.31 602.892 167.67 587.148 179.997C587.099 180.035 587.058 180.073 587.02 180.122C586.098 181.358 584.51 187.679 585.123 189.823C585.729 191.946 586.63 210.413 587.04 220.201C587.061 220.709 587.457 221.115 587.959 221.191C591.43 221.721 597.68 224.194 605.736 233.984C606.396 234.786 607.791 234.214 607.672 233.181C606.114 219.587 605.7 199.624 608.183 196.077C613.001 189.194 619.126 186.696 625.771 182.397C628.116 180.88 636.877 176.87 647.267 165.591Z" fill="black"/>
<path d="M577.03 312.018C583.696 316.23 596.932 317.517 600.396 312.018C602.125 309.274 603.234 301.44 603.899 291.052C600.159 290.114 595.676 273.464 587.859 270.337C587.699 280.004 587.183 285.396 585.505 288.283C576.102 304.456 510.862 244.151 500.479 239.745C490.706 235.598 425.293 253.607 406.806 257.046C392.017 259.797 387.322 251.498 385.011 248.059C385.792 255.094 392.181 274.038 401.459 276.016C409.538 277.738 495.163 253.02 503.512 259.238C528.693 277.993 571.521 308.537 577.03 312.018Z" fill="black"/>
<path d="M376.021 242.197C379.658 235.817 392.459 216.509 411.979 223.299" stroke="black" stroke-width="5" stroke-linecap="round"/>
<path d="M374.849 244.542C378.291 234.035 393.832 206.959 408.852 213.466" stroke="black" stroke-width="5" stroke-linecap="round"/>
<path d="M381.493 230.471C383.708 210.636 389.803 191.085 397.734 197.225C398.836 198.361 400.543 201.829 398.56 206.604" stroke="black" stroke-width="5" stroke-linecap="round"/>
<path d="M592.158 237.177C584.012 234.007 566.98 230.886 564.017 243.759" stroke="black" stroke-width="5" stroke-linecap="round"/>
<path d="M606.229 255.485C591.867 246.583 565.275 235.645 567.248 252.803" stroke="black" stroke-width="5" stroke-linecap="round"/>
<path d="M598.962 262.116C587.936 256.05 566.817 247.604 568.844 261.292C568.913 261.763 569.326 262.114 569.802 262.133C576.636 262.404 590.382 266.074 596.714 279.184C603.308 292.838 609.452 297.736 611.7 298.478" stroke="black" stroke-width="5" stroke-linecap="round"/>
<path d="M691.433 105.4L719.573 97.5835" stroke="black" stroke-width="5" stroke-linecap="round"/>
<path d="M375.631 30.3591L349.835 3" stroke="black" stroke-width="5" stroke-linecap="round"/>
<path d="M333.42 65.5348L259.159 44.4292" stroke="black" stroke-width="5" stroke-linecap="round"/>
<path d="M328.729 124.944L275.575 131.197" stroke="black" stroke-width="5" stroke-linecap="round"/>
<path d="M384.991 439.156C360.217 407.35 362.138 361.005 368.003 333.897C371.594 321.718 391.61 262.152 348.801 290.311C329.084 303.281 245.429 480.28 416.791 514.408C417.345 514.518 417.737 515.073 417.62 515.625C411.209 545.969 425.959 576.056 417.841 618.577" stroke="black" stroke-width="5" stroke-linecap="round"/>
<path d="M381.103 441.136C389.441 439.572 441.292 421.661 460.835 444.647" stroke="black" stroke-width="5" stroke-linecap="round"/>
<path d="M529.623 449.255C558.545 432.928 587.077 451.35 612.482 456.379" stroke="black" stroke-width="5" stroke-linecap="round"/>
<path d="M606.228 454.813C624.757 437.332 640.902 381.22 622.842 318.121C619.339 305.882 620.359 275.017 643.603 288.765C672.934 306.115 761.778 514.073 564.95 515C564.303 515.003 563.772 515.606 563.919 516.236C571.04 546.602 572.29 581.34 572.031 617.698" stroke="black" stroke-width="5" stroke-linecap="round"/>
<path d="M628.116 271.119C619.218 253.651 600.632 220.124 587.286 221.944C584.617 222.308 578.268 224.127 575.743 228.131" stroke="black" stroke-width="5" stroke-linecap="round"/>
<path d="M554.368 345.408C548.654 365.999 545.788 367.823 537.476 376.945C537.476 367.93 535.926 352.798 535.926 346.496C508.688 346.496 485.704 335.348 477.607 329.774C477.903 348.677 460.222 361.037 460.222 361.037C460.222 361.037 462.757 368.672 464.208 385.757C465.372 399.427 462.031 396.785 460.222 393.755C455.009 376.887 446.464 381.395 442.837 385.757C398.392 313.349 466.743 299.359 479.784 300.691C489.637 292.258 503.377 285.648 513.032 284.679C547.875 281.183 563.639 312.021 554.368 345.408Z" fill="black"/>
<path d="M460.053 407.088C464.786 435.685 496.543 456.25 519.463 433.083C542.382 409.917 537.793 367.512 535.345 347.724" stroke="black" stroke-width="5" stroke-linecap="round"/>
<path d="M517.67 452.447C519.983 445.516 517.875 440.852 515.819 439.964C503.482 451.693 484.771 447.339 477.831 440.23C475.363 442.576 476.803 449.515 477.831 451.647C491.196 467.002 510.216 458.4 517.67 452.447Z" fill="black"/>
<path d="M468.651 492.337L469.746 490.639C475.472 481.752 486.716 478.204 496.505 482.195V482.195C505.304 485.783 515.411 483.307 521.555 476.059L529.623 466.541" stroke="black" stroke-width="5" stroke-linecap="round"/>
<path d="M442.228 383.682C439.476 390.488 442.058 405.569 460.053 405.569" stroke="black" stroke-width="5" stroke-linecap="round"/>
<path d="M450.802 388.372C450.392 389.501 450.72 392.177 455.363 393.844" stroke="black" stroke-width="5" stroke-linecap="round"/>
<path d="M535.095 402.443C541.378 399.943 545.814 390.687 544.107 375.865" stroke="black" stroke-width="5" stroke-linecap="round"/>
<path d="M518.171 384.002C520.02 382.855 520.528 380.326 519.304 378.353C518.081 376.38 515.589 375.711 513.74 376.858C511.89 378.005 511.383 380.534 512.606 382.507C513.83 384.48 516.321 385.149 518.171 384.002Z" fill="black"/>
<path d="M486.043 387.027C488.264 385.955 489.35 383.604 488.468 381.774C487.586 379.944 485.07 379.329 482.848 380.401C480.626 381.472 479.54 383.824 480.422 385.653C481.305 387.483 483.821 388.098 486.043 387.027Z" fill="black"/>
<path d="M475.687 374.301C476.544 372.319 480.252 368.654 488.194 369.843" stroke="black" stroke-width="5" stroke-linecap="round"/>
<path d="M513.208 369.612C514.983 369.022 519.816 368.196 524.933 369.612" stroke="black" stroke-width="5" stroke-linecap="round"/>
<path d="M499.512 382.9C498.972 387.63 498.597 397.224 501.482 397.752" stroke="black" stroke-width="5" stroke-linecap="round"/>
<path d="M502.264 420.864C496.73 422.471 497.079 418.048 492.884 414.167" stroke="black" stroke-width="5" stroke-linecap="round"/>
<path d="M738.028 771.734L708.431 656.218C702.763 634.098 682.83 618.628 659.995 618.628H329.054C306.074 618.628 286.053 634.291 280.523 656.596L251.663 773" stroke="black" stroke-width="5" stroke-linecap="round"/>
<path d="M270.262 687.444H71.6684C51.2894 687.444 32.9495 699.813 25.3123 718.706L3.36597 773" stroke="black" stroke-width="5" stroke-linecap="round"/>
<path d="M729.658 725.573H933.234C953.589 725.573 971.912 737.911 979.565 756.772L985.395 771.14" stroke="black" stroke-width="5" stroke-linecap="round"/>
</svg>
