<svg width="7047" height="776" viewBox="0 0 7047 776" fill="none" xmlns="http://www.w3.org/2000/svg">
<path d="M550.388 348.319C644.395 398.074 832.409 540.648 832.409 712.898" stroke="black" stroke-width="5" stroke-linecap="round"/>
<path d="M174.582 745.921V617.364C174.582 614.658 176.733 612.444 179.438 612.366L718.948 596.803C721.765 596.722 724.092 598.983 724.092 601.801V745.921" stroke="black" stroke-width="5" stroke-linecap="round"/>
<path d="M609.83 600.618L605.207 749.884" stroke="black" stroke-width="5" stroke-linecap="round"/>
<path d="M691.729 596.655C688.036 584.8 680.672 560.834 677.542 549.561C676.929 547.35 674.928 545.799 672.634 545.799H518.686" stroke="black" stroke-width="5" stroke-linecap="round"/>
<path d="M516.705 557.687L526.612 599.957" stroke="black" stroke-width="5" stroke-linecap="round"/>
<path d="M526.278 598.7L517.622 566.113C517.317 564.964 515.619 565.213 515.656 566.401L516.674 598.988C516.691 599.528 517.134 599.957 517.674 599.957H525.311C525.968 599.957 526.447 599.334 526.278 598.7Z" fill="black"/>
<path d="M623.7 543.817L620.857 534.815C620.192 532.71 618.226 531.29 616.019 531.321L432.824 533.91" stroke="black" stroke-width="5" stroke-linecap="round"/>
<path d="M439.43 544.478C441.191 559.008 447.223 590.975 457.262 602.599" stroke="black" stroke-width="5" stroke-linecap="round"/>
<path d="M455.918 600.89C449.054 591.366 443.89 571.979 440.983 556.905C440.748 555.687 438.668 555.838 438.677 557.079C438.811 577.209 440.027 602.599 443.392 602.599H455.078C455.935 602.599 456.418 601.584 455.918 600.89Z" fill="black"/>
<path d="M541.142 530.608L533.761 505.058C533.07 502.665 530.74 501.145 528.272 501.485C476.722 508.581 371.255 519.673 329.132 511.454" stroke="black" stroke-width="5" stroke-linecap="round"/>
<path d="M333.094 524.664L357.531 606.563" stroke="black" stroke-width="5" stroke-linecap="round"/>
<path d="M443.392 510.133L431.71 478.592C430.837 476.234 428.369 474.889 425.914 475.433C389.909 483.424 318.887 495.49 291.484 486.356" stroke="black" stroke-width="5" stroke-linecap="round"/>
<path d="M282.898 484.375C291.484 519.821 309.845 593.617 314.6 605.241" stroke="black" stroke-width="5" stroke-linecap="round"/>
<path d="M314.735 605.182C309.241 589.942 291.196 518.631 282.898 484.375L301.919 605.717C301.995 606.204 302.415 606.562 302.907 606.562H313.771C314.482 606.562 314.976 605.85 314.735 605.182Z" fill="black"/>
<path d="M263.084 518.719H289.503" stroke="black" stroke-width="5" stroke-linecap="round"/>
<path d="M253.177 520.7L276.294 607.222" stroke="black" stroke-width="5" stroke-linecap="round"/>
<path d="M262.33 608.307L254.432 532.706C254.304 531.485 256.063 531.153 256.39 532.336L277.265 607.937C277.441 608.574 276.962 609.203 276.301 609.203H263.325C262.813 609.203 262.383 608.816 262.33 608.307Z" fill="black"/>
<path d="M341.576 603.697L333.124 531.565C332.981 530.35 334.727 529.991 335.075 531.164L356.489 603.296C356.68 603.937 356.199 604.58 355.531 604.58H342.57C342.062 604.58 341.635 604.2 341.576 603.697Z" fill="black"/>
<path d="M263.084 560.328L200.412 557.941C197.077 557.814 194.556 560.928 195.375 564.164L206.944 609.864" stroke="black" stroke-width="5" stroke-linecap="round"/>
<path d="M206.629 608.618L196.384 568.151C196.086 566.973 194.34 567.247 194.417 568.46L196.978 608.927C197.011 609.453 197.448 609.864 197.976 609.864H205.66C206.312 609.864 206.789 609.25 206.629 608.618Z" fill="black"/>
<path d="M186.506 507.834L208.434 556.788" stroke="black" stroke-width="5" stroke-linecap="round"/>
<path d="M435.35 330.066C432.5 338.686 433.44 360.049 452.448 351.704C471.682 343.26 473.819 324.261 493.588 310.011" stroke="black" stroke-width="5" stroke-linecap="round"/>
<path d="M417.986 344.355C406.416 371.612 438.373 426.127 502.835 374.394" stroke="black" stroke-width="5" stroke-linecap="round"/>
<path d="M185.809 508.812C171.279 533.145 123.065 525.324 97.3065 552.403C71.5481 579.482 49.6531 574.772 45.3899 545.713C43.3012 531.476 62.5303 504.721 75.6873 498.209C82.7711 494.58 96.1475 489.464 119.762 490.319" stroke="black" stroke-width="5" stroke-linecap="round"/>
<path d="M120.423 488.338C60.3196 488.338 43.3372 531.484 45.383 545.711C47.3016 559.055 67.1944 589.521 100.878 546.59C108.804 538.752 119.236 536.391 124.385 533.911L120.423 488.338Z" fill="black"/>
<path d="M44.5786 544.125C41.5398 604.954 110.822 633.403 137.595 773" stroke="black" stroke-width="5" stroke-linecap="round"/>
<path d="M150.094 433.002L126.43 378.394C125.291 375.766 126.587 372.723 129.251 371.671C155.049 361.483 202.117 338.868 217.462 316.099" stroke="black" stroke-width="5" stroke-linecap="round"/>
<path d="M187.74 503.673L192.512 514.647C193.548 517.031 196.218 518.232 198.672 517.375C226.802 507.549 278.708 486.74 298.177 469.126C299.742 467.71 300.044 465.431 299.09 463.549L228.295 323.902" stroke="black" stroke-width="5" stroke-linecap="round"/>
<path d="M284.219 401.156C311.959 389.268 375.628 362.32 408.388 349.639" stroke="black" stroke-width="5" stroke-linecap="round"/>
<path d="M448.016 395.872C435.242 402.257 410.897 422.555 415.653 452.672" stroke="black" stroke-width="5" stroke-linecap="round"/>
<path d="M461.542 436.161C442.243 461.832 420.263 467.112 411.69 466.542" stroke="black" stroke-width="5" stroke-linecap="round"/>
<path d="M479.719 397.854C490.946 407.321 509.44 432.727 501.514 466.543" stroke="black" stroke-width="5" stroke-linecap="round"/>
<path d="M456.602 401.156C455.176 409.15 455.479 422.717 461.542 436.161C466.655 447.523 475.875 458.798 491.607 466.542" stroke="black" stroke-width="5" stroke-linecap="round"/>
<path d="M150.34 467.868C149.691 466.249 149.366 461.135 153.261 453.625C158.129 444.237 168.839 425.462 161.05 427.405C153.261 429.347 117.885 472.076 122.754 493.44" stroke="black" stroke-width="5" stroke-linecap="round"/>
<path d="M174.488 510.894C176.911 507.417 181.947 501.611 187.22 498.901C190.2 497.369 193.164 494.067 191.329 491.263C188.904 487.558 184.573 484.831 177.798 487.466C164.888 492.486 160.585 498.845 155.951 507.547" stroke="black" stroke-width="5" stroke-linecap="round"/>
<path d="M180.232 488.232C181.104 482.772 179.512 472.64 166.167 475.795C152.821 478.95 143.597 491.67 140.653 497.636" stroke="black" stroke-width="5" stroke-linecap="round"/>
<path d="M171.249 473.546C165.551 468.344 149.62 462.208 131.474 479.278" stroke="black" stroke-width="5" stroke-linecap="round"/>
<path d="M126.375 447.662C124.397 465.675 117.616 467.283 119.594 489.477" stroke="black" stroke-width="5" stroke-linecap="round"/>
<path d="M329.022 190.044C329.022 212.335 346.836 230.347 368.739 230.347C390.641 230.347 408.456 212.335 408.456 190.044C408.456 167.752 390.641 149.74 368.739 149.74C346.836 149.74 329.022 167.752 329.022 190.044Z" stroke="black" stroke-width="5"/>
<path d="M426.355 189.457C426.355 211.36 444.367 229.174 466.658 229.174C488.95 229.174 506.961 211.36 506.961 189.457C506.961 167.555 488.95 149.74 466.658 149.74C444.367 149.74 426.355 167.555 426.355 189.457Z" stroke="black" stroke-width="5"/>
<path d="M423.856 181.486C420.468 180.238 412.676 178.68 408.611 182.421" stroke="black" stroke-width="5" stroke-linecap="round"/>
<ellipse rx="9.38151" ry="9.96785" transform="matrix(-1 0 0 1 466.072 198.253)" fill="black"/>
<ellipse rx="10.5542" ry="9.96785" transform="matrix(-1 0 0 1 376.948 200.599)" fill="black"/>
<path d="M386.329 167.177C383.58 165.3 375.743 161.266 366.394 160.14" stroke="black" stroke-width="5" stroke-linecap="round"/>
<path d="M471.936 159.655C463.336 157.682 450.827 159.655 443.791 169.521" stroke="black" stroke-width="5" stroke-linecap="round"/>
<path d="M422.224 223.294C417.126 223.538 406.47 221.538 404.634 211.586" stroke="black" stroke-width="5" stroke-linecap="round"/>
<path d="M443.792 253.955C436.41 262.877 436.614 270.907 410.956 261.39" stroke="black" stroke-width="5" stroke-linecap="round"/>
<path d="M355.72 226.983C352.283 245.626 356.183 263.314 383.703 290.176C415.369 321.084 430.097 336.538 474.281 303.422" stroke="black" stroke-width="5" stroke-linecap="round"/>
<path d="M352.964 249.264C362.321 129.824 447.947 81.611 490.591 72.1431C515.739 76.2215 529.354 144.011 561.03 151.441C570.443 151.441 579.096 149.583 583.389 130.39C606.198 28.429 539.084 24.3184 509.599 27.7171C339.995 -66.9597 249.155 132.737 352.964 249.264Z" fill="black"/>
<path d="M565.75 196.493C566.635 199.073 567.874 205.265 565.75 209.392" stroke="black" stroke-width="5" stroke-linecap="round"/>
<path d="M505.943 180.075H566.923" stroke="black" stroke-width="5" stroke-linecap="round"/>
<path d="M557.923 184.077C568.283 176.93 585.854 182.585 579.733 209.604C575.916 226.452 558.468 228.834 555.197 218.283" stroke="black" stroke-width="5" stroke-linecap="round"/>
<path d="M1730.38 4.01022L1654.86 300.064C1654.72 300.596 1655.04 301.138 1655.57 301.278L1665.2 303.811C1665.73 303.952 1666.28 303.63 1666.42 303.093L1742.56 7.58036C1742.7 7.06033 1742.4 6.52732 1741.88 6.37301L1731.64 3.29958C1731.09 3.13619 1730.52 3.45923 1730.38 4.01022Z" stroke="black" stroke-width="5" stroke-linecap="round"/>
<path d="M1341.87 407.332C1339.46 223.223 1385.84 162.879 1411.87 154.499C1413.41 154.001 1415.05 154.471 1416.29 155.52C1430.06 167.177 1493.53 217.508 1489.78 278C1489.78 356.46 1431.4 439.09 1414.37 470.717C1397.34 502.345 1344.02 499.303 1319.49 493.829C1246.91 469.298 1106.85 412.694 1127.29 382.526C1147.01 353.416 1269.88 388.792 1335.12 412.256C1338.43 413.448 1341.91 410.856 1341.87 407.332Z" fill="black"/>
<path d="M1500.78 272.5C1520.78 279 1539.78 259 1547.78 249" stroke="black" stroke-width="5" stroke-linecap="round"/>
<path d="M1130.95 356.691C1122.03 348.176 1099.56 335.16 1081.07 351.217C1062.58 367.274 1044.17 391.156 1037.28 401.09C1032.42 408.997 1026.94 424.202 1043.97 421.77C1065.26 418.729 1079.25 391.967 1097.49 394.4" stroke="black" stroke-width="5" stroke-linecap="round"/>
<path d="M1316.5 376.427C1321.48 360.854 1334.22 334.511 1343.37 316.71C1345.27 313.02 1350.5 313.193 1352.04 317.046C1368.5 358.241 1381.89 425.552 1325.57 425.101C1249.54 424.493 1127.29 342.992 1165.61 328.395C1194.59 317.353 1269 355.828 1308.21 379.762C1311.27 381.63 1315.41 379.843 1316.5 376.427Z" fill="black"/>
<path d="M1167.43 321.349C1157.34 311.892 1132.07 293.969 1111.78 297.942C1086.42 302.907 1036.4 338.373 1052.6 345.467C1068.81 352.56 1092.62 335.085 1123.03 335.085" stroke="black" stroke-width="5" stroke-linecap="round"/>
<path d="M1368.14 210.357C1321.68 192.191 1216.29 204.159 1218.56 337.518" stroke="black" stroke-width="5" stroke-linecap="round"/>
<path d="M1459.38 337.518V443.576C1459.38 460.073 1455.12 488.355 1420.45 488.355" stroke="black" stroke-width="5" stroke-linecap="round"/>
<path d="M1352.82 499.859L1458.74 488.423C1459.16 488.378 1459.6 488.387 1460.02 488.454C1492.7 493.746 1482.94 533.971 1459.37 533.971H1214.19C1213.44 533.971 1212.67 533.796 1212.01 533.454C1181.82 518.01 1199.3 484.747 1220.35 488.355L1351.84 499.869C1352.17 499.897 1352.49 499.894 1352.82 499.859Z" stroke="black" stroke-width="5" stroke-linecap="round"/>
<path d="M1228.41 534.58L1217.66 695.898C1217.47 698.784 1219.76 701.231 1222.65 701.231H1227.9C1230.33 701.231 1232.41 699.482 1232.83 697.088L1261.1 534.58" stroke="black" stroke-width="5" stroke-linecap="round"/>
<path d="M1448.27 534.58L1459.02 695.898C1459.21 698.784 1456.92 701.231 1454.03 701.231H1448.78C1446.35 701.231 1444.27 699.482 1443.85 697.088L1415.58 534.58" stroke="black" stroke-width="5" stroke-linecap="round"/>
<path d="M1220.96 455.512C1219.54 465.851 1222.29 486.287 1244.68 485.314" stroke="black" stroke-width="5" stroke-linecap="round"/>
<path d="M1422.88 150.796C1436.87 139.24 1475.92 120.994 1539.66 138.024" stroke="black" stroke-width="5" stroke-linecap="round"/>
<path d="M1523.24 134.374C1545.54 108.424 1614.11 61.6318 1709.96 82.0679" stroke="black" stroke-width="5" stroke-linecap="round"/>
<path d="M1652.79 128.9C1600.89 147.958 1514.66 204.107 1574.94 283.995C1620.83 344.817 1635.76 294.335 1616.9 245.678C1613.86 235.338 1609.6 218.43 1631.5 209.185" stroke="black" stroke-width="5" stroke-linecap="round"/>
<path d="M1610.53 321.705C1606.88 330.22 1610.16 344.452 1616 347.858" stroke="black" stroke-width="5" stroke-linecap="round"/>
<path d="M1633.32 327.178C1638.65 324.221 1649.72 320.115 1665.42 323.803C1666.31 324.011 1667.11 324.478 1667.74 325.137C1676 333.775 1689.56 350.057 1684.41 353.332C1679.06 356.738 1669.21 344.209 1666.78 339.952" stroke="black" stroke-width="5" stroke-linecap="round"/>
<path d="M1674.08 349.074C1677.72 354.548 1677.72 360.022 1672.86 361.847C1667.99 363.671 1661.91 352.115 1660.09 347.25" stroke="black" stroke-width="5" stroke-linecap="round"/>
<path d="M1667.99 360.631C1667.18 363.088 1662.41 367.268 1657.05 361.847C1653.4 358.161 1652.18 355.765 1650.35 352.115" stroke="black" stroke-width="5" stroke-linecap="round"/>
<path d="M1631.5 349.074H1483.66C1480.97 349.074 1478.77 351.226 1479.36 353.85C1480.8 360.243 1485.5 369.084 1497.23 371.488C1497.53 371.55 1497.85 371.578 1498.16 371.578H1526.14C1528.91 371.578 1531.14 373.817 1531.14 376.578V746.104C1531.14 748.866 1533.38 751.104 1536.14 751.104H1765.92" stroke="black" stroke-width="5" stroke-linecap="round"/>
<path d="M1528.71 369.145V389.825L1851.07 379.189V369.145H1528.71Z" fill="black"/>
<path d="M1848.02 478.624V375.806C1848.02 373.109 1850.16 370.899 1852.86 370.809L1866.27 370.362C1876.89 370.362 1882.97 365.724 1884.66 354.829C1885.1 352.036 1882.78 349.682 1879.96 349.682H1686.24" stroke="black" stroke-width="5" stroke-linecap="round"/>
<path d="M1655.83 361.847C1653.6 365.699 1645.98 368.659 1633.32 349.682" stroke="black" stroke-width="5" stroke-linecap="round"/>
<path d="M1666.17 303.458C1693.54 273.655 1746.57 173.057 1742.2 6.64917" stroke="black" stroke-width="5" stroke-linecap="round"/>
<circle cx="1746.45" cy="164.785" r="15.7464" stroke="black" stroke-width="5"/>
<path d="M1742.2 181.207L1765.92 299.809C1767.94 310.149 1765.06 331.558 1737.33 334.477H1686.85C1684.82 334.274 1680.77 334.842 1680.77 338.735" stroke="black" stroke-width="5" stroke-linecap="round"/>
<path d="M1749.49 347.858C1762.87 344.614 1788.05 329.611 1781.73 295.551C1775.4 261.491 1762.06 202.697 1756.18 177.558" stroke="black" stroke-width="5" stroke-linecap="round"/>
<path d="M1772.43 772.222L1749.88 673.13C1749.71 672.377 1750.44 671.725 1751.17 671.954C1815.74 691.934 1865.97 681.07 1885.07 672.333C1885.83 671.983 1886.69 672.655 1886.51 673.477L1865.22 772.211C1865.13 772.671 1864.72 773 1864.25 773H1773.4C1772.94 773 1772.53 772.677 1772.43 772.222Z" stroke="black" stroke-width="5" stroke-linecap="round"/>
<path d="M1868.28 449.24C1805.59 524.689 1800.19 632.618 1805.87 680.24C1805.98 681.16 1806.7 681.838 1807.62 681.925C1819.26 683.031 1841.37 683.672 1849.32 678.489C1849.67 678.257 1849.92 677.882 1850.04 677.476C1900.43 511.812 1874.89 481.579 1872 450.498C1871.83 448.658 1869.46 447.819 1868.28 449.24Z" fill="black"/>
<path d="M1930.29 506.489C1932.44 562.075 1886.04 637.491 1858.18 675.608C1856.82 677.472 1853.95 675.868 1854.73 673.694C1872.93 622.793 1883.63 562.833 1884.5 542.278C1884.51 542 1884.58 541.752 1884.7 541.504C1892.57 525.797 1915.02 511.354 1927.5 504.879C1928.76 504.229 1930.24 505.077 1930.29 506.489Z" fill="black"/>
<path d="M1784.77 429.359C1812.02 456.12 1823.29 496.465 1825.52 513.292C1801.68 572.167 1800.18 649.735 1802.41 681.16C1799 681.16 1794.1 679.943 1792.07 679.335C1746.82 582.021 1768.35 472.136 1784.77 429.359Z" fill="black"/>
<path d="M1748.54 589.927C1750.49 642.964 1743.01 658.453 1751.93 674.469C1746.09 674.469 1759.09 699.812 1753.41 697.581C1680.91 622.163 1667.65 536.404 1670.08 502.953C1699.28 513.657 1734.55 565.396 1748.54 589.927Z" fill="black" fill-opacity="0.3"/>
<path d="M1761.66 566.207C1763.6 619.243 1781.93 664.535 1790.85 680.551C1785.01 680.551 1772.2 676.091 1766.52 673.861C1694.02 598.442 1680.77 512.684 1683.2 479.232C1712.39 489.937 1747.67 541.676 1761.66 566.207Z" fill="black"/>
<path d="M2769.19 65.5348L2817.65 26.4504" stroke="black" stroke-width="5" stroke-linecap="round"/>
<path d="M2481.53 275.809C2487.39 272.682 2490.91 267.992 2492.86 262.52C2497 250.918 2500.14 245.248 2504.91 242.414C2509.68 239.579 2539.26 221.761 2537.32 235.8C2536.68 240.447 2531.12 241.083 2524.61 243.669" stroke="black" stroke-width="5" stroke-linecap="round"/>
<path d="M2525.3 206.239C2530.98 195.549 2539.87 181.688 2545.57 173.408C2549.92 167.095 2553.98 159.181 2545.57 146.049C2535.07 129.634 2488.56 80.3873 2523.35 77.6514C2551.17 75.4627 2605.57 89.3765 2611.68 77.6514C2624.7 52.6374 2650.21 3.70363 2666.79 8.08109C2687.5 13.5529 2691.73 92.503 2702.74 96.0206C2713.76 99.5382 2796.94 124.161 2772.7 143.313C2748.47 162.464 2710.12 173.408 2711.73 187.478C2712.63 195.272 2713.41 207.974 2713.92 221.872M2514.05 237.897C2512.05 250.422 2516.12 258.605 2531.56 256.375C2579.45 249.461 2615.65 229.872 2632 241.395C2648.35 252.918 2711.42 309.382 2713.76 282.879C2714.12 278.825 2714.34 274.751 2714.47 268.774" stroke="black" stroke-width="5" stroke-linecap="round"/>
<path d="M2774.27 165.591C2784 155.023 2785.8 144.372 2780.81 136.628C2780.38 135.955 2779.35 136.109 2778.96 136.806C2771.88 149.31 2729.89 167.67 2714.15 179.997C2714.1 180.035 2714.06 180.073 2714.02 180.122C2713.1 181.358 2711.51 187.679 2712.12 189.823C2712.73 191.946 2713.63 210.413 2714.04 220.201C2714.06 220.709 2714.46 221.115 2714.96 221.191C2718.43 221.721 2724.68 224.194 2732.74 233.984C2733.4 234.786 2734.79 234.214 2734.67 233.181C2733.11 219.587 2732.7 199.624 2735.18 196.077C2740 189.194 2746.13 186.696 2752.77 182.397C2755.12 180.88 2763.88 176.87 2774.27 165.591Z" fill="black"/>
<path d="M2704.03 312.018C2710.7 316.23 2723.93 317.517 2727.4 312.018C2729.12 309.274 2730.23 301.44 2730.9 291.052C2727.16 290.114 2722.68 273.464 2714.86 270.337C2714.7 280.004 2714.18 285.396 2712.5 288.283C2703.1 304.456 2637.86 244.151 2627.48 239.745C2617.71 235.598 2552.29 253.607 2533.81 257.046C2519.02 259.797 2514.32 251.498 2512.01 248.059C2512.79 255.094 2519.18 274.038 2528.46 276.016C2536.54 277.738 2622.16 253.02 2630.51 259.238C2655.69 277.993 2698.52 308.537 2704.03 312.018Z" fill="black"/>
<path d="M2503.02 242.197C2506.66 235.817 2519.46 216.509 2538.98 223.299" stroke="black" stroke-width="5" stroke-linecap="round"/>
<path d="M2501.85 244.542C2505.29 234.035 2520.83 206.959 2535.85 213.466" stroke="black" stroke-width="5" stroke-linecap="round"/>
<path d="M2508.49 230.471C2510.71 210.636 2516.8 191.085 2524.73 197.225C2525.84 198.361 2527.54 201.829 2525.56 206.604" stroke="black" stroke-width="5" stroke-linecap="round"/>
<path d="M2719.16 237.177C2711.01 234.007 2693.98 230.886 2691.02 243.759" stroke="black" stroke-width="5" stroke-linecap="round"/>
<path d="M2733.23 255.485C2718.87 246.583 2692.28 235.645 2694.25 252.803" stroke="black" stroke-width="5" stroke-linecap="round"/>
<path d="M2725.96 262.116C2714.94 256.05 2693.82 247.604 2695.84 261.292C2695.91 261.763 2696.33 262.114 2696.8 262.133C2703.64 262.404 2717.38 266.074 2723.71 279.184C2730.31 292.838 2736.45 297.736 2738.7 298.478" stroke="black" stroke-width="5" stroke-linecap="round"/>
<path d="M2818.43 105.4L2846.57 97.5835" stroke="black" stroke-width="5" stroke-linecap="round"/>
<path d="M2502.63 30.3591L2476.83 3" stroke="black" stroke-width="5" stroke-linecap="round"/>
<path d="M2460.42 65.5348L2386.16 44.4292" stroke="black" stroke-width="5" stroke-linecap="round"/>
<path d="M2455.73 124.944L2402.57 131.197" stroke="black" stroke-width="5" stroke-linecap="round"/>
<path d="M2511.99 439.156C2487.22 407.35 2489.14 361.005 2495 333.897C2498.59 321.718 2518.61 262.152 2475.8 290.311C2456.08 303.281 2372.43 480.28 2543.79 514.408C2544.34 514.518 2544.74 515.073 2544.62 515.625C2538.21 545.969 2552.96 576.056 2544.84 618.577" stroke="black" stroke-width="5" stroke-linecap="round"/>
<path d="M2508.1 441.136C2516.44 439.572 2568.29 421.661 2587.83 444.647" stroke="black" stroke-width="5" stroke-linecap="round"/>
<path d="M2656.62 449.255C2685.55 432.928 2714.08 451.35 2739.48 456.379" stroke="black" stroke-width="5" stroke-linecap="round"/>
<path d="M2733.23 454.813C2751.76 437.332 2767.9 381.22 2749.84 318.121C2746.34 305.882 2747.36 275.017 2770.6 288.765C2799.93 306.115 2888.78 514.073 2691.95 515C2691.3 515.003 2690.77 515.606 2690.92 516.236C2698.04 546.602 2699.29 581.34 2699.03 617.698" stroke="black" stroke-width="5" stroke-linecap="round"/>
<path d="M2755.12 271.119C2746.22 253.651 2727.63 220.124 2714.29 221.944C2711.62 222.308 2705.27 224.127 2702.74 228.131" stroke="black" stroke-width="5" stroke-linecap="round"/>
<path d="M2681.37 345.408C2675.65 365.999 2672.79 367.823 2664.48 376.945C2664.48 367.93 2662.93 352.798 2662.93 346.496C2635.69 346.496 2612.7 335.348 2604.61 329.774C2604.9 348.677 2587.22 361.037 2587.22 361.037C2587.22 361.037 2589.76 368.672 2591.21 385.757C2592.37 399.427 2589.03 396.785 2587.22 393.755C2582.01 376.887 2573.46 381.395 2569.84 385.757C2525.39 313.349 2593.74 299.359 2606.78 300.691C2616.64 292.258 2630.38 285.648 2640.03 284.679C2674.87 281.183 2690.64 312.021 2681.37 345.408Z" fill="black"/>
<path d="M2587.05 407.088C2591.79 435.685 2623.54 456.25 2646.46 433.083C2669.38 409.917 2664.79 367.512 2662.35 347.724" stroke="black" stroke-width="5" stroke-linecap="round"/>
<path d="M2644.67 452.447C2646.98 445.516 2644.88 440.852 2642.82 439.964C2630.48 451.693 2611.77 447.339 2604.83 440.23C2602.36 442.576 2603.8 449.515 2604.83 451.647C2618.2 467.002 2637.22 458.4 2644.67 452.447Z" fill="black"/>
<path d="M2595.65 492.337L2596.75 490.639C2602.47 481.752 2613.72 478.204 2623.5 482.195V482.195C2632.3 485.783 2642.41 483.307 2648.56 476.059L2656.62 466.541" stroke="black" stroke-width="5" stroke-linecap="round"/>
<path d="M2569.23 383.682C2566.48 390.488 2569.06 405.569 2587.05 405.569" stroke="black" stroke-width="5" stroke-linecap="round"/>
<path d="M2577.8 388.372C2577.39 389.501 2577.72 392.177 2582.36 393.844" stroke="black" stroke-width="5" stroke-linecap="round"/>
<path d="M2662.09 402.443C2668.38 399.943 2672.81 390.687 2671.11 375.865" stroke="black" stroke-width="5" stroke-linecap="round"/>
<path d="M2645.17 384.002C2647.02 382.855 2647.53 380.326 2646.3 378.353C2645.08 376.38 2642.59 375.711 2640.74 376.858C2638.89 378.005 2638.38 380.534 2639.61 382.507C2640.83 384.48 2643.32 385.149 2645.17 384.002Z" fill="black"/>
<path d="M2613.04 387.027C2615.26 385.955 2616.35 383.604 2615.47 381.774C2614.59 379.944 2612.07 379.329 2609.85 380.401C2607.63 381.472 2606.54 383.824 2607.42 385.653C2608.3 387.483 2610.82 388.098 2613.04 387.027Z" fill="black"/>
<path d="M2602.69 374.301C2603.54 372.319 2607.25 368.654 2615.19 369.843" stroke="black" stroke-width="5" stroke-linecap="round"/>
<path d="M2640.21 369.612C2641.98 369.022 2646.82 368.196 2651.93 369.612" stroke="black" stroke-width="5" stroke-linecap="round"/>
<path d="M2626.51 382.9C2625.97 387.63 2625.6 397.224 2628.48 397.752" stroke="black" stroke-width="5" stroke-linecap="round"/>
<path d="M2629.26 420.864C2623.73 422.471 2624.08 418.048 2619.88 414.167" stroke="black" stroke-width="5" stroke-linecap="round"/>
<path d="M2865.03 771.734L2835.43 656.218C2829.76 634.098 2809.83 618.628 2787 618.628H2456.05C2433.07 618.628 2413.05 634.291 2407.52 656.596L2378.66 773" stroke="black" stroke-width="5" stroke-linecap="round"/>
<path d="M2397.26 687.444H2198.67C2178.29 687.444 2159.95 699.813 2152.31 718.706L2130.37 773" stroke="black" stroke-width="5" stroke-linecap="round"/>
<path d="M2856.66 725.573H3060.23C3080.59 725.573 3098.91 737.911 3106.56 756.772L3112.39 771.14" stroke="black" stroke-width="5" stroke-linecap="round"/>
<path d="M4415.5 457.974C4423.13 456.957 4439.52 451.155 4444 436.091" stroke="black" stroke-width="5" stroke-linecap="round"/>
<path d="M4390.56 445.76C4395.65 445.93 4407.36 443.419 4413.46 432.02" stroke="black" stroke-width="5" stroke-linecap="round"/>
<path d="M4367.66 427.439C4375.8 425.748 4393.51 420.481 4399.21 412.943" stroke="black" stroke-width="5" stroke-linecap="round"/>
<path d="M4441.31 483.567C4390.1 495.001 4342.37 444.002 4323.45 415.067C4322.75 413.983 4323.27 412.546 4324.5 412.135L4405.13 385.096C4405.87 384.848 4406.68 385.051 4407.22 385.608C4434.07 413.108 4484.01 425.207 4510.26 428.495C4512.08 428.723 4512.73 431.096 4511.25 432.187L4442.05 483.228C4441.83 483.391 4441.57 483.508 4441.31 483.567Z" stroke="black" stroke-width="5" stroke-linecap="round"/>
<path d="M4059.49 312.45C4017.9 310.729 3972.56 332.58 3964.83 338.378C3958.47 343.15 3959.36 350.253 3960.66 353.426C3960.73 353.574 3960.81 353.71 3960.91 353.836L4037.01 452.261C4037.07 452.338 4037.12 452.418 4037.17 452.501C4038.77 455.195 4043.62 458.467 4050.84 450.849C4062.19 438.864 4110.42 408.467 4171.84 408.981C4173.73 408.997 4174.66 406.615 4173.23 405.379L4114.45 354.657" stroke="black" stroke-width="5" stroke-linecap="round"/>
<path d="M3880.86 397.494C3900.71 386.726 3904.78 410.726 3915.46 408.69C3929.22 406.07 3906.3 377.137 3884.42 375.61C3866.91 374.389 3832.34 401.905 3817.24 415.815C3789.76 442.476 3702.63 471.759 3573.98 375.61" stroke="black" stroke-width="5" stroke-linecap="round"/>
<path d="M3559.63 198.579C3574.23 154.824 3560.56 126.721 3551.9 118.139C3580.25 144.486 3615.41 140.134 3629.44 134.665L3628.4 155.407C3650.31 163.03 3662.94 133.757 3666.51 118.167C3672.03 94.1142 3652.64 58.171 3597.19 57.514C3541.74 56.8581 3502.44 93.6706 3489.73 112.159C3454.53 92.7812 3407.32 111.433 3388.11 123.182C3368.23 135.391 3322.88 175.815 3333.71 235.602C3348.32 316.264 3437.82 318.431 3453.44 314.562C3507.39 301.192 3541.37 253.274 3559.63 198.579Z" fill="black"/>
<path d="M3634.14 207.768C3631.23 215.044 3626.9 220.828 3622.38 224.333C3617.82 227.879 3613.47 228.824 3610.15 227.492C3606.83 226.161 3604.33 222.475 3603.48 216.754C3602.63 211.098 3603.49 203.927 3606.4 196.651C3609.32 189.375 3613.64 183.592 3618.16 180.087C3622.73 176.54 3627.08 175.596 3630.4 176.927C3633.72 178.258 3636.21 181.944 3637.07 187.666C3637.92 193.322 3637.05 200.492 3634.14 207.768Z" stroke="black" stroke-width="5"/>
<path d="M3624.98 207.444C3627.85 205.665 3628.74 201.893 3626.96 199.02C3625.18 196.147 3621.41 195.261 3618.53 197.04C3615.66 198.82 3614.77 202.591 3616.55 205.464C3618.33 208.337 3622.1 209.224 3624.98 207.444Z" fill="black"/>
<path d="M3561.2 194.944L3604.04 199.915" stroke="black" stroke-width="5" stroke-linecap="round"/>
<path d="M3633.13 157.573C3634.98 165.598 3641.75 183.783 3650.62 195.174C3659.7 206.824 3657.92 218.493 3648.79 225.03L3634.54 235.34C3629.46 283.976 3612.05 316.739 3550.44 319.236" stroke="black" stroke-width="5" stroke-linecap="round"/>
<path d="M3467.78 362.872L3509.55 382.51C3510.91 383.148 3512.43 382.085 3512.32 380.579L3509.17 337.99C3509.05 336.411 3510.72 335.35 3512.08 336.135L3541.43 353.039" stroke="black" stroke-width="5" stroke-linecap="round"/>
<path d="M3531.45 319.167C3534.3 322.052 3538.58 326.844 3542.96 332.588C3548.96 340.472 3555.16 350.152 3558.11 359.156" stroke="black" stroke-width="5" stroke-linecap="round"/>
<path d="M3545.86 386.153C3548.56 385.358 3549.98 382.085 3549.02 378.843C3548.07 375.601 3545.11 373.618 3542.41 374.414C3539.7 375.209 3538.29 378.482 3539.24 381.724C3540.2 384.966 3543.16 386.949 3545.86 386.153Z" fill="black"/>
<path d="M3560.29 411.672C3562.72 410.956 3563.92 407.747 3562.96 404.506C3562.01 401.264 3559.26 399.216 3556.83 399.932C3554.4 400.648 3553.2 403.857 3554.16 407.098C3555.11 410.34 3557.86 412.388 3560.29 411.672Z" fill="black"/>
<path d="M3597.72 266.553C3596.16 270.27 3595.92 278.662 3607.43 282.496" stroke="black" stroke-width="5" stroke-linecap="round"/>
<path d="M3814.85 608.118C3812.97 596.084 3812.47 588.39 3812.82 582.667C3812.9 581.453 3809.83 580.28 3809.14 581.279C3796.68 599.214 3781.59 607.765 3773.81 612.481C3773.59 612.615 3773.44 612.816 3773.38 613.068C3769.75 627.203 3764.55 659.317 3782.65 667.613C3805.47 678.076 3818.94 634.188 3814.85 608.118Z" fill="black"/>
<path d="M3750.27 553.5C3757.04 552.491 3771.19 549.366 3775.95 567.943C3781.9 591.163 3751.11 669.746 3789.16 668.759C3819.61 667.97 3818.54 610.292 3813.68 580.624" stroke="black" stroke-width="5" stroke-linecap="round"/>
<path d="M3840.26 447.796C3846.68 469.885 3839.21 492.604 3827.93 489.528C3821.17 487.685 3819.14 477.233 3818.53 468.153C3817.42 452.376 3816.73 419.093 3822.84 412.172" stroke="black" stroke-width="5" stroke-linecap="round"/>
<path d="M3819.79 469.68L3819.79 469.68C3825.07 466.287 3837.6 454.922 3840.65 447.288C3847.27 469.679 3840.58 491.896 3827.93 489.527C3819.79 488.001 3819.79 478.332 3819.79 469.68Z" fill="black"/>
<path d="M3754.88 668.782C3639.47 612.268 3435.94 801.854 3485.49 425.169" stroke="black" stroke-width="5" stroke-linecap="round"/>
<path d="M3451.86 376.935C3357.77 484 3391.85 598.215 3325.77 690" stroke="black" stroke-width="5" stroke-linecap="round"/>
<path d="M3891.55 377.137C3906.3 372.557 3912.92 377.138 3922.59 399.021" stroke="black" stroke-width="5" stroke-linecap="round"/>
<path d="M3867.12 399.172C3880.15 397.951 3891.66 401.716 3896.63 406.296C3909.36 418.001 3898.16 423.091 3880.35 415.966C3869.81 411.75 3871.42 428.77 3852.11 428.5C3849.62 428.465 3847.3 429.962 3846.5 432.32C3842.43 444.325 3833.03 463.45 3819.28 468.153" stroke="black" stroke-width="5" stroke-linecap="round"/>
<path d="M3863.05 499.197C3865.25 496.483 3868.4 494.101 3870.17 493.091C3873.73 491.055 3887.47 498.179 3878.82 485.965C3868.51 471.4 3833.02 496.313 3817.75 512.938C3777.04 549.58 3664.2 603.142 3593.77 538" stroke="black" stroke-width="5" stroke-linecap="round"/>
<path d="M3856.43 501.742C3864.74 500.893 3881.27 501.029 3880.86 508.358" stroke="black" stroke-width="5" stroke-linecap="round"/>
<path d="M3861.52 511.411C3869.32 508.866 3884.83 506.22 3884.42 515.991" stroke="black" stroke-width="5" stroke-linecap="round"/>
<path d="M3866.61 519.044C3874.75 515.652 3889 514.464 3891.55 528.205C3891.88 531.598 3890.83 536.959 3883.91 531.259C3876.99 525.559 3868.47 530.919 3865.08 534.312C3857.45 541.437 3839.53 555.992 3828.95 557.214C3816.73 575.365 3788.54 611.159 3773.48 609.124" stroke="black" stroke-width="5" stroke-linecap="round"/>
<path d="M3606.55 514.286C3710.37 581.462 3733.27 504.108 3811.65 504.108" stroke="black" stroke-width="5" stroke-linecap="round"/>
<path d="M3873.73 655.435L4223.5 582.147C4224.74 581.887 4225.91 582.835 4225.91 584.104V591.732C4225.91 592.674 4225.25 593.489 4224.33 593.687L3864.45 671.199C3863.2 671.468 3862.03 670.518 3862.03 669.244V658.998L3852.87 548.053" stroke="black" stroke-width="5" stroke-linecap="round"/>
<path d="M3864.19 673.426L3845.98 677.067C3845.34 677.195 3844.76 676.688 3844.79 676.038L3850.7 554.968C3850.76 553.735 3852.57 553.685 3852.7 554.913L3864.99 672.342C3865.04 672.855 3864.69 673.325 3864.19 673.426Z" fill="black"/>
<path d="M3878.82 626.427L4212.82 558.213C4214.06 557.96 4215.22 558.907 4215.22 560.172V581.642" stroke="black" stroke-width="5" stroke-linecap="round"/>
<path d="M3851.85 484.438L3846.76 435.073" stroke="black" stroke-width="5" stroke-linecap="round"/>
<path d="M4054.91 467.135C4059.49 460.858 4075.16 446.269 4101.22 438.127C4133.79 427.948 4211.15 390.288 4216.75 467.135C4217.08 487.153 4216.75 503.777 4210.13 556.705" stroke="black" stroke-width="5" stroke-linecap="round"/>
<path d="M4017.29 471.206C4017.29 471.764 4016.81 472.89 4014.62 474.025C4012.55 475.095 4009.53 475.831 4006.05 475.831C4002.58 475.831 3999.55 475.095 3997.49 474.025C3995.3 472.89 3994.81 471.764 3994.81 471.206C3994.81 470.648 3995.3 469.522 3997.49 468.388C3999.55 467.318 4002.58 466.582 4006.05 466.582C4009.53 466.582 4012.55 467.318 4014.62 468.388C4016.81 469.522 4017.29 470.648 4017.29 471.206Z" stroke="black" stroke-width="5"/>
<path d="M4007.12 455.939C4007.12 456.497 4006.63 457.623 4004.44 458.758C4002.38 459.827 3999.35 460.564 3995.87 460.564C3992.4 460.564 3989.37 459.827 3987.31 458.758C3985.12 457.623 3984.63 456.497 3984.63 455.939C3984.63 455.381 3985.12 454.255 3987.31 453.12C3989.37 452.05 3992.4 451.314 3995.87 451.314C3999.35 451.314 4002.38 452.05 4004.44 453.12C4006.63 454.255 4007.12 455.381 4007.12 455.939Z" stroke="black" stroke-width="5"/>
<path d="M3996.94 440.671C3996.94 441.229 3996.45 442.355 3994.26 443.49C3992.2 444.56 3989.17 445.296 3985.7 445.296C3982.22 445.296 3979.19 444.56 3977.13 443.49C3974.94 442.355 3974.46 441.229 3974.46 440.671C3974.46 440.113 3974.94 438.987 3977.13 437.853C3979.19 436.783 3982.22 436.046 3985.7 436.046C3989.17 436.046 3992.2 436.783 3994.26 437.853C3996.45 438.987 3996.94 440.113 3996.94 440.671Z" stroke="black" stroke-width="5"/>
<path d="M3986.76 425.912C3986.76 426.334 3986.38 427.332 3984.38 428.372C3982.5 429.349 3979.73 430.028 3976.54 430.028C3973.34 430.028 3970.57 429.349 3968.69 428.372C3966.69 427.332 3966.31 426.334 3966.31 425.912C3966.31 425.491 3966.69 424.493 3968.69 423.452C3970.57 422.475 3973.34 421.796 3976.54 421.796C3979.73 421.796 3982.5 422.475 3984.38 423.452C3986.38 424.493 3986.76 425.491 3986.76 425.912Z" stroke="black" stroke-width="5"/>
<path d="M3976.58 411.154C3976.58 411.439 3976.31 412.309 3974.5 413.256C3972.8 414.139 3970.29 414.761 3967.37 414.761C3964.46 414.761 3961.95 414.139 3960.25 413.256C3958.44 412.309 3958.17 411.439 3958.17 411.154C3958.17 410.869 3958.44 409.999 3960.25 409.052C3961.95 408.168 3964.46 407.547 3967.37 407.547C3970.29 407.547 3972.8 408.168 3974.5 409.052C3976.31 409.999 3976.58 410.869 3976.58 411.154Z" stroke="black" stroke-width="5"/>
<path d="M3966.4 396.395C3966.4 396.545 3966.24 397.287 3964.61 398.139C3963.1 398.929 3960.84 399.493 3958.21 399.493C3955.58 399.493 3953.33 398.929 3951.82 398.139C3950.19 397.287 3950.03 396.545 3950.03 396.395C3950.03 396.245 3950.19 395.503 3951.82 394.651C3953.33 393.861 3955.58 393.297 3958.21 393.297C3960.84 393.297 3963.1 393.861 3964.61 394.651C3966.24 395.503 3966.4 396.245 3966.4 396.395Z" stroke="black" stroke-width="5"/>
<path d="M3991.85 497.67C3991.85 498.228 3991.36 499.354 3989.17 500.489C3987.11 501.559 3984.08 502.295 3980.61 502.295C3977.13 502.295 3974.1 501.559 3972.04 500.489C3969.85 499.354 3969.37 498.228 3969.37 497.67C3969.37 497.112 3969.85 495.986 3972.04 494.852C3974.1 493.782 3977.13 493.045 3980.61 493.045C3984.08 493.045 3987.11 493.782 3989.17 494.852C3991.36 495.986 3991.85 497.112 3991.85 497.67Z" stroke="black" stroke-width="5"/>
<path d="M3982.69 482.402C3982.69 482.961 3982.2 484.086 3980.01 485.221C3977.95 486.291 3974.92 487.027 3971.45 487.027C3967.97 487.027 3964.94 486.291 3962.88 485.221C3960.69 484.086 3960.21 482.961 3960.21 482.402C3960.21 481.844 3960.69 480.719 3962.88 479.584C3964.94 478.514 3967.97 477.778 3971.45 477.778C3974.92 477.778 3977.95 478.514 3980.01 479.584C3982.2 480.719 3982.69 481.844 3982.69 482.402Z" stroke="black" stroke-width="5"/>
<path d="M3975.56 467.135C3975.56 467.693 3975.08 468.819 3972.89 469.954C3970.82 471.024 3967.8 471.76 3964.32 471.76C3960.84 471.76 3957.82 471.024 3955.76 469.954C3953.57 468.819 3953.08 467.693 3953.08 467.135C3953.08 466.577 3953.57 465.451 3955.76 464.316C3957.82 463.246 3960.84 462.51 3964.32 462.51C3967.8 462.51 3970.82 463.246 3972.89 464.316C3975.08 465.451 3975.56 466.577 3975.56 467.135Z" stroke="black" stroke-width="5"/>
<path d="M3967.42 451.358C3967.42 451.78 3967.04 452.778 3965.04 453.819C3963.16 454.795 3960.39 455.474 3957.2 455.474C3954 455.474 3951.23 454.795 3949.35 453.819C3947.35 452.778 3946.97 451.78 3946.97 451.358C3946.97 450.937 3947.35 449.939 3949.35 448.898C3951.23 447.921 3954 447.242 3957.2 447.242C3960.39 447.242 3963.16 447.921 3965.04 448.898C3967.04 449.939 3967.42 450.937 3967.42 451.358Z" stroke="black" stroke-width="5"/>
<path d="M3959.28 436.6C3959.28 436.885 3959.01 437.755 3957.19 438.702C3955.5 439.585 3952.98 440.207 3950.07 440.207C3947.16 440.207 3944.64 439.585 3942.95 438.702C3941.14 437.755 3940.87 436.885 3940.87 436.6C3940.87 436.315 3941.14 435.445 3942.95 434.498C3944.64 433.614 3947.16 432.993 3950.07 432.993C3952.98 432.993 3955.5 433.614 3957.19 434.498C3959.01 435.445 3959.28 436.315 3959.28 436.6Z" stroke="black" stroke-width="5"/>
<path d="M3952.15 422.859C3952.15 423.009 3951.99 423.75 3950.36 424.603C3948.85 425.393 3946.6 425.957 3943.96 425.957C3941.33 425.957 3939.08 425.393 3937.57 424.603C3935.94 423.75 3935.78 423.009 3935.78 422.859C3935.78 422.709 3935.94 421.967 3937.57 421.115C3939.08 420.325 3941.33 419.761 3943.96 419.761C3946.6 419.761 3948.85 420.325 3950.36 421.115C3951.99 421.967 3952.15 422.709 3952.15 422.859Z" stroke="black" stroke-width="5"/>
<path d="M3947.06 410.645C3947.06 410.794 3946.9 411.536 3945.27 412.389C3943.76 413.179 3941.51 413.743 3938.88 413.743C3936.24 413.743 3933.99 413.179 3932.48 412.389C3930.85 411.536 3930.69 410.794 3930.69 410.645C3930.69 410.495 3930.85 409.753 3932.48 408.901C3933.99 408.111 3936.24 407.547 3938.88 407.547C3941.51 407.547 3943.76 408.111 3945.27 408.901C3946.9 409.753 3947.06 410.495 3947.06 410.645Z" stroke="black" stroke-width="5"/>
<path d="M3941.97 398.431C3941.97 398.581 3941.81 399.322 3940.18 400.175C3938.67 400.965 3936.42 401.529 3933.79 401.529C3931.16 401.529 3928.9 400.965 3927.39 400.175C3925.76 399.322 3925.6 398.581 3925.6 398.431C3925.6 398.281 3925.76 397.539 3927.39 396.687C3928.9 395.897 3931.16 395.333 3933.79 395.333C3936.42 395.333 3938.67 395.897 3940.18 396.687C3941.81 397.539 3941.97 398.281 3941.97 398.431Z" stroke="black" stroke-width="5"/>
<path d="M3962.33 521.08C3962.33 521.639 3961.84 522.764 3959.65 523.899C3957.59 524.969 3954.57 525.705 3951.09 525.705C3947.61 525.705 3944.59 524.969 3942.52 523.899C3940.34 522.764 3939.85 521.639 3939.85 521.08C3939.85 520.522 3940.34 519.396 3942.52 518.262C3944.59 517.192 3947.61 516.456 3951.09 516.456C3954.57 516.456 3957.59 517.192 3959.65 518.262C3961.84 519.396 3962.33 520.522 3962.33 521.08Z" stroke="black" stroke-width="5"/>
<path d="M3957.24 502.759C3957.24 503.317 3956.75 504.443 3954.57 505.578C3952.5 506.648 3949.48 507.384 3946 507.384C3942.52 507.384 3939.5 506.648 3937.43 505.578C3935.25 504.443 3934.76 503.317 3934.76 502.759C3934.76 502.201 3935.25 501.075 3937.43 499.941C3939.5 498.871 3942.52 498.135 3946 498.135C3949.48 498.135 3952.5 498.871 3954.57 499.941C3956.75 501.075 3957.24 502.201 3957.24 502.759Z" stroke="black" stroke-width="5"/>
<path d="M3951.13 485.456C3951.13 486.014 3950.65 487.14 3948.46 488.275C3946.39 489.345 3943.37 490.081 3939.89 490.081C3936.42 490.081 3933.39 489.345 3931.33 488.275C3929.14 487.14 3928.65 486.014 3928.65 485.456C3928.65 484.898 3929.14 483.772 3931.33 482.638C3933.39 481.568 3936.42 480.831 3939.89 480.831C3943.37 480.831 3946.39 481.568 3948.46 482.638C3950.65 483.772 3951.13 484.898 3951.13 485.456Z" stroke="black" stroke-width="5"/>
<path d="M3945.03 469.679C3945.03 470.101 3944.65 471.099 3942.65 472.14C3940.77 473.117 3938 473.795 3934.8 473.795C3931.61 473.795 3928.84 473.117 3926.96 472.14C3924.96 471.099 3924.58 470.101 3924.58 469.679C3924.58 469.258 3924.96 468.26 3926.96 467.219C3928.84 466.242 3931.61 465.563 3934.8 465.563C3938 465.563 3940.77 466.242 3942.65 467.219C3944.65 468.26 3945.03 469.258 3945.03 469.679Z" stroke="black" stroke-width="5"/>
<path d="M3937.9 454.921C3937.9 455.206 3937.63 456.076 3935.82 457.023C3934.12 457.907 3931.61 458.528 3928.7 458.528C3925.78 458.528 3923.27 457.907 3921.58 457.023C3919.76 456.076 3919.49 455.206 3919.49 454.921C3919.49 454.636 3919.76 453.766 3921.58 452.819C3923.27 451.935 3925.78 451.314 3928.7 451.314C3931.61 451.314 3934.12 451.935 3935.82 452.819C3937.63 453.766 3937.9 454.636 3937.9 454.921Z" stroke="black" stroke-width="5"/>
<path d="M3930.78 441.18C3930.78 441.33 3930.61 442.072 3928.99 442.924C3927.48 443.714 3925.22 444.278 3922.59 444.278C3919.96 444.278 3917.7 443.714 3916.19 442.924C3914.57 442.072 3914.4 441.33 3914.4 441.18C3914.4 441.03 3914.57 440.289 3916.19 439.436C3917.7 438.646 3919.96 438.082 3922.59 438.082C3925.22 438.082 3927.48 438.646 3928.99 439.436C3930.61 440.289 3930.78 441.03 3930.78 441.18Z" stroke="black" stroke-width="5"/>
<path d="M3925.69 428.966C3925.69 429.116 3925.52 429.858 3923.9 430.71C3922.39 431.5 3920.13 432.064 3917.5 432.064C3914.87 432.064 3912.61 431.5 3911.1 430.71C3909.48 429.858 3909.31 429.116 3909.31 428.966C3909.31 428.816 3909.48 428.075 3911.1 427.222C3912.61 426.432 3914.87 425.868 3917.5 425.868C3920.13 425.868 3922.39 426.432 3923.9 427.222C3925.52 428.075 3925.69 428.816 3925.69 428.966Z" stroke="black" stroke-width="5"/>
<path d="M3920.6 416.752C3920.6 416.902 3920.44 417.643 3918.81 418.496C3917.3 419.286 3915.04 419.85 3912.41 419.85C3909.78 419.85 3907.52 419.286 3906.01 418.496C3904.39 417.643 3904.22 416.902 3904.22 416.752C3904.22 416.602 3904.39 415.86 3906.01 415.008C3907.52 414.218 3909.78 413.654 3912.41 413.654C3915.04 413.654 3917.3 414.218 3918.81 415.008C3920.44 415.86 3920.6 416.602 3920.6 416.752Z" stroke="black" stroke-width="5"/>
<path d="M3929.76 530.241C3929.76 530.799 3929.27 531.925 3927.08 533.06C3925.02 534.13 3922 534.866 3918.52 534.866C3915.04 534.866 3912.02 534.13 3909.95 533.06C3907.76 531.925 3907.28 530.799 3907.28 530.241C3907.28 529.683 3907.76 528.557 3909.95 527.422C3912.02 526.352 3915.04 525.616 3918.52 525.616C3922 525.616 3925.02 526.352 3927.08 527.422C3929.27 528.557 3929.76 529.683 3929.76 530.241Z" stroke="black" stroke-width="5"/>
<path d="M3924.67 511.92C3924.67 512.478 3924.18 513.604 3921.99 514.738C3919.93 515.808 3916.91 516.545 3913.43 516.545C3909.95 516.545 3906.93 515.808 3904.86 514.738C3902.68 513.604 3902.19 512.478 3902.19 511.92C3902.19 511.362 3902.68 510.236 3904.86 509.101C3906.93 508.031 3909.95 507.295 3913.43 507.295C3916.91 507.295 3919.93 508.031 3921.99 509.101C3924.18 510.236 3924.67 511.362 3924.67 511.92Z" stroke="black" stroke-width="5"/>
<path d="M3918.56 494.617C3918.56 495.175 3918.08 496.301 3915.89 497.435C3913.82 498.505 3910.8 499.241 3907.32 499.241C3903.84 499.241 3900.82 498.505 3898.76 497.435C3896.57 496.301 3896.08 495.175 3896.08 494.617C3896.08 494.059 3896.57 492.933 3898.76 491.798C3900.82 490.728 3903.84 489.992 3907.32 489.992C3910.8 489.992 3913.82 490.728 3915.89 491.798C3918.08 492.933 3918.56 494.059 3918.56 494.617Z" stroke="black" stroke-width="5"/>
<path d="M3912.46 478.84C3912.46 479.261 3912.08 480.259 3910.08 481.3C3908.2 482.277 3905.43 482.956 3902.23 482.956C3899.04 482.956 3896.27 482.277 3894.39 481.3C3892.39 480.259 3892.01 479.261 3892.01 478.84C3892.01 478.419 3892.39 477.421 3894.39 476.38C3896.27 475.403 3899.04 474.724 3902.23 474.724C3905.43 474.724 3908.2 475.403 3910.08 476.38C3912.08 477.421 3912.46 478.419 3912.46 478.84Z" stroke="black" stroke-width="5"/>
<path d="M3908.38 464.081C3908.38 464.366 3908.11 465.236 3906.3 466.183C3904.61 467.067 3902.09 467.688 3899.18 467.688C3896.27 467.688 3893.75 467.067 3892.06 466.183C3890.24 465.236 3889.97 464.366 3889.97 464.081C3889.97 463.796 3890.24 462.926 3892.06 461.98C3893.75 461.096 3896.27 460.474 3899.18 460.474C3902.09 460.474 3904.61 461.096 3906.3 461.98C3908.11 462.926 3908.38 463.796 3908.38 464.081Z" stroke="black" stroke-width="5"/>
<path d="M3903.3 450.341C3903.3 450.49 3903.13 451.232 3901.51 452.084C3900 452.875 3897.74 453.439 3895.11 453.439C3892.48 453.439 3890.22 452.875 3888.71 452.084C3887.08 451.232 3886.92 450.49 3886.92 450.341C3886.92 450.191 3887.08 449.449 3888.71 448.597C3890.22 447.806 3892.48 447.242 3895.11 447.242C3897.74 447.242 3900 447.806 3901.51 448.597C3903.13 449.449 3903.3 450.191 3903.3 450.341Z" stroke="black" stroke-width="5"/>
<path d="M3900.24 438.126C3900.24 438.276 3900.08 439.018 3898.45 439.87C3896.94 440.661 3894.69 441.225 3892.05 441.225C3889.42 441.225 3887.17 440.661 3885.66 439.87C3884.03 439.018 3883.87 438.276 3883.87 438.126C3883.87 437.977 3884.03 437.235 3885.66 436.383C3887.17 435.592 3889.42 435.028 3892.05 435.028C3894.69 435.028 3896.94 435.592 3898.45 436.383C3900.08 437.235 3900.24 437.977 3900.24 438.126Z" stroke="black" stroke-width="5"/>
<path d="M3897.19 425.913C3897.19 426.062 3897.03 426.804 3895.4 427.656C3893.89 428.447 3891.63 429.011 3889 429.011C3886.37 429.011 3884.11 428.447 3882.6 427.656C3880.98 426.804 3880.81 426.062 3880.81 425.913C3880.81 425.763 3880.98 425.021 3882.6 424.169C3884.11 423.378 3886.37 422.814 3889 422.814C3891.63 422.814 3893.89 423.378 3895.4 424.169C3897.03 425.021 3897.19 425.763 3897.19 425.913Z" stroke="black" stroke-width="5"/>
<path d="M3867.12 479.858L3862.32 449.623C3862.15 448.592 3862.81 447.608 3863.83 447.364L3872.71 445.232C3873.82 444.965 3874.93 445.681 3875.14 446.802L3889 519.554" stroke="black" stroke-width="5" stroke-linecap="round"/>
<path d="M3896.63 561.285C3925.81 552.803 3993.43 530.852 4032.52 482.403" stroke="black" stroke-width="5" stroke-linecap="round"/>
<path d="M3923.1 384.181C3931.58 381.297 3946 374.003 3954.14 357.208" stroke="black" stroke-width="5" stroke-linecap="round"/>
<path d="M4057.98 403.068C4053.45 405.136 4045.92 411.177 4041.66 414.856C4041.16 415.293 4040.38 415.128 4040.09 414.524L4009.48 349.193C4008.99 348.148 4010.37 347.242 4011.14 348.104L4058.42 401.297C4058.91 401.852 4058.66 402.76 4057.98 403.068Z" fill="black"/>
<path d="M4039.35 414.071C4032.2 405.118 4004.87 371.941 3990.5 354.533C3990.04 353.976 3989.91 353.22 3990.27 352.594C3992.86 348.098 4000.48 344.313 4005.49 343.17C4006.15 343.018 4006.84 343.268 4007.29 343.779L4057.35 400.092C4058.33 401.201 4057.85 403.081 4056.55 403.798C4052.22 406.187 4046.16 411.014 4042.27 414.332C4041.39 415.085 4040.07 414.977 4039.35 414.071Z" stroke="black" stroke-width="5" stroke-linecap="round"/>
<path d="M4055.93 326.673C4053.23 326.673 4049.34 327.467 4047.07 330.104C4046.52 330.744 4046.61 331.672 4047.17 332.309C4061.61 348.866 4089.9 375.085 4097.29 383.09C4098.07 383.941 4099.41 384.025 4100.35 383.354C4103.05 381.434 4105.41 380.881 4108.05 380.285C4109.43 379.976 4109.99 378.383 4109.16 377.252L4103.77 369.931" stroke="black" stroke-width="5" stroke-linecap="round"/>
<ellipse cx="4163.31" cy="468.662" rx="25.446" ry="25.9549" fill="black"/>
<path d="M4054.4 338.378C4057.24 309.68 4074.19 251.179 4119.29 243.065C4120.73 242.807 4122.19 243.25 4123.3 244.204C4134.66 254.012 4158.65 272.705 4181.9 284.9C4185.44 286.755 4185.77 291.851 4182.44 294.058C4152.94 313.628 4104.76 351.751 4099.18 381.127" stroke="black" stroke-width="5" stroke-linecap="round"/>
<path d="M4070.69 327.691C4074.59 332.441 4084.73 343.569 4094.1 350.083" stroke="black" stroke-width="5" stroke-linecap="round"/>
<path d="M4074.76 307.334C4080.19 314.027 4094.3 329.708 4107.33 338.887" stroke="black" stroke-width="5" stroke-linecap="round"/>
<path d="M4111.4 262.549C4116.83 269.242 4130.94 284.923 4143.97 294.102" stroke="black" stroke-width="5" stroke-linecap="round"/>
<path d="M4078.83 286.977C4086.12 295.398 4105.09 315.125 4122.6 326.673" stroke="black" stroke-width="5" stroke-linecap="round"/>
<path d="M4090.02 269.674C4098.17 279.174 4118.32 299.395 4137.86 312.423" stroke="black" stroke-width="5" stroke-linecap="round"/>
<path d="M4163.31 501.233C4170.09 502.081 4184.79 500.215 4189.26 485.965" stroke="black" stroke-width="5" stroke-linecap="round"/>
<path d="M4012.46 187.907C4012.89 187.393 4013.53 187.126 4014.2 187.187C4035.68 189.175 4068.31 186.422 4072.22 170.327C4076.2 153.967 4061.01 147.984 4052.92 147.037C4022.21 142.224 3981.54 144.466 3981.27 170.073" stroke="black" stroke-width="5" stroke-linecap="round"/>
<path d="M4007.07 172.47C4009.04 172.47 4010.63 170.875 4010.63 168.908C4010.63 166.94 4009.04 165.345 4007.07 165.345C4005.1 165.345 4003.51 166.94 4003.51 168.908C4003.51 170.875 4005.1 172.47 4007.07 172.47Z" fill="black"/>
<path d="M4030.99 168.908C4030.99 170.638 4029.61 172.47 4027.43 172.47C4025.25 172.47 4023.86 170.638 4023.86 168.908C4023.86 167.178 4025.25 165.345 4027.43 165.345C4029.61 165.345 4030.99 167.178 4030.99 168.908Z" fill="black"/>
<path d="M4048.8 172.47C4050.77 172.47 4052.36 170.875 4052.36 168.908C4052.36 166.94 4050.77 165.345 4048.8 165.345C4046.83 165.345 4045.24 166.94 4045.24 168.908C4045.24 170.875 4046.83 172.47 4048.8 172.47Z" fill="black"/>
<path d="M4384.39 221.285C4384.24 221.802 4384.3 222.351 4384.56 222.823C4393.04 238.264 4401.61 263.629 4390.82 271.8C4379.86 280.101 4370.43 270.669 4367.09 264.916C4353.52 243.503 4341.97 212.344 4360.98 203.775" stroke="black" stroke-width="5" stroke-linecap="round"/>
<path d="M4363.33 224.954C4363.97 226.428 4365.69 227.104 4367.16 226.464C4368.64 225.824 4369.31 224.11 4368.67 222.637C4368.03 221.163 4366.32 220.487 4364.84 221.127C4363.37 221.767 4362.69 223.48 4363.33 224.954Z" fill="black"/>
<path d="M4373.78 241.714C4372.49 242.277 4370.67 241.838 4369.96 240.204C4369.25 238.571 4370.17 236.94 4371.47 236.377C4372.76 235.814 4374.58 236.253 4375.29 237.887C4376 239.52 4375.08 241.152 4373.78 241.714Z" fill="black"/>
<path d="M4376.91 256.217C4377.55 257.691 4379.26 258.367 4380.74 257.727C4382.21 257.087 4382.89 255.373 4382.25 253.899C4381.61 252.426 4379.89 251.75 4378.42 252.389C4376.95 253.029 4376.27 254.743 4376.91 256.217Z" fill="black"/>
<path d="M4227.35 237.879C4227.84 237.521 4228.13 236.968 4228.17 236.366C4229.03 221.295 4234.22 199.168 4245.56 198.073C4257.14 196.956 4259.69 208.074 4259.52 213.773C4259.69 235.529 4254.02 263.494 4236.49 261.09" stroke="black" stroke-width="5" stroke-linecap="round"/>
<path d="M4244.13 244.209C4244.34 242.818 4243.37 241.526 4241.98 241.322C4240.59 241.118 4239.3 242.081 4239.1 243.471C4238.89 244.862 4239.86 246.154 4241.25 246.358C4242.64 246.561 4243.93 245.599 4244.13 244.209Z" fill="black"/>
<path d="M4244.05 227.223C4245.27 227.402 4246.42 228.569 4246.2 230.11C4245.97 231.651 4244.53 232.438 4243.31 232.258C4242.09 232.079 4240.94 230.913 4241.16 229.372C4241.39 227.831 4242.83 227.044 4244.05 227.223Z" fill="black"/>
<path d="M4248.26 216.01C4248.47 214.62 4247.51 213.328 4246.12 213.124C4244.72 212.92 4243.43 213.882 4243.23 215.273C4243.03 216.663 4243.99 217.956 4245.38 218.159C4246.77 218.363 4248.06 217.401 4248.26 216.01Z" fill="black"/>
<path d="M4271.4 325.162C4263.74 322.726 4262.73 329.286 4263.34 334.421C4263.44 335.316 4262.41 336.042 4261.61 335.643C4257.91 333.821 4252.71 332.528 4251.04 336.867C4249.08 341.959 4262.05 347.775 4269.53 350.323C4270.01 350.489 4270.54 350.241 4270.75 349.77C4277.99 332.885 4274.24 326.33 4271.4 325.162Z" fill="black"/>
<path d="M4171.65 113.451C4164 111.015 4162.98 117.575 4163.59 122.71C4163.7 123.605 4162.66 124.331 4161.86 123.932C4158.17 122.11 4152.96 120.817 4151.29 125.156C4149.34 130.249 4162.3 136.064 4169.78 138.612C4170.26 138.778 4170.8 138.531 4171 138.059C4178.25 121.174 4174.49 114.619 4171.65 113.451Z" fill="black"/>
<path d="M4338.38 333.289L4415.22 320.566" stroke="black" stroke-width="5" stroke-linecap="round"/>
<path d="M4297.66 188.247L4372.98 130.23" stroke="black" stroke-width="5" stroke-linecap="round"/>
<path d="M4172.47 223.871L4204.53 135.319" stroke="black" stroke-width="5" stroke-linecap="round"/>
<path d="M4117.51 174.506L4111.4 126.159" stroke="black" stroke-width="5" stroke-linecap="round"/>
<path d="M4832.13 78.8496L4831.25 79.6312C4829.89 80.8414 4827.69 79.7422 4827.69 77.9207C4827.7 73.388 4826.98 69.1276 4824.29 71.5262C4819.58 75.711 4816.96 91.4029 4813.82 85.1262C4810.69 78.8496 4809.64 77.2808 4803.36 83.0343C4797.09 88.7879 4799.18 78.8485 4796.04 80.9414C4794.23 82.1497 4789.04 85.6093 4784.72 88.4902C4783.19 89.5098 4781.22 88.1095 4781.72 86.341C4788.79 61.3981 4804.23 21.2017 4825.33 27.0626C4845.21 34.909 4834.75 132.728 4854.1 107.619C4864.18 94.5422 4865.61 44.6386 4882.35 52.1712C4911.39 61.8517 4903.71 144.481 4940.03 226.107C4940.85 227.958 4944.26 227.533 4945.7 226.105C4947 224.809 4948.85 224.224 4951.4 225.317C4958.72 228.455 4955.58 231.594 4962.38 225.317C4969.18 219.039 4968.66 234.732 4972.85 226.886C4977.03 219.039 4972.85 208.054 4983.31 215.901C4993.77 223.747 4995.86 228.455 4997.43 221.132C4999 213.808 4999 214.855 5003.19 217.993C5007.21 221.008 5007.85 224.506 5011.14 218.748C5011.41 218.273 5011.47 217.721 5011.3 217.201C5002.99 191.637 4985.34 132.207 4979.12 92.4498C4972.85 52.2759 4960.81 40.8375 4955.58 40.14C4943.2 39.4425 4912.27 40.0354 4887.58 47.9865" stroke="black" stroke-width="5" stroke-linecap="round"/>
<path d="M5160.21 329.413C5116.28 345.554 5066.42 400.864 5196.73 481.111" stroke="black" stroke-width="5" stroke-linecap="round"/>
<path d="M5269.31 322.599C5298.55 318.666 5375.62 336.363 5336.57 416.495C5331.86 426.163 5314.73 445.205 5283.93 444.025C5244.45 442.513 5223.17 482.699 5210.33 502.035" stroke="black" stroke-width="5" stroke-linecap="round"/>
<path d="M5281.47 354.522C5254.6 374.822 5202.44 440.863 5208.77 542.627C5215.1 644.39 5215.69 658.371 5215.2 652.64" stroke="black" stroke-width="5" stroke-linecap="round"/>
<path d="M5242.76 461.234V544.93" stroke="black" stroke-width="5" stroke-linecap="round"/>
<path d="M5181.04 471.696V551.207" stroke="black" stroke-width="5" stroke-linecap="round"/>
<path d="M5197.78 479.019C5195.96 451.467 5186.1 376.488 5161.16 296.981" stroke="black" stroke-width="5" stroke-linecap="round"/>
<path d="M5251.15 381.723C5250.82 367.66 5254.49 334.59 5271.85 314.806C5293.56 290.076 5295.98 270.566 5295.98 224.5" stroke="black" stroke-width="5" stroke-linecap="round"/>
<path d="M5243.48 242.709C5251.69 241.239 5265.63 231.44 5255.79 204" stroke="black" stroke-width="5" stroke-linecap="round"/>
<path d="M5124.54 199.685C5124.86 205.243 5128.02 216.582 5138.14 217.47" stroke="black" stroke-width="5" stroke-linecap="round"/>
<path d="M5138.14 242.579C5118.33 231.464 5086.52 204.159 5117.83 183.853C5122.13 180.867 5132.2 179.076 5138.14 195.797" stroke="black" stroke-width="5" stroke-linecap="round"/>
<path d="M5153.6 60.3219C5043.01 71.7676 5076.8 155.209 5107.52 195.5C5113.79 181.686 5126.14 181.193 5131.54 182.672C5136.64 104.921 5185.29 115.413 5208.99 130.377C5258.4 128.404 5270.75 147.974 5270.75 158.005C5292.17 144.558 5310.31 160.345 5311.78 163.799C5366.68 2.76973 5228.76 28.2542 5153.6 60.3219Z" fill="black"/>
<path d="M5208.76 207.008C5213.67 207.008 5217.66 202.793 5217.66 197.593C5217.66 192.392 5213.67 188.177 5208.76 188.177C5203.85 188.177 5199.87 192.392 5199.87 197.593C5199.87 202.793 5203.85 207.008 5208.76 207.008Z" fill="black"/>
<path d="M5285.78 204.227C5289.8 205.854 5294.64 203.267 5296.59 198.447C5298.55 193.628 5296.87 188.401 5292.86 186.774C5288.84 185.146 5284 187.734 5282.05 192.553C5280.1 197.372 5281.77 202.599 5285.78 204.227Z" fill="black"/>
<path d="M5251.13 190.269H5233.35" stroke="black" stroke-width="5" stroke-linecap="round"/>
<path d="M5169.48 188.5L5136.05 190.269" stroke="black" stroke-width="5" stroke-linecap="round"/>
<path d="M5168.14 180L5131.14 182" stroke="black" stroke-width="5" stroke-linecap="round"/>
<path d="M5117.22 364.984C5014.55 421.593 4895.76 572.459 5065.61 755.215" stroke="black" stroke-width="5" stroke-linecap="round"/>
<path d="M5104.67 667.334C5085.86 636.671 5085.53 630.946 5083.74 592.008" stroke="black" stroke-width="5" stroke-linecap="round"/>
<path d="M5392.37 477.973C5376.72 526.614 5380.34 582.294 5384.42 637.518" stroke="black" stroke-width="5" stroke-linecap="round"/>
<path d="M5258.46 281.288C5252.57 274.973 5235.75 266.13 5215.56 281.288" stroke="black" stroke-width="5" stroke-linecap="round"/>
<path d="M5401.79 436.125C5398.7 429.101 5372.56 373.21 5345.29 358.706" stroke="black" stroke-width="5" stroke-linecap="round"/>
<path d="M4805.98 407.878L4803.36 393.754L4871.37 370.215L4873.98 379.107L4911.64 367.076L4913.74 372.307L4805.98 407.878Z" fill="black"/>
<path d="M4781.27 595.02C4752.86 537.523 4726.38 402.857 4715.98 338.287C4715.74 336.824 4717.14 335.681 4718.55 336.12L4729.26 339.442C4730.09 339.7 4730.99 339.392 4731.49 338.679L4737.01 330.793C4737.57 329.996 4738.62 329.716 4739.5 330.13L4744.85 332.647C4745.92 333.154 4747.2 332.612 4747.59 331.484L4752.61 316.822C4753.09 315.406 4754.9 315.004 4755.94 316.084L4765.02 325.526C4765.91 326.448 4767.42 326.313 4768.13 325.25L4770.02 322.413C4770.55 321.618 4771.57 321.309 4772.45 321.677L4775.31 322.87C4776.35 323.302 4777.54 322.794 4777.95 321.746L4781.18 313.405C4781.88 311.577 4784.52 311.747 4784.97 313.654C4802.68 388.947 4816.55 482.471 4841.96 566.625C4842.51 568.441 4840.46 569.942 4838.89 568.867L4838.4 568.53C4837.08 567.618 4835.27 568.568 4835.27 570.178V570.741C4835.27 572.284 4833.6 573.246 4832.26 572.468L4818.88 564.663C4817.69 563.967 4816.17 564.66 4815.91 566.016L4814.74 572.172C4814.52 573.29 4813.42 574.005 4812.32 573.745L4807.33 572.573C4806.29 572.326 4805.23 572.954 4804.95 573.993L4803.02 581.075C4802.67 582.358 4801.18 582.949 4800.05 582.257L4792.51 577.667C4791.38 576.984 4789.92 577.55 4789.55 578.809L4784.87 594.65C4784.36 596.366 4782.06 596.624 4781.27 595.02Z" stroke="black" stroke-width="5" stroke-linecap="round"/>
<path d="M4738.5 358.183C4740.59 365.681 4743.73 380.886 4739.54 381.723C4734.31 382.769 4736.41 368.645 4746.34 363.414C4756.28 358.183 4748.44 375.969 4755.24 374.399C4762.04 372.83 4770.41 352.429 4765.7 352.429C4760.99 352.429 4758.38 373.876 4770.93 373.353C4783.48 372.83 4779.82 349.814 4777.21 353.998C4774.59 358.183 4777.73 368.122 4787.15 370.738" stroke="black" stroke-width="3" stroke-linecap="round"/>
<path d="M4783.48 545.976C4783.31 551.032 4785.05 558.112 4793.42 545.976C4795.52 543.36 4795.2 540.222 4791.85 542.314C4787.67 544.93 4793.42 553.299 4800.22 549.637C4807.02 545.976 4815.92 536.037 4809.64 537.083C4803.36 538.129 4807.55 547.545 4815.39 544.406" stroke="black" stroke-width="3" stroke-linecap="round"/>
<path d="M4772.5 524.528C4779.65 523.831 4795.31 521.076 4800.75 515.636" stroke="black" stroke-width="3" stroke-linecap="round"/>
<path d="M4777.21 508.312C4782.79 507.615 4794.78 505.592 4798.13 503.081" stroke="black" stroke-width="3" stroke-linecap="round"/>
<path d="M4805.45 501.512V493.666" stroke="black" stroke-width="3" stroke-linecap="round"/>
<path d="M4811.21 501.512V493.143" stroke="black" stroke-width="3" stroke-linecap="round"/>
<path d="M4761.51 470.126C4771.98 467.685 4793.63 462.384 4796.56 460.71" stroke="black" stroke-width="3" stroke-linecap="round"/>
<path d="M4751.05 436.648C4759.77 434.904 4779.51 430.266 4788.72 425.663" stroke="black" stroke-width="3" stroke-linecap="round"/>
<path d="M4748.96 429.848C4758.38 429.848 4778.04 424.407 4785.58 419.386" stroke="black" stroke-width="3" stroke-linecap="round"/>
<path d="M4815.92 451.818L4924.63 414.745C4927.27 413.845 4928.66 410.96 4927.73 408.334L4913.21 367.599" stroke="black" stroke-width="5" stroke-linecap="round"/>
<path d="M4798.65 371.784L4864.56 350.337" stroke="black" stroke-width="5" stroke-linecap="round"/>
<path d="M4871.96 373.794L4851.41 308.027C4850.58 305.393 4852.05 302.589 4854.69 301.764L4958.69 269.171C4961.32 268.35 4964.11 269.797 4964.95 272.411L4985.95 337.708C4986.8 340.346 4985.34 343.17 4982.7 344.006L4878.24 377.07C4875.6 377.905 4872.79 376.437 4871.96 373.794Z" stroke="black" stroke-width="5" stroke-linecap="round"/>
<path d="M4813.82 424.093C4816.09 420.955 4821.57 414.887 4825.33 415.724C4830.04 416.77 4831.61 416.77 4836.32 411.016C4841.03 405.262 4842.07 415.201 4849.92 411.016C4857.76 406.831 4866.13 398.985 4870.32 403.169C4873.67 406.517 4877.29 401.775 4878.69 398.985" stroke="black" stroke-width="3" stroke-linecap="round"/>
<path d="M4873.4 344.12C4872.61 341.459 4871.55 338.108 4870.59 335.599C4870 334.052 4871.01 331.254 4872.58 330.718L4886.78 325.859C4887.81 325.508 4888.93 326.04 4889.3 327.057L4893.15 337.429C4893.54 338.483 4892.98 339.652 4891.92 340.015L4875.98 345.467C4874.9 345.839 4873.72 345.222 4873.4 344.12Z" stroke="black" stroke-width="3"/>
<path d="M4948.26 344.583L4951.4 329.413" stroke="black" stroke-width="3" stroke-linecap="round"/>
<path d="M4955.58 335.689C4958.72 334.119 4965 337.783 4961.34 339.351C4959.89 339.968 4955.06 332.027 4969.18 332.55" stroke="black" stroke-width="3" stroke-linecap="round"/>
<path d="M4931.52 341.992C4934.66 340.422 4940.94 344.086 4937.28 345.654C4935.83 346.271 4931 338.33 4945.12 338.853" stroke="black" stroke-width="3" stroke-linecap="round"/>
<path d="M4820.62 26.0143C4836.32 20.7833 4871.89 11.3643 4888.63 15.5523C4897.52 17.7774 4906.76 36.1277 4905.37 43.7999" stroke="black" stroke-width="5" stroke-linecap="round"/>
<path d="M4842.59 32.2934C4855.67 32.2932 4875.24 23.4007 4880.26 25.4931" stroke="black" stroke-width="3" stroke-linecap="round"/>
<path d="M4843.12 38.571C4849.05 38.571 4862.37 37.4202 4868.23 32.8169" stroke="black" stroke-width="3" stroke-linecap="round"/>
<path d="M4912.69 69.9567C4926.46 68.7362 4954.96 65.8765 4958.72 64.2026" stroke="black" stroke-width="3" stroke-linecap="round"/>
<path d="M4916.35 77.803C4928.21 75.7106 4954.22 71.6304 4963.43 72.0489" stroke="black" stroke-width="3" stroke-linecap="round"/>
<path d="M4917.92 102.911C4928.91 104.481 4955.16 95.9018 4957.68 97.1572" stroke="black" stroke-width="3" stroke-linecap="round"/>
<path d="M4918.44 110.76C4934.66 110.759 4954.54 99.2502 4968.66 101.868" stroke="black" stroke-width="3" stroke-linecap="round"/>
<path d="M5463.02 83.6599L5465.61 74.4097C5465.9 73.3818 5466.95 72.7611 5467.99 72.9994L5557.54 93.5123C5558.72 93.7818 5559.39 95.0244 5558.97 96.1564L5555.15 106.473C5554.8 107.426 5553.79 107.962 5552.8 107.721L5464.47 86.142C5463.38 85.8736 5462.72 84.7487 5463.02 83.6599Z" fill="black"/>
<path d="M5473.97 55.312L5562.83 74.4584C5565.87 75.1129 5567.58 78.351 5566.41 81.2297L5538.39 150.125C5537.45 152.445 5534.93 153.709 5532.51 153.082L5445.73 130.638" stroke="black" stroke-width="5" stroke-linecap="round"/>
<path d="M5481.82 28.6344C5473.88 38.2414 5451.56 115.181 5436.92 149.279C5436.86 149.41 5436.79 149.536 5436.7 149.651C5428.98 160.333 5427.92 149.432 5424.28 142.669C5420.62 135.868 5404.92 151.039 5398.12 153.131C5391.32 155.224 5399.17 139.531 5388.71 142.669C5378.25 145.808 5378.25 141.623 5377.72 137.438C5377.4 134.816 5371.06 137.157 5365.89 139.636C5364.35 140.375 5362.57 139.044 5362.94 137.377C5373.27 91.0357 5397.44 34.6587 5409.56 9.49354C5410.12 8.31958 5411.64 8.04312 5412.8 8.63339C5418.28 11.4173 5421.65 5.45901 5426.89 3.52596C5436.83 -0.13663 5430.03 16.6034 5438.93 14.5107C5447.82 12.418 5449.39 14.5107 5450.43 16.6034C5451.48 18.6961 5456.19 17.6493 5461.94 11.3721C5467.7 5.09497 5470.31 6.14116 5471.36 14.5107C5472.4 22.8803 5479.2 13.9876 5482.87 17.6493C5485.8 20.5787 5483.39 26.1932 5481.82 28.6344Z" stroke="black" stroke-width="5" stroke-linecap="round"/>
<path d="M5391.85 95.5903C5408.59 100.821 5441.23 99.0428 5444.16 102.391" stroke="black" stroke-width="3" stroke-linecap="round"/>
<path d="M5415.39 107.622C5418.53 106.924 5426.06 105.948 5431.08 107.622" stroke="black" stroke-width="3" stroke-linecap="round"/>
<path d="M5401.26 67.3433L5435.79 69.9588" stroke="black" stroke-width="3" stroke-linecap="round"/>
<path d="M5407.02 58.4507C5418.7 59.3225 5443.63 61.5893 5449.91 63.6817" stroke="black" stroke-width="3" stroke-linecap="round"/>
<path d="M5412.25 119.13L5417.48 114.945" stroke="black" stroke-width="3" stroke-linecap="round"/>
<path d="M5424.8 115.991L5422.71 121.745" stroke="black" stroke-width="3" stroke-linecap="round"/>
<path d="M5431.08 118.084L5430.56 121.746" stroke="black" stroke-width="3" stroke-linecap="round"/>
<path d="M5437.36 117.561V121.222" stroke="black" stroke-width="3" stroke-linecap="round"/>
<path d="M5415.91 28.1109C5412.77 31.4239 5407.65 37.7359 5412.25 36.4805C5417.52 35.0423 5426.75 27.4536 5427.45 35.0528C5427.57 36.3181 5426.01 37.3943 5425.29 36.3515C5424.75 35.5779 5425.67 34.6359 5430.56 33.865C5440.5 32.2957 5432.13 37.5267 5441.54 36.4805C5450.96 35.4343 5457.76 22.3568 5454.1 26.0185C5450.43 29.6802 5446.25 39.6188 5456.19 39.0957C5466.13 38.5726 5467.7 26.5413 5464.56 32.8185C5461.42 39.0957 5464.56 38.5726 5464.56 40.665" stroke="black" stroke-width="3" stroke-linecap="round"/>
<path d="M5456.19 101.868C5458.11 100.822 5463.72 100.508 5470.83 107.622C5479.73 116.514 5492.28 105.006 5495.94 110.237C5499.61 115.468 5499.08 115.991 5503.79 114.422" stroke="black" stroke-width="3" stroke-linecap="round"/>
<path d="M5405.94 722.497L5407.17 713.85C5407.38 712.372 5408.65 711.274 5410.14 711.274H5522.82C5524.65 711.274 5526.05 712.891 5525.79 714.699L5524.56 723.345C5524.35 724.823 5523.08 725.921 5521.59 725.921H5408.91C5407.08 725.921 5405.68 724.304 5405.94 722.497Z" fill="black"/>
<path d="M5527.96 695.81L5518.76 770.367C5518.58 771.871 5517.3 773 5515.78 773H5402.08C5400.27 773 5398.87 771.396 5399.11 769.595L5409.28 695.038C5409.48 693.551 5410.75 692.443 5412.25 692.443H5524.98C5526.79 692.443 5528.18 694.021 5527.96 695.81Z" stroke="black" stroke-width="3" stroke-linecap="round"/>
<path d="M5412.77 745.276C5416.26 742.137 5424.49 736.802 5429.51 740.568C5435.79 745.276 5440.5 736.906 5446.25 742.137C5452 747.368 5467.17 735.86 5473.45 742.137C5478.47 747.159 5483.91 744.23 5486 742.137" stroke="black" stroke-width="3" stroke-linecap="round"/>
<path d="M5430.03 690.873L5436.06 646.857C5436.47 643.854 5434.13 641.179 5431.1 641.179H5322.43C5319.94 641.179 5317.83 643.014 5317.48 645.481L5307.4 716.992C5306.97 720.033 5309.36 722.738 5312.43 722.689L5404.92 721.213" stroke="black" stroke-width="5" stroke-linecap="round"/>
<path d="M5323.06 689.168L5324.16 679.567C5324.28 678.558 5325.13 677.796 5326.15 677.796H5342.87C5344.13 677.796 5345.07 678.941 5344.83 680.174L5342.99 689.775C5342.81 690.716 5341.98 691.397 5341.02 691.397H5325.04C5323.85 691.397 5322.92 690.355 5323.06 689.168Z" stroke="black" stroke-width="3" stroke-linecap="round"/>
<path d="M5387.14 711.275L5397.08 698.72" stroke="black" stroke-width="3" stroke-linecap="round"/>
<path d="M5368.83 706.043C5370.4 704.3 5374.48 701.335 5378.25 703.428C5382.95 706.043 5381.91 711.274 5376.68 710.228C5371.45 709.182 5376.15 702.382 5387.14 705.52" stroke="black" stroke-width="3" stroke-linecap="round"/>
<path d="M5399.17 705.52C5400.74 706.915 5404.51 708.659 5407.02 704.474" stroke="black" stroke-width="3" stroke-linecap="round"/>
<path d="M5480.37 400.554C5477.52 404.457 5478.11 414.525 5503.27 423.571" stroke="black" stroke-width="5" stroke-linecap="round"/>
<path d="M5510.94 394.277C5503.48 394.256 5496.25 393.766 5479.31 388.246C5475.32 386.99 5472.56 383.87 5471.68 382.467C5468.52 376.985 5474.82 372.143 5480.49 372.311C5486.67 372.497 5498.78 373.238 5513.21 374.868" stroke="black" stroke-width="5" stroke-linecap="round"/>
<path d="M5510.59 394.048C5503.13 394.026 5495.9 393.535 5478.95 388C5475.08 389.398 5474.58 396.053 5480.7 400.207C5484.57 402.84 5491.57 406.07 5503.13 409.97" stroke="black" stroke-width="5" stroke-linecap="round"/>
<path d="M5382.43 599.855C5412.42 624.091 5469.97 622.327 5493.85 559.053C5514.78 503.605 5522.1 455.654 5523.14 432.986" stroke="black" stroke-width="5" stroke-linecap="round"/>
<path d="M5408.59 554.868C5409.11 551.73 5419.57 507.266 5436.31 490.527" stroke="black" stroke-width="5" stroke-linecap="round"/>
<path d="M5522.62 428.802C5526.98 416.945 5533.08 389.36 5522.62 373.876" stroke="black" stroke-width="5" stroke-linecap="round"/>
<path d="M5490.71 419.387L5488.8 477.182C5488.72 479.556 5486.05 480.901 5484.1 479.549L5483.96 479.453C5482.73 478.604 5481.07 478.785 5480.05 479.879L5477.07 483.093C5475.94 484.309 5474.03 484.377 5472.82 483.245L5469.15 479.824C5468.03 478.773 5466.29 478.745 5465.13 479.759L5460.21 484.067C5459.35 484.82 5458.13 485.019 5457.08 484.579L5447.83 480.725C5446.85 480.317 5445.73 480.457 5444.88 481.095L5436 487.75C5434.71 488.717 5432.89 488.493 5431.87 487.242L5428.85 483.516C5427.78 482.201 5425.83 482.031 5424.55 483.141L5422.94 484.536C5421.21 486.043 5418.51 485.186 5418.14 482.916C5405.02 403.212 5432.25 200.973 5534.65 216.948C5552.26 219.563 5585.92 241.847 5579.64 310.059C5573.5 376.801 5588.56 395.901 5597.37 397.346C5597.75 397.408 5598.17 397.56 5598.51 397.38C5599.3 396.961 5600.43 394.959 5601.09 389.046C5602.12 379.72 5608.8 321.121 5632.83 350.009C5633.26 350.531 5633.52 351.23 5633.52 351.909V422.574C5633.52 424.755 5635.77 426.207 5637.76 425.305L5643.72 422.594C5644.55 422.219 5645.5 422.237 5646.31 422.642L5653.97 426.473C5654.91 426.944 5656.03 426.886 5656.92 426.321L5675.99 414.189C5677.38 413.302 5679.23 413.709 5680.12 415.098L5686.35 424.786C5687.22 426.149 5689.03 426.57 5690.41 425.736L5698.73 420.748C5699.94 420.02 5701.52 420.502 5702.12 421.785V421.785C5703.03 423.743 5705.83 423.571 5706.43 421.496C5712.62 400.062 5719.48 361.703 5707.28 343.014C5703.18 336.737 5645.55 331.331 5623.06 338.306" stroke="black" stroke-width="5" stroke-linecap="round"/>
<path d="M5535.18 216.424C5559.06 216.773 5614.22 215.559 5631.95 228.455C5660.72 249.379 5644.5 322.09 5654.44 334.121" stroke="black" stroke-width="5" stroke-linecap="round"/>
<path d="M5497.51 361.322C5502.57 330.11 5517.91 270.826 5569.18 244.148" stroke="black" stroke-width="5" stroke-linecap="round"/>
<path d="M5582.25 235.255C5593.94 235.255 5618.98 235.778 5625.67 237.871" stroke="black" stroke-width="3" stroke-linecap="round"/>
<path d="M5587.49 244.148C5607.89 244.148 5631.95 249.065 5634.04 247.81" stroke="black" stroke-width="3" stroke-linecap="round"/>
<path d="M5591.67 277.103L5636.13 278.672" stroke="black" stroke-width="3" stroke-linecap="round"/>
<path d="M5595.86 285.473C5604.57 286.519 5622.85 287.984 5626.2 285.473" stroke="black" stroke-width="3" stroke-linecap="round"/>
<path d="M5591.67 317.382L5629.86 318.951" stroke="black" stroke-width="3" stroke-linecap="round"/>
<path d="M5596.9 324.182C5602.31 324.88 5613.64 325.856 5615.73 324.182" stroke="black" stroke-width="3" stroke-linecap="round"/>
<path d="M5654.97 355.045C5656.01 363.938 5657.48 381.828 5654.97 382.246C5651.83 382.769 5664.38 362.368 5668.04 366.553C5671.7 370.738 5657.06 392.708 5674.32 382.246C5679.03 378.41 5687.19 369.169 5682.17 362.891C5675.89 355.045 5676.94 386.431 5680.6 382.246C5684.26 378.061 5694.72 359.23 5697.86 370.215C5701 381.2 5688.44 381.2 5692.63 377.015C5696.81 372.83 5702.04 370.215 5705.18 377.015" stroke="black" stroke-width="3" stroke-linecap="round"/>
<path d="M5174.48 217C5219.11 242.502 5232.92 201.119 5233.47 175.076C5233.49 173.94 5232.54 173.044 5231.4 173.098L5171.39 175.911C5170.32 175.961 5169.48 176.84 5169.48 177.908V189.5" stroke="black" stroke-width="5" stroke-linecap="round"/>
<path d="M5298.48 220.5C5258.57 227.8 5250.72 200.362 5250.49 175.072C5250.48 173.94 5251.42 173.04 5252.55 173.088L5307.43 175.413C5308.55 175.461 5309.42 176.429 5309.34 177.554L5308.48 189.5" stroke="black" stroke-width="5" stroke-linecap="round"/>
<path d="M6434.28 391.106C6445.93 379.418 6469.42 359.547 6470.15 373.573C6471.07 391.106 6448.08 436.322 6470.15 416.021C6492.23 395.72 6518.9 359.732 6520.74 373.573C6522.58 387.415 6525.34 391.106 6551.09 366.191" stroke="black" stroke-width="5" stroke-linecap="round"/>
<path d="M5987.34 591.003C5991.63 596.846 6005.38 608.223 6026.01 606.986" stroke="black" stroke-width="5" stroke-linecap="round"/>
<path d="M6246.15 616.782C6225.77 627.915 6166.12 638.468 6090.18 591.987C6089.75 591.724 6089.2 591.795 6088.88 592.184C6074.91 609.167 6033.01 645.816 5978.06 650.294C5962.08 651.596 5950.73 643.592 5969.29 636.889C5979.6 633.165 5987.34 630.702 5990.95 627.093" stroke="black" stroke-width="5" stroke-linecap="round"/>
<path d="M5961.04 641.529C5950.73 646.341 5937.33 649.572 5935.27 640.498C5932.69 629.155 5951.25 631.218 5958.47 625.546" stroke="black" stroke-width="5" stroke-linecap="round"/>
<path d="M5933.72 641.013C5916.19 646.169 5908.05 630.645 5923.41 622.968C5937.84 615.75 5950.22 618.328 5959.5 607.501" stroke="black" stroke-width="5" stroke-linecap="round"/>
<path d="M5918.25 626.576C5914.3 623.139 5909.59 614.306 5922.38 606.469C5938.36 596.673 6013.12 563.676 6003.84 537.382C6001.11 529.649 5986.31 530.166 5973.93 514.182C5964.74 502.311 5973.93 488.404 5985.28 496.137C5988.2 498.372 6006.21 510.058 6015.69 505.933C6027.52 500.79 6066.55 496.16 6094.38 531.457C6094.51 531.62 6094.68 531.741 6094.88 531.8C6117.71 538.501 6168.61 548.357 6192.02 534.805" stroke="black" stroke-width="5" stroke-linecap="round"/>
<path d="M6016.73 553.882C6023.08 559.897 6040.96 562.131 6052.3 551.304" stroke="black" stroke-width="5" stroke-linecap="round"/>
<path d="M6970.45 584.871C6966.15 590.714 6952.4 602.091 6931.78 600.854" stroke="black" stroke-width="5" stroke-linecap="round"/>
<path d="M6711.63 610.65C6732.01 621.784 6791.66 632.337 6867.6 585.855C6868.03 585.592 6868.59 585.664 6868.91 586.053C6882.88 603.036 6924.78 639.685 6979.73 644.162C6995.71 645.465 7007.05 637.46 6988.49 630.758C6978.18 627.034 6970.45 624.571 6966.84 620.962" stroke="black" stroke-width="5" stroke-linecap="round"/>
<path d="M6996.74 635.397C7007.05 640.209 7020.46 643.44 7022.52 634.366C7025.1 623.024 7006.54 625.086 6999.32 619.415" stroke="black" stroke-width="5" stroke-linecap="round"/>
<path d="M7024.07 634.882C7041.6 640.038 7049.73 624.514 7034.38 616.837C7019.94 609.619 7007.57 612.197 6998.29 601.37" stroke="black" stroke-width="5" stroke-linecap="round"/>
<path d="M7039.54 620.445C7043.49 617.008 7048.2 608.174 7035.41 600.337C7019.43 590.541 6944.67 557.545 6953.95 531.251C6956.68 523.518 6971.48 524.034 6983.85 508.051C6993.04 496.179 6983.85 482.272 6972.51 490.006C6969.59 492.24 6951.58 503.926 6942.09 499.802C6930.26 494.658 6891.24 490.028 6863.41 525.325C6863.28 525.488 6863.11 525.61 6862.91 525.668C6840.08 532.37 6789.17 542.226 6765.77 528.674" stroke="black" stroke-width="5" stroke-linecap="round"/>
<path d="M6941.06 547.75C6934.7 553.765 6916.83 555.999 6905.49 545.172" stroke="black" stroke-width="5" stroke-linecap="round"/>
<path d="M6423.73 179.36C6427.62 223.743 6447.54 302.019 6495.91 305.053C6546.86 308.248 6568.09 204.924 6568.09 178.294" stroke="black" stroke-width="5" stroke-linecap="round"/>
<path d="M6433.01 177.263L6418.57 175.201" stroke="black" stroke-width="5" stroke-linecap="round"/>
<path d="M6573.56 175.201C6589.2 179.133 6601.5 196.22 6563.97 228.821" stroke="black" stroke-width="5" stroke-linecap="round"/>
<path d="M6416.96 175.201C6403.33 176.988 6388.99 197.721 6430.95 228.821" stroke="black" stroke-width="5" stroke-linecap="round"/>
<ellipse cx="6459.82" cy="183.966" rx="9.2803" ry="8.76473" fill="black"/>
<circle cx="6530.45" cy="183.966" r="8.76473" fill="black"/>
<circle cx="6460.85" cy="183.45" r="29.4655" stroke="black" stroke-width="5"/>
<path d="M6558.37 183.45C6558.37 199.762 6545.37 212.916 6529.42 212.916C6513.47 212.916 6500.47 199.762 6500.47 183.45C6500.47 167.138 6513.47 153.985 6529.42 153.985C6545.37 153.985 6558.37 167.138 6558.37 183.45Z" stroke="black" stroke-width="5"/>
<path d="M6488.69 180.357H6501.07" stroke="black" stroke-width="5" stroke-linecap="round"/>
<path d="M6483.69 199.948C6481.01 214.814 6480.71 239.495 6507.25 225.904" stroke="black" stroke-width="5" stroke-linecap="round"/>
<path d="M6477.35 257.693C6483.02 254.58 6497.77 250.223 6511.38 257.693" stroke="black" stroke-width="5" stroke-linecap="round"/>
<path d="M6555.72 175.201H6573.25" stroke="black" stroke-width="5" stroke-linecap="round"/>
<path d="M6415.1 89.1269C6360.99 114.603 6386.21 159.187 6405.59 178.295C6408.97 175.747 6419.68 175.11 6424.61 175.11C6415.31 107.173 6450.32 89.1263 6465.82 84.8802C6509.15 77.4495 6558.81 89.1269 6567.27 123.096C6577.36 163.674 6577.68 177.233 6585.53 178.295C6615.36 154.517 6610.96 108.942 6605.04 89.1269C6612.77 66.9934 6595.5 47.0198 6585.53 34.9893C6575.57 22.9587 6548.24 1.02001 6499.64 3.14363C6403.47 12.6973 6409.81 72.1425 6415.1 89.1269Z" fill="black"/>
<path d="M6442.29 141.173C6446.67 140.395 6459.82 139.306 6477.35 141.173" stroke="black" stroke-width="5" stroke-linecap="round"/>
<path d="M6514.47 143.235C6518.6 141.679 6530.97 139.5 6547.47 143.235" stroke="black" stroke-width="5" stroke-linecap="round"/>
<path d="M6448.26 300.221C6346.18 293.003 6321.02 278.464 6247.19 455.408" stroke="black" stroke-width="5" stroke-linecap="round"/>
<path d="M6547.16 296.497C6634.81 311.963 6677.09 258.344 6734.83 435.186" stroke="black" stroke-width="5" stroke-linecap="round"/>
<path d="M6308.54 567.286C6297.69 619.107 6263.14 622.642 6245.95 617.71C6245.29 617.52 6245.07 616.695 6245.48 616.143C6284.54 563.659 6224.01 524.872 6192.99 534.987C6192.45 535.162 6191.86 534.859 6191.71 534.316C6185.89 513.564 6219.71 510.121 6222.95 481.702C6224.6 467.266 6226.56 459.88 6234.81 459.532C6271.42 457.985 6322.46 500.778 6308.54 567.286Z" stroke="black" stroke-width="5" stroke-linecap="round"/>
<path d="M6742.05 441.887C6750.72 482.192 6778.58 501.797 6768.17 528.681C6767.99 529.16 6767.43 529.412 6766.93 529.268C6701.36 510.119 6687.2 585.952 6714.1 609.288C6714.8 609.901 6714.44 611.108 6713.5 611.116C6668.97 611.515 6635.02 537.199 6645.12 508.911C6673.48 429.514 6739.06 427.967 6742.05 441.887Z" stroke="black" stroke-width="5" stroke-linecap="round"/>
<path d="M6658.01 573.358C6657.67 641.586 6658.94 712.666 6668.84 768.76" stroke="black" stroke-width="5" stroke-linecap="round"/>
<path d="M6310.6 561.1C6311.29 628.468 6309.26 705.769 6297.71 773" stroke="black" stroke-width="5" stroke-linecap="round"/>
<path d="M6537.8 321.656C6542.39 308.778 6538.19 300.111 6534.12 298.46C6509.59 320.255 6472.37 312.164 6458.59 298.955C6453.68 303.314 6456.54 316.208 6458.59 320.17C6485.16 348.701 6522.98 332.719 6537.8 321.656Z" fill="black"/>
</svg>
