<svg width="671" height="829" viewBox="0 0 671 829" fill="none" xmlns="http://www.w3.org/2000/svg">
<path d="M529.096 48.7467L515.847 144.51C515.697 145.59 516.44 146.591 517.516 146.76L618.258 162.635C619.475 162.826 620.574 161.884 620.57 160.652L620.106 23.6565C620.102 22.3262 618.824 21.371 617.547 21.7431L530.517 47.1006C529.76 47.3212 529.204 47.9658 529.096 48.7467Z" stroke="black" stroke-width="5"/>
<path d="M630.578 28.5L619.578 19.5L618.578 165L641.578 160.5L630.578 28.5Z" fill="black"/>
<path d="M630.578 31H643.97C644.955 31 645.793 31.7166 645.946 32.6893L665.221 155.252C665.41 156.451 664.497 157.54 663.284 157.563L640.406 158" stroke="black" stroke-width="5" stroke-linecap="round"/>
<path d="M572.578 34C574.646 24.5943 582.46 6.25348 597.165 8.13429C605.042 9.14186 609.578 18.2454 609.578 22.7131" stroke="black" stroke-width="5" stroke-linecap="round"/>
<path d="M552.578 40C554.88 28.7174 563.965 4.1828 580.926 3.03104C592.837 2.22222 596.887 17.4017 595.219 27.4838" stroke="black" stroke-width="5" stroke-linecap="round"/>
<path d="M193.578 596L211.578 598.536V640.743C211.578 641.386 210.979 641.862 210.353 641.717L194.353 638.026C193.899 637.922 193.578 637.518 193.578 637.052V596Z" fill="black"/>
<path d="M239.216 586L177.078 592L249.953 604L314.216 598L239.216 586Z" fill="black"/>
<path d="M159.578 591.168L251.191 605.047M159.578 591.168V721.45C159.578 721.67 159.721 721.863 159.931 721.928L251.191 750M159.578 591.168L236.078 586.5M251.191 605.047L341.09 597.541C341.361 597.518 341.6 597.716 341.629 597.987L355.031 725.062C355.058 725.312 354.894 725.543 354.649 725.601L251.191 750M251.191 605.047V750" stroke="black" stroke-width="5" stroke-linecap="round"/>
<path d="M349.547 798.509C339.147 812.109 375.547 828.509 395.547 824.009C373.547 812.009 375.714 802.509 376.547 798.509C371.881 792.843 359.947 784.909 349.547 798.509Z" fill="black"/>
<path d="M383.589 775.173C379.053 785.373 372.702 807.521 383.589 814.515C397.198 823.257 401.735 827.629 417.612 825.443C433.49 823.257 438.026 821.072 428.953 814.515C419.881 807.958 411.087 797.228 413.355 771" stroke="black" stroke-width="5" stroke-linecap="round"/>
<path d="M370.283 752.521C349.078 712 348.078 648.5 341.6 596.385C282.731 599.884 246.197 596.694 227.896 578.698C202.714 553.937 209.375 526.807 209.375 502.696C232.326 518.787 224.794 498 317.578 498C404.14 502.8 429.169 629 430.863 691.5C432.625 718.616 430.005 743.074 417.724 752.521C393.055 771.499 375.766 763 370.283 752.521Z" fill="black"/>
<path d="M313.518 347C338.193 300.653 319.221 280.913 307.611 272C308.983 307.098 285.849 325.952 273.577 330.772V342C275.748 339.155 302.611 340.806 313.518 347Z" fill="black"/>
<path d="M157.069 329.916C173.519 345.499 187.624 345.278 194.048 346C217.853 346 228.348 343.594 237.229 340.387L231.578 323.547C219.699 314.992 212.535 301.213 209.779 294.679C206.684 297.29 202.33 297.78 200.091 294.679C198.294 292.968 194.564 286.611 195.247 277.038C195.931 267.465 201.704 268.538 205.105 271.02L222.095 272.845C221.38 257.017 231.166 251.735 236.149 251.073C232.233 242.305 239.236 238.469 242.922 236.962C248.209 243.422 255.137 246.024 258.067 247.234C287.884 255.011 306.084 244.364 314.485 231.076C323.604 217.662 322.128 186.162 296.33 178.494C287.894 175.257 267.897 172.604 255.387 187.879C218.562 174.388 201.133 213.002 196.352 227.023L190.826 239.808C142.836 249.985 138.613 295.237 147.042 315.054C150.864 324.04 151.366 324.516 156.816 329.676L157.069 329.916Z" fill="black"/>
<path d="M220.935 273.661C222.947 285.017 232.809 292.471 242.666 290.754C252.523 289.037 259.233 278.696 257.22 267.339C255.209 255.983 245.347 248.529 235.49 250.246C225.633 251.963 218.923 262.304 220.935 273.661Z" stroke="black" stroke-width="5"/>
<path d="M273.877 273.661C275.562 285.017 283.825 292.471 292.083 290.754C300.342 289.037 305.964 278.696 304.278 267.339C302.593 255.983 294.33 248.529 286.071 250.246C277.813 251.963 272.191 262.304 273.877 273.661Z" stroke="black" stroke-width="5"/>
<path d="M271.578 270L257.578 272" stroke="black" stroke-width="5" stroke-linecap="round"/>
<path d="M271.578 315C268.487 319.794 260.759 323.311 254.578 315" stroke="black" stroke-width="5" stroke-linecap="round"/>
<path d="M265.578 287C269.848 296.273 271.211 300.909 267.121 304" stroke="black" stroke-width="5" stroke-linecap="round"/>
<path d="M295.226 286.488C292.208 287.018 289.332 285.002 288.802 281.984C288.272 278.966 290.288 276.09 293.306 275.56C296.324 275.03 299.2 277.046 299.73 280.064C300.26 283.082 298.243 285.958 295.226 286.488Z" fill="black"/>
<path d="M248.904 287.866C245.887 288.396 243.011 286.379 242.481 283.362C241.95 280.344 243.967 277.468 246.985 276.938C250.002 276.408 252.878 278.424 253.409 281.442C253.939 284.46 251.922 287.336 248.904 287.866Z" fill="black"/>
<path d="M203.31 281.854C203.845 282.577 205.078 284.245 205.735 285.132" stroke="black" stroke-width="5" stroke-linecap="round"/>
<path d="M298.607 244C311.57 271.416 312.979 293.746 285.946 321.71C258.913 349.675 229.934 323.448 218.824 306.838L211.578 296.072" stroke="black" stroke-width="5" stroke-linecap="round"/>
<path d="M219.474 270.54L207.508 270.944" stroke="black" stroke-width="5" stroke-linecap="round"/>
<path d="M349.589 411C358.762 421.595 369.667 460.855 341.578 488" stroke="black" stroke-width="5" stroke-linecap="round"/>
<path d="M334.078 378.5C334.078 350.5 297.446 339.657 274.007 343.763C267.2 348.846 249.827 355.963 234.797 343.763C223.088 345.103 197.71 351.314 189.868 365.444C169.99 398.36 159.643 485.066 222.543 508.349" stroke="black" stroke-width="5" stroke-linecap="round"/>
<path d="M223.578 411C231.602 423.532 234.341 442.401 233.648 454.317C233.625 454.716 234.086 454.966 234.407 454.727C252.569 441.188 294.016 443.726 303.688 450.748C311.546 456.453 305.82 464.215 301.18 469.17C288.393 482.815 268.805 496.045 256.078 502" stroke="black" stroke-width="5" stroke-linecap="round"/>
<path d="M353.282 390.356C359.999 394.421 354.821 413.287 352.022 420.843L349.586 419.987L350.267 417.029L350.04 414.069C348.781 410.943 341.512 408.598 337.313 414.069C333.208 419.419 327.995 424.003 325.151 425.142C314.067 431.083 316.054 421.364 318.434 415.762C319.833 413.156 323.808 404.271 325.151 395.828C326.495 387.386 332.288 386.448 335.648 386.057C338.726 385.797 346.564 386.292 353.282 390.356Z" fill="black"/>
<path d="M333.578 380.087C336.08 379.717 339.104 380.467 340.878 383.569C341.261 384.239 341.511 385.042 341.578 386" stroke="black" stroke-width="5" stroke-linecap="round"/>
<path d="M321.311 414C318.834 412.306 317.704 409.766 315.58 405.441C313.458 399.605 312.229 396.217 310.911 391.332C310.628 389.765 309.614 385.506 313.458 385.062C316.854 384.67 317.279 387.413 317.704 389.373C318.977 396.217 324.614 394.993 324.614 390.29C324.614 385.586 324.614 381.822 323.175 376.182C322.417 373.21 320.482 367 327.444 367C332.445 367 332.841 371.582 333.578 379.42" stroke="black" stroke-width="5" stroke-linecap="round"/>
<path d="M349.578 440C337.891 459.463 328.604 454.269 313.578 464" stroke="black" stroke-width="5" stroke-linecap="round"/>
<path d="M298.578 442C299.962 434.567 306.885 429.966 310 416.516C311.071 411.895 312.423 407.667 316.578 408.021" stroke="black" stroke-width="5" stroke-linecap="round"/>
<path d="M452.578 719.544C456.568 733.088 468.379 759.273 483.702 755.662C499.025 752.05 522.01 739.108 531.587 733.088C541.164 725.564 548.346 712.321 500.462 719.544C497.27 719.544 490.885 716.835 490.885 706" stroke="black" stroke-width="5" stroke-linecap="round"/>
<path d="M170.412 555.099C149.278 560.828 126.383 594.087 117.578 610C130.786 608.409 160.726 599.975 174.815 578.969C188.904 557.963 177.75 554.303 170.412 555.099Z" fill="black"/>
<path d="M160.853 499.153C139.656 501.326 124.411 554.486 117.578 579C132.762 566.393 162.675 541.178 169.964 532.773C183.63 517.014 181.352 497.052 160.853 499.153Z" fill="black"/>
<path d="M95.5511 482.157C84.0018 500.956 109.027 529.201 120.577 548C120.577 536.163 120.578 511.4 120.578 500.956C120.577 484.246 103.891 468.582 95.5511 482.157Z" fill="black"/>
<path d="M120.578 589C104.87 567.019 71.3134 528.919 62.7458 552.365C52.0362 581.673 118.436 589 120.578 589Z" fill="black"/>
<path d="M120.578 619L117.578 539" stroke="black" stroke-width="5" stroke-linecap="round"/>
<path d="M96.4033 685.147C101.812 672.198 109.862 638.968 111.545 623H134.257C135.267 642.68 145.613 670.905 150.661 685.147C165.801 718.811 152.764 740.389 143.09 746H106.498C82.5237 738.232 88.8321 703.274 96.4033 685.147Z" stroke="black" stroke-width="5"/>
<path d="M230.578 427C232.146 420.474 234.812 405.137 232.93 396" stroke="black" stroke-width="5" stroke-linecap="round"/>
<path d="M338.578 427C342.414 424.63 352.964 419.889 350.087 411" stroke="black" stroke-width="5" stroke-linecap="round"/>
<path d="M341.578 436C343.911 435.111 348.578 432 350.578 430" stroke="black" stroke-width="5" stroke-linecap="round"/>
<path d="M328.578 492.5C332.911 482.667 335.578 474.5 338.078 453.5" stroke="black" stroke-width="5" stroke-linecap="round"/>
<path d="M455.157 533.002C424.812 475.207 340.251 486.657 316.578 499.104C376.629 505.267 391.909 547.029 394.331 566.51C403.37 643.787 427.151 689.081 437.911 702.069C446.789 708.563 485.154 708.1 487.142 692.328C494.405 634.696 472.631 566.283 455.157 533.002Z" fill="black"/>
<path d="M515.665 789.071C517.123 779.581 487.124 783.223 469.9 786.595C468.41 786.886 467.052 787.842 466.812 789.34C466.307 792.499 467.884 795.494 469.414 797.396C470.13 798.285 471.224 798.73 472.363 798.789C487.23 799.56 514.197 798.619 515.665 789.071Z" fill="black"/>
<path d="M12.1948 114.352C5.91491 118.813 -2.54148 131.208 16.7641 137.552C31.4883 142.391 43.9752 139.944 48.2892 139.843" stroke="black" stroke-width="5" stroke-linecap="round"/>
<path d="M69.4533 144.094C47.5983 146.246 21.483 121.232 9.37223 106.355C8.5634 105.361 8.92481 103.891 10.0544 103.287C25.1667 95.1969 36.7067 79.2403 41.6144 70.4043C42.2217 69.311 43.6724 68.9929 44.6621 69.7576C80.0894 97.1296 85.6968 119.956 84.4916 128.56C84.4773 128.662 84.4558 128.754 84.4236 128.852C83.0659 133.004 78.3337 141.587 69.776 144.032C69.6707 144.063 69.5623 144.083 69.4533 144.094Z" stroke="black" stroke-width="5" stroke-linecap="round"/>
<ellipse cx="25.0951" cy="86.1375" rx="26.5" ry="5" transform="rotate(-45.978 25.0951 86.1375)" fill="black"/>
<path d="M610.646 336C602.48 364 587.446 422.6 592.646 433" stroke="black" stroke-width="5" stroke-linecap="round"/>
<path d="M595.927 343.657L609.114 335.415C609.955 334.889 611.054 335.059 611.697 335.814L620.949 346.676C621.596 347.435 622.704 347.602 623.546 347.066L655.078 327C660.078 323 659.995 319.371 658.078 317C654.76 312.897 645.274 311.393 638.983 311.457C638.138 311.466 637.416 312.04 637.173 312.849L634.858 320.565C634.681 321.155 634.235 321.635 633.658 321.85C616.912 328.074 606.246 324.092 602.076 318.699C601.741 318.264 601.649 317.697 601.775 317.163L603.056 311.717C603.333 310.542 602.516 309.39 601.311 309.32C592.729 308.819 579.078 309.955 579.078 318C579.078 326.208 588.068 337.665 593.47 343.362C594.111 344.037 595.137 344.15 595.927 343.657Z" fill="black"/>
<path d="M556.078 407C560.078 364.2 572.911 328.833 579.078 317C581.078 312.5 585.878 309.4 591.078 309C597.578 308.5 647.261 308.574 659.578 315C671.078 321 669.078 321 666.078 354.5C663.678 381.3 654.078 417 649.578 431.5C646.578 439.5 628.478 446.3 610.078 439.5C587.078 431 594.078 435.5 573.078 431.5C556.278 428.3 555.377 414.5 556.078 407Z" stroke="black" stroke-width="5"/>
<path d="M668.079 334.5C664.746 331 657.179 327.5 653.579 341.5C649.079 359 638.999 398.086 638.078 403C636.577 411 636.079 432 644.079 419.5C650.479 409.5 657.912 367.5 660.079 347.5" stroke="black" stroke-width="5" stroke-linecap="round"/>
<ellipse cx="614.147" cy="348.5" rx="2.50085" ry="4" transform="rotate(13.2587 614.147 348.5)" fill="black"/>
<ellipse cx="608.498" cy="368.967" rx="2.50085" ry="4" transform="rotate(13.2587 608.498 368.967)" fill="black"/>
<ellipse cx="603.498" cy="392.967" rx="2.50085" ry="4" transform="rotate(13.2587 603.498 392.967)" fill="black"/>
<ellipse cx="599.498" cy="417.967" rx="2.50085" ry="4" transform="rotate(13.2587 599.498 417.967)" fill="black"/>
<path d="M357.078 381L363.078 354.5" stroke="black" stroke-width="5" stroke-linecap="round"/>
<path d="M365.078 390L404.078 368.5" stroke="black" stroke-width="5" stroke-linecap="round"/>
<path d="M368.578 402H394.078" stroke="black" stroke-width="5" stroke-linecap="round"/>
<path d="M360.578 233.5C373.411 230.167 402.478 229 416.078 251C433.078 278.5 434.078 286.5 455.578 281.5" stroke="black" stroke-width="5" stroke-linecap="round"/>
<path d="M470.805 219.693C485.971 221.526 520.505 219.193 537.305 195.193C554.105 171.193 567.638 169.526 572.305 171.693" stroke="black" stroke-width="5" stroke-linecap="round"/>
<path d="M214.578 145C215.911 135 213.378 112.6 192.578 103" stroke="black" stroke-width="5" stroke-linecap="round"/>
<path d="M22.0776 290.5C24.2443 278.5 36.8776 255.3 70.0776 258.5C103.278 261.7 121.911 248.5 127.078 241.5" stroke="black" stroke-width="5" stroke-linecap="round"/>
<path d="M149.484 147C144.138 148.899 135.176 155.372 142.098 166.068C148.969 176.685 155.161 167.736 157.453 161.816C157.488 161.727 157.509 161.638 157.517 161.543C157.835 158.005 157.048 151.626 151.384 153.356C145.644 155.109 147.726 159.639 149.484 161.684" stroke="black" stroke-width="5" stroke-linecap="round"/>
<path d="M391.484 120C386.138 121.899 377.176 128.372 384.098 139.068C390.969 149.685 397.161 140.736 399.453 134.816C399.488 134.727 399.509 134.638 399.517 134.543C399.835 131.005 399.048 124.626 393.384 126.356C387.644 128.109 389.726 132.639 391.484 134.684" stroke="black" stroke-width="5" stroke-linecap="round"/>
</svg>
