<svg width="1204" height="770" viewBox="0 0 1204 770" fill="none" xmlns="http://www.w3.org/2000/svg">
<path d="M1103.5 454.974C1111.13 453.957 1127.52 448.155 1132 433.091" stroke="black" stroke-width="5" stroke-linecap="round"/>
<path d="M1078.56 442.76C1083.65 442.93 1095.36 440.419 1101.46 429.02" stroke="black" stroke-width="5" stroke-linecap="round"/>
<path d="M1055.66 424.439C1063.8 422.748 1081.51 417.481 1087.21 409.943" stroke="black" stroke-width="5" stroke-linecap="round"/>
<path d="M1129.31 480.567C1078.1 492.001 1030.37 441.002 1011.45 412.067C1010.75 410.983 1011.27 409.546 1012.5 409.135L1093.13 382.096C1093.87 381.848 1094.68 382.051 1095.22 382.608C1122.07 410.108 1172.01 422.207 1198.26 425.495C1200.08 425.723 1200.73 428.096 1199.25 429.187L1130.05 480.228C1129.83 480.391 1129.57 480.508 1129.31 480.567Z" stroke="black" stroke-width="5" stroke-linecap="round"/>
<path d="M747.489 309.45C705.903 307.729 660.56 329.58 652.83 335.378C646.467 340.15 647.355 347.253 648.665 350.426C648.726 350.574 648.808 350.71 648.906 350.836L725.007 449.261C725.067 449.338 725.119 449.418 725.169 449.501C726.773 452.195 731.621 455.467 738.838 447.849C750.192 435.864 798.422 405.467 859.835 405.981C861.728 405.997 862.659 403.615 861.226 402.379L802.453 351.657" stroke="black" stroke-width="5" stroke-linecap="round"/>
<path d="M568.858 394.494C588.706 383.726 592.778 407.726 603.465 405.69C617.22 403.07 594.304 374.137 572.421 372.61C554.914 371.389 520.341 398.905 505.243 412.815C477.762 439.476 390.635 468.759 261.98 372.61" stroke="black" stroke-width="5" stroke-linecap="round"/>
<path d="M247.625 195.579C262.225 151.824 248.559 123.721 239.901 115.139C268.247 141.486 303.407 137.134 317.443 131.665L316.401 152.407C338.308 160.03 350.935 130.757 354.512 115.167C360.028 91.1142 340.642 55.171 285.19 54.514C229.738 53.8581 190.444 90.6706 177.728 109.159C142.533 89.7812 95.3172 108.433 76.1089 120.182C56.2323 132.391 10.8772 172.815 21.7091 232.602C36.3232 313.264 125.822 315.431 141.437 311.562C195.391 298.192 229.374 250.274 247.625 195.579Z" fill="black"/>
<path d="M322.14 204.768C319.227 212.044 314.901 217.828 310.384 221.333C305.815 224.879 301.469 225.824 298.147 224.492C294.826 223.161 292.333 219.475 291.476 213.754C290.628 208.098 291.49 200.927 294.404 193.651C297.318 186.375 301.643 180.592 306.16 177.087C310.729 173.54 315.076 172.596 318.398 173.927C321.719 175.258 324.211 178.944 325.068 184.666C325.916 190.322 325.054 197.492 322.14 204.768Z" stroke="black" stroke-width="5"/>
<path d="M312.977 204.444C315.85 202.665 316.737 198.893 314.957 196.02C313.178 193.147 309.406 192.261 306.533 194.04C303.66 195.82 302.774 199.591 304.553 202.464C306.333 205.337 310.104 206.224 312.977 204.444Z" fill="black"/>
<path d="M249.197 191.944L292.045 196.915" stroke="black" stroke-width="5" stroke-linecap="round"/>
<path d="M321.132 154.573C322.981 162.598 329.747 180.783 338.621 192.174C347.698 203.824 345.918 215.493 336.792 222.03L322.537 232.34C317.455 280.976 300.054 313.739 238.443 316.236" stroke="black" stroke-width="5" stroke-linecap="round"/>
<path d="M155.776 359.872L197.554 379.51C198.911 380.148 200.435 379.085 200.324 377.579L197.166 334.99C197.049 333.411 198.716 332.35 200.08 333.135L229.426 350.039" stroke="black" stroke-width="5" stroke-linecap="round"/>
<path d="M219.452 316.167C222.302 319.052 226.579 323.844 230.956 329.588C236.965 337.472 243.161 347.152 246.112 356.156" stroke="black" stroke-width="5" stroke-linecap="round"/>
<path d="M233.862 383.153C236.564 382.358 237.98 379.085 237.025 375.843C236.07 372.601 233.106 370.618 230.405 371.414C227.704 372.209 226.287 375.482 227.242 378.724C228.197 381.966 231.161 383.949 233.862 383.153Z" fill="black"/>
<path d="M248.288 408.672C250.719 407.956 251.916 404.747 250.962 401.506C250.007 398.264 247.262 396.216 244.831 396.932C242.4 397.648 241.202 400.857 242.157 404.098C243.112 407.34 245.857 409.388 248.288 408.672Z" fill="black"/>
<path d="M285.721 263.553C284.16 267.27 283.916 275.662 295.426 279.496" stroke="black" stroke-width="5" stroke-linecap="round"/>
<path d="M502.851 605.118C500.965 593.084 500.47 585.39 500.821 579.667C500.895 578.453 497.834 577.28 497.14 578.279C484.683 596.214 469.586 604.765 461.814 609.481C461.593 609.615 461.442 609.816 461.377 610.068C457.75 624.203 452.55 656.317 470.647 664.613C493.473 675.076 506.937 631.188 502.851 605.118Z" fill="black"/>
<path d="M438.267 550.5C445.044 549.491 459.188 546.366 463.95 564.943C469.902 588.163 439.109 666.746 477.162 665.759C507.605 664.97 506.539 607.292 501.681 577.624" stroke="black" stroke-width="5" stroke-linecap="round"/>
<path d="M528.261 444.796C534.681 466.885 527.208 489.604 515.931 486.528C509.173 484.685 507.138 474.233 506.525 465.153C505.419 449.376 504.734 416.093 510.841 409.172" stroke="black" stroke-width="5" stroke-linecap="round"/>
<path d="M507.788 466.68L507.788 466.68C513.074 463.287 525.6 451.922 528.654 444.288C535.27 466.679 528.575 488.896 515.931 486.527C507.788 485.001 507.788 475.332 507.788 466.68Z" fill="black"/>
<path d="M442.876 665.782C327.467 609.268 123.943 798.854 173.489 422.169" stroke="black" stroke-width="5" stroke-linecap="round"/>
<path d="M139.865 373.935C45.767 481 79.8518 595.215 13.767 687" stroke="black" stroke-width="5" stroke-linecap="round"/>
<path d="M579.546 374.137C594.304 369.557 600.92 374.138 610.59 396.021" stroke="black" stroke-width="5" stroke-linecap="round"/>
<path d="M555.117 396.172C568.146 394.951 579.656 398.716 584.635 403.296C597.358 415.001 586.162 420.091 568.349 412.966C557.809 408.75 559.416 425.77 540.11 425.5C537.62 425.465 535.301 426.962 534.501 429.32C530.433 441.325 521.026 460.45 507.279 465.153" stroke="black" stroke-width="5" stroke-linecap="round"/>
<path d="M551.046 496.197C553.251 493.483 556.404 491.101 558.171 490.091C561.733 488.055 575.474 495.179 566.823 482.965C556.505 468.4 521.02 493.313 505.752 509.938C465.039 546.58 352.201 600.142 281.767 535" stroke="black" stroke-width="5" stroke-linecap="round"/>
<path d="M544.43 498.742C552.743 497.893 569.265 498.029 568.858 505.358" stroke="black" stroke-width="5" stroke-linecap="round"/>
<path d="M549.519 508.411C557.323 505.866 572.828 503.22 572.421 512.991" stroke="black" stroke-width="5" stroke-linecap="round"/>
<path d="M554.609 516.044C562.751 512.652 577.001 511.464 579.546 525.205C579.885 528.598 578.833 533.959 571.912 528.259C564.991 522.559 556.475 527.919 553.082 531.312C545.448 538.437 527.534 552.992 516.948 554.214C504.734 572.365 476.54 608.159 461.476 606.124" stroke="black" stroke-width="5" stroke-linecap="round"/>
<path d="M294.551 511.286C398.37 578.462 421.272 501.108 499.645 501.108" stroke="black" stroke-width="5" stroke-linecap="round"/>
<path d="M561.733 652.435L911.496 579.147C912.738 578.887 913.906 579.835 913.906 581.104V588.732C913.906 589.674 913.248 590.489 912.327 590.687L552.449 668.199C551.204 668.468 550.028 667.518 550.028 666.244V655.998L540.868 545.053" stroke="black" stroke-width="5" stroke-linecap="round"/>
<path d="M552.189 670.426L533.983 674.067C533.344 674.195 532.756 673.688 532.788 673.038L538.705 551.968C538.765 550.735 540.569 550.685 540.698 551.913L552.987 669.342C553.041 669.855 552.695 670.325 552.189 670.426Z" fill="black"/>
<path d="M566.823 623.427L900.818 555.213C902.058 554.96 903.219 555.907 903.219 557.172V578.642" stroke="black" stroke-width="5" stroke-linecap="round"/>
<path d="M539.85 481.438L534.761 432.073" stroke="black" stroke-width="5" stroke-linecap="round"/>
<path d="M742.909 464.135C747.489 457.858 763.164 443.269 789.221 435.127C821.792 424.948 899.147 387.288 904.745 464.135C905.085 484.153 904.745 500.777 898.13 553.705" stroke="black" stroke-width="5" stroke-linecap="round"/>
<path d="M705.293 468.206C705.293 468.764 704.806 469.89 702.618 471.025C700.555 472.095 697.53 472.831 694.053 472.831C690.575 472.831 687.551 472.095 685.487 471.025C683.299 469.89 682.812 468.764 682.812 468.206C682.812 467.648 683.299 466.522 685.487 465.388C687.551 464.318 690.575 463.582 694.053 463.582C697.53 463.582 700.555 464.318 702.618 465.388C704.806 466.522 705.293 467.648 705.293 468.206Z" stroke="black" stroke-width="5"/>
<path d="M695.115 452.939C695.115 453.497 694.628 454.623 692.44 455.758C690.376 456.827 687.352 457.564 683.874 457.564C680.397 457.564 677.372 456.827 675.309 455.758C673.12 454.623 672.633 453.497 672.633 452.939C672.633 452.381 673.12 451.255 675.309 450.12C677.372 449.05 680.397 448.314 683.874 448.314C687.352 448.314 690.376 449.05 692.44 450.12C694.628 451.255 695.115 452.381 695.115 452.939Z" stroke="black" stroke-width="5"/>
<path d="M684.937 437.671C684.937 438.229 684.45 439.355 682.261 440.49C680.198 441.56 677.173 442.296 673.696 442.296C670.218 442.296 667.194 441.56 665.13 440.49C662.942 439.355 662.455 438.229 662.455 437.671C662.455 437.113 662.942 435.987 665.13 434.853C667.194 433.783 670.218 433.046 673.696 433.046C677.173 433.046 680.198 433.783 682.261 434.853C684.45 435.987 684.937 437.113 684.937 437.671Z" stroke="black" stroke-width="5"/>
<path d="M674.758 422.912C674.758 423.334 674.38 424.332 672.378 425.372C670.5 426.349 667.731 427.028 664.535 427.028C661.34 427.028 658.571 426.349 656.692 425.372C654.69 424.332 654.312 423.334 654.312 422.912C654.312 422.491 654.69 421.493 656.692 420.452C658.571 419.475 661.34 418.796 664.535 418.796C667.731 418.796 670.5 419.475 672.378 420.452C674.38 421.493 674.758 422.491 674.758 422.912Z" stroke="black" stroke-width="5"/>
<path d="M664.58 408.154C664.58 408.439 664.31 409.309 662.495 410.256C660.801 411.139 658.288 411.761 655.375 411.761C652.462 411.761 649.948 411.139 648.254 410.256C646.44 409.309 646.17 408.439 646.17 408.154C646.17 407.869 646.44 406.999 648.254 406.052C649.948 405.168 652.462 404.547 655.375 404.547C658.288 404.547 660.801 405.168 662.495 406.052C664.31 406.999 664.58 407.869 664.58 408.154Z" stroke="black" stroke-width="5"/>
<path d="M654.401 393.395C654.401 393.545 654.238 394.287 652.611 395.139C651.102 395.929 648.845 396.493 646.214 396.493C643.584 396.493 641.326 395.929 639.817 395.139C638.19 394.287 638.027 393.545 638.027 393.395C638.027 393.245 638.19 392.503 639.817 391.651C641.326 390.861 643.584 390.297 646.214 390.297C648.845 390.297 651.102 390.861 652.611 391.651C654.238 392.503 654.401 393.245 654.401 393.395Z" stroke="black" stroke-width="5"/>
<path d="M679.847 494.67C679.847 495.228 679.36 496.354 677.172 497.489C675.109 498.559 672.084 499.295 668.607 499.295C665.129 499.295 662.105 498.559 660.041 497.489C657.853 496.354 657.366 495.228 657.366 494.67C657.366 494.112 657.853 492.986 660.041 491.852C662.105 490.782 665.129 490.045 668.607 490.045C672.084 490.045 675.109 490.782 677.172 491.852C679.36 492.986 679.847 494.112 679.847 494.67Z" stroke="black" stroke-width="5"/>
<path d="M670.687 479.402C670.687 479.961 670.2 481.086 668.012 482.221C665.948 483.291 662.924 484.027 659.446 484.027C655.969 484.027 652.944 483.291 650.881 482.221C648.692 481.086 648.205 479.961 648.205 479.402C648.205 478.844 648.692 477.719 650.881 476.584C652.944 475.514 655.969 474.778 659.446 474.778C662.924 474.778 665.948 475.514 668.012 476.584C670.2 477.719 670.687 478.844 670.687 479.402Z" stroke="black" stroke-width="5"/>
<path d="M663.562 464.135C663.562 464.693 663.075 465.819 660.887 466.954C658.823 468.024 655.799 468.76 652.321 468.76C648.844 468.76 645.819 468.024 643.756 466.954C641.567 465.819 641.08 464.693 641.08 464.135C641.08 463.577 641.567 462.451 643.756 461.316C645.819 460.246 648.844 459.51 652.321 459.51C655.799 459.51 658.823 460.246 660.887 461.316C663.075 462.451 663.562 463.577 663.562 464.135Z" stroke="black" stroke-width="5"/>
<path d="M655.419 448.358C655.419 448.78 655.041 449.778 653.039 450.819C651.161 451.795 648.392 452.474 645.196 452.474C642.001 452.474 639.232 451.795 637.353 450.819C635.351 449.778 634.973 448.78 634.973 448.358C634.973 447.937 635.351 446.939 637.353 445.898C639.232 444.921 642.001 444.242 645.196 444.242C648.392 444.242 651.161 444.921 653.039 445.898C655.041 446.939 655.419 447.937 655.419 448.358Z" stroke="black" stroke-width="5"/>
<path d="M647.277 433.6C647.277 433.885 647.007 434.755 645.192 435.702C643.498 436.585 640.985 437.207 638.071 437.207C635.158 437.207 632.645 436.585 630.951 435.702C629.136 434.755 628.866 433.885 628.866 433.6C628.866 433.315 629.136 432.445 630.951 431.498C632.645 430.614 635.158 429.993 638.071 429.993C640.985 429.993 643.498 430.614 645.192 431.498C647.007 432.445 647.277 433.315 647.277 433.6Z" stroke="black" stroke-width="5"/>
<path d="M640.152 419.859C640.152 420.009 639.989 420.75 638.361 421.603C636.853 422.393 634.595 422.957 631.964 422.957C629.334 422.957 627.076 422.393 625.567 421.603C623.94 420.75 623.777 420.009 623.777 419.859C623.777 419.709 623.94 418.967 625.567 418.115C627.076 417.325 629.334 416.761 631.964 416.761C634.595 416.761 636.853 417.325 638.361 418.115C639.989 418.967 640.152 419.709 640.152 419.859Z" stroke="black" stroke-width="5"/>
<path d="M635.063 407.645C635.063 407.794 634.899 408.536 633.272 409.389C631.763 410.179 629.506 410.743 626.875 410.743C624.245 410.743 621.987 410.179 620.478 409.389C618.851 408.536 618.688 407.794 618.688 407.645C618.688 407.495 618.851 406.753 620.478 405.901C621.987 405.111 624.245 404.547 626.875 404.547C629.506 404.547 631.763 405.111 633.272 405.901C634.899 406.753 635.063 407.495 635.063 407.645Z" stroke="black" stroke-width="5"/>
<path d="M629.973 395.431C629.973 395.581 629.81 396.322 628.183 397.175C626.674 397.965 624.417 398.529 621.786 398.529C619.155 398.529 616.898 397.965 615.389 397.175C613.762 396.322 613.599 395.581 613.599 395.431C613.599 395.281 613.762 394.539 615.389 393.687C616.898 392.897 619.155 392.333 621.786 392.333C624.417 392.333 626.674 392.897 628.183 393.687C629.81 394.539 629.973 395.281 629.973 395.431Z" stroke="black" stroke-width="5"/>
<path d="M650.33 518.08C650.33 518.639 649.843 519.764 647.655 520.899C645.591 521.969 642.567 522.705 639.089 522.705C635.612 522.705 632.587 521.969 630.524 520.899C628.335 519.764 627.848 518.639 627.848 518.08C627.848 517.522 628.335 516.396 630.524 515.262C632.587 514.192 635.612 513.456 639.089 513.456C642.567 513.456 645.591 514.192 647.655 515.262C649.843 516.396 650.33 517.522 650.33 518.08Z" stroke="black" stroke-width="5"/>
<path d="M645.241 499.759C645.241 500.317 644.754 501.443 642.566 502.578C640.502 503.648 637.478 504.384 634 504.384C630.522 504.384 627.498 503.648 625.435 502.578C623.246 501.443 622.759 500.317 622.759 499.759C622.759 499.201 623.246 498.075 625.435 496.941C627.498 495.871 630.522 495.135 634 495.135C637.478 495.135 640.502 495.871 642.566 496.941C644.754 498.075 645.241 499.201 645.241 499.759Z" stroke="black" stroke-width="5"/>
<path d="M639.134 482.456C639.134 483.014 638.647 484.14 636.459 485.275C634.395 486.345 631.371 487.081 627.893 487.081C624.415 487.081 621.391 486.345 619.328 485.275C617.139 484.14 616.652 483.014 616.652 482.456C616.652 481.898 617.139 480.772 619.328 479.638C621.391 478.568 624.415 477.831 627.893 477.831C631.371 477.831 634.395 478.568 636.459 479.638C638.647 480.772 639.134 481.898 639.134 482.456Z" stroke="black" stroke-width="5"/>
<path d="M633.027 466.679C633.027 467.101 632.649 468.099 630.647 469.14C628.768 470.117 625.999 470.795 622.804 470.795C619.608 470.795 616.839 470.117 614.961 469.14C612.959 468.099 612.581 467.101 612.581 466.679C612.581 466.258 612.959 465.26 614.961 464.219C616.839 463.242 619.608 462.563 622.804 462.563C625.999 462.563 628.768 463.242 630.647 464.219C632.649 465.26 633.027 466.258 633.027 466.679Z" stroke="black" stroke-width="5"/>
<path d="M625.902 451.921C625.902 452.206 625.632 453.076 623.817 454.023C622.123 454.907 619.61 455.528 616.697 455.528C613.784 455.528 611.27 454.907 609.576 454.023C607.762 453.076 607.492 452.206 607.492 451.921C607.492 451.636 607.762 450.766 609.576 449.819C611.27 448.935 613.784 448.314 616.697 448.314C619.61 448.314 622.123 448.935 623.817 449.819C625.632 450.766 625.902 451.636 625.902 451.921Z" stroke="black" stroke-width="5"/>
<path d="M618.777 438.18C618.777 438.33 618.614 439.072 616.987 439.924C615.478 440.714 613.22 441.278 610.59 441.278C607.959 441.278 605.702 440.714 604.193 439.924C602.565 439.072 602.402 438.33 602.402 438.18C602.402 438.03 602.565 437.289 604.193 436.436C605.702 435.646 607.959 435.082 610.59 435.082C613.22 435.082 615.478 435.646 616.987 436.436C618.614 437.289 618.777 438.03 618.777 438.18Z" stroke="black" stroke-width="5"/>
<path d="M613.688 425.966C613.688 426.116 613.525 426.858 611.898 427.71C610.389 428.5 608.131 429.064 605.501 429.064C602.87 429.064 600.612 428.5 599.103 427.71C597.476 426.858 597.313 426.116 597.313 425.966C597.313 425.816 597.476 425.075 599.103 424.222C600.612 423.432 602.87 422.868 605.501 422.868C608.131 422.868 610.389 423.432 611.898 424.222C613.525 425.075 613.688 425.816 613.688 425.966Z" stroke="black" stroke-width="5"/>
<path d="M608.599 413.752C608.599 413.902 608.436 414.643 606.808 415.496C605.3 416.286 603.042 416.85 600.411 416.85C597.781 416.85 595.523 416.286 594.014 415.496C592.387 414.643 592.224 413.902 592.224 413.752C592.224 413.602 592.387 412.86 594.014 412.008C595.523 411.218 597.781 410.654 600.411 410.654C603.042 410.654 605.3 411.218 606.808 412.008C608.436 412.86 608.599 413.602 608.599 413.752Z" stroke="black" stroke-width="5"/>
<path d="M617.759 527.241C617.759 527.799 617.272 528.925 615.084 530.06C613.02 531.13 609.996 531.866 606.518 531.866C603.041 531.866 600.016 531.13 597.953 530.06C595.765 528.925 595.278 527.799 595.278 527.241C595.278 526.683 595.765 525.557 597.953 524.422C600.016 523.352 603.041 522.616 606.518 522.616C609.996 522.616 613.02 523.352 615.084 524.422C617.272 525.557 617.759 526.683 617.759 527.241Z" stroke="black" stroke-width="5"/>
<path d="M612.67 508.92C612.67 509.478 612.183 510.604 609.995 511.738C607.931 512.808 604.907 513.545 601.429 513.545C597.952 513.545 594.927 512.808 592.864 511.738C590.675 510.604 590.188 509.478 590.188 508.92C590.188 508.362 590.675 507.236 592.864 506.101C594.927 505.031 597.952 504.295 601.429 504.295C604.907 504.295 607.931 505.031 609.995 506.101C612.183 507.236 612.67 508.362 612.67 508.92Z" stroke="black" stroke-width="5"/>
<path d="M606.563 491.617C606.563 492.175 606.076 493.301 603.888 494.435C601.824 495.505 598.8 496.241 595.322 496.241C591.845 496.241 588.82 495.505 586.757 494.435C584.568 493.301 584.081 492.175 584.081 491.617C584.081 491.059 584.568 489.933 586.757 488.798C588.82 487.728 591.845 486.992 595.322 486.992C598.8 486.992 601.824 487.728 603.888 488.798C606.076 489.933 606.563 491.059 606.563 491.617Z" stroke="black" stroke-width="5"/>
<path d="M600.456 475.84C600.456 476.261 600.078 477.259 598.076 478.3C596.197 479.277 593.428 479.956 590.233 479.956C587.037 479.956 584.269 479.277 582.39 478.3C580.388 477.259 580.01 476.261 580.01 475.84C580.01 475.419 580.388 474.421 582.39 473.38C584.269 472.403 587.037 471.724 590.233 471.724C593.428 471.724 596.197 472.403 598.076 473.38C600.078 474.421 600.456 475.419 600.456 475.84Z" stroke="black" stroke-width="5"/>
<path d="M596.385 461.081C596.385 461.366 596.115 462.236 594.3 463.183C592.606 464.067 590.093 464.688 587.179 464.688C584.266 464.688 581.753 464.067 580.059 463.183C578.244 462.236 577.974 461.366 577.974 461.081C577.974 460.796 578.244 459.926 580.059 458.98C581.753 458.096 584.266 457.474 587.179 457.474C590.093 457.474 592.606 458.096 594.3 458.98C596.115 459.926 596.385 460.796 596.385 461.081Z" stroke="black" stroke-width="5"/>
<path d="M591.295 447.341C591.295 447.49 591.132 448.232 589.505 449.084C587.996 449.875 585.739 450.439 583.108 450.439C580.477 450.439 578.22 449.875 576.711 449.084C575.084 448.232 574.921 447.49 574.921 447.341C574.921 447.191 575.084 446.449 576.711 445.597C578.22 444.806 580.477 444.242 583.108 444.242C585.739 444.242 587.996 444.806 589.505 445.597C591.132 446.449 591.295 447.191 591.295 447.341Z" stroke="black" stroke-width="5"/>
<path d="M588.242 435.126C588.242 435.276 588.079 436.018 586.452 436.87C584.943 437.661 582.685 438.225 580.055 438.225C577.424 438.225 575.166 437.661 573.658 436.87C572.03 436.018 571.867 435.276 571.867 435.126C571.867 434.977 572.03 434.235 573.658 433.383C575.166 432.592 577.424 432.028 580.055 432.028C582.685 432.028 584.943 432.592 586.452 433.383C588.079 434.235 588.242 434.977 588.242 435.126Z" stroke="black" stroke-width="5"/>
<path d="M585.188 422.913C585.188 423.062 585.025 423.804 583.398 424.656C581.889 425.447 579.632 426.011 577.001 426.011C574.37 426.011 572.113 425.447 570.604 424.656C568.977 423.804 568.814 423.062 568.814 422.913C568.814 422.763 568.977 422.021 570.604 421.169C572.113 420.378 574.37 419.814 577.001 419.814C579.632 419.814 581.889 420.378 583.398 421.169C585.025 422.021 585.188 422.763 585.188 422.913Z" stroke="black" stroke-width="5"/>
<path d="M555.117 476.858L550.318 446.623C550.155 445.592 550.812 444.608 551.827 444.364L560.712 442.232C561.822 441.965 562.93 442.681 563.144 443.802L577.001 516.554" stroke="black" stroke-width="5" stroke-linecap="round"/>
<path d="M584.635 558.285C613.813 549.803 681.431 527.852 720.516 479.403" stroke="black" stroke-width="5" stroke-linecap="round"/>
<path d="M611.099 381.181C619.581 378.297 634 371.003 642.143 354.208" stroke="black" stroke-width="5" stroke-linecap="round"/>
<path d="M745.985 400.068C741.451 402.136 733.919 408.177 729.663 411.856C729.158 412.293 728.375 412.128 728.092 411.524L697.482 346.193C696.993 345.148 698.369 344.242 699.135 345.104L746.418 398.297C746.911 398.852 746.66 399.76 745.985 400.068Z" fill="black"/>
<path d="M727.348 411.071C720.199 402.118 692.871 368.941 678.5 351.533C678.04 350.976 677.912 350.22 678.273 349.594C680.861 345.098 688.484 341.313 693.485 340.17C694.152 340.018 694.837 340.268 695.291 340.779L745.347 397.092C746.333 398.201 745.846 400.081 744.546 400.798C740.217 403.187 734.156 408.014 730.273 411.332C729.393 412.085 728.071 411.977 727.348 411.071Z" stroke="black" stroke-width="5" stroke-linecap="round"/>
<path d="M743.927 323.673C741.231 323.673 737.345 324.467 735.07 327.104C734.519 327.744 734.615 328.672 735.17 329.309C749.606 345.866 777.897 372.085 785.288 380.09C786.074 380.941 787.406 381.025 788.35 380.354C791.049 378.434 793.414 377.881 796.055 377.285C797.425 376.976 797.993 375.383 797.16 374.252L791.765 366.931" stroke="black" stroke-width="5" stroke-linecap="round"/>
<ellipse cx="851.309" cy="465.662" rx="25.446" ry="25.9549" fill="black"/>
<path d="M742.4 335.378C745.236 306.68 762.186 248.179 807.292 240.065C808.729 239.807 810.193 240.25 811.298 241.204C822.659 251.012 846.651 269.705 869.901 281.9C873.437 283.755 873.769 288.851 870.441 291.058C840.937 310.628 792.763 348.751 787.185 378.127" stroke="black" stroke-width="5" stroke-linecap="round"/>
<path d="M758.685 324.691C762.587 329.441 772.732 340.569 782.096 347.083" stroke="black" stroke-width="5" stroke-linecap="round"/>
<path d="M762.757 304.334C768.185 311.027 782.299 326.708 795.328 335.887" stroke="black" stroke-width="5" stroke-linecap="round"/>
<path d="M799.399 259.549C804.828 266.242 818.942 281.923 831.97 291.102" stroke="black" stroke-width="5" stroke-linecap="round"/>
<path d="M766.828 283.977C774.123 292.398 793.088 312.125 810.595 323.673" stroke="black" stroke-width="5" stroke-linecap="round"/>
<path d="M778.024 266.674C786.167 276.174 806.32 296.395 825.863 309.423" stroke="black" stroke-width="5" stroke-linecap="round"/>
<path d="M851.309 498.233C858.094 499.081 872.785 497.215 877.264 482.965" stroke="black" stroke-width="5" stroke-linecap="round"/>
<path d="M700.464 184.907C700.889 184.393 701.535 184.126 702.199 184.187C723.676 186.175 756.307 183.422 760.22 167.327C764.198 150.967 749.009 144.984 740.918 144.037C710.215 139.224 669.536 141.466 669.268 167.073" stroke="black" stroke-width="5" stroke-linecap="round"/>
<path d="M695.07 169.47C697.038 169.47 698.633 167.875 698.633 165.908C698.633 163.94 697.038 162.345 695.07 162.345C693.103 162.345 691.508 163.94 691.508 165.908C691.508 167.875 693.103 169.47 695.07 169.47Z" fill="black"/>
<path d="M718.99 165.908C718.99 167.638 717.608 169.47 715.427 169.47C713.247 169.47 711.865 167.638 711.865 165.908C711.865 164.178 713.247 162.345 715.427 162.345C717.608 162.345 718.99 164.178 718.99 165.908Z" fill="black"/>
<path d="M736.802 169.47C738.769 169.47 740.364 167.875 740.364 165.908C740.364 163.94 738.769 162.345 736.802 162.345C734.834 162.345 733.239 163.94 733.239 165.908C733.239 167.875 734.834 169.47 736.802 169.47Z" fill="black"/>
<path d="M1072.39 218.285C1072.24 218.802 1072.3 219.351 1072.56 219.823C1081.04 235.264 1089.61 260.629 1078.82 268.8C1067.86 277.101 1058.43 267.669 1055.09 261.916C1041.52 240.503 1029.97 209.344 1048.98 200.775" stroke="black" stroke-width="5" stroke-linecap="round"/>
<path d="M1051.33 221.954C1051.97 223.428 1053.69 224.104 1055.16 223.464C1056.64 222.824 1057.31 221.11 1056.67 219.637C1056.03 218.163 1054.32 217.487 1052.84 218.127C1051.37 218.767 1050.69 220.48 1051.33 221.954Z" fill="black"/>
<path d="M1061.78 238.714C1060.49 239.277 1058.67 238.838 1057.96 237.204C1057.25 235.571 1058.17 233.94 1059.47 233.377C1060.76 232.814 1062.58 233.253 1063.29 234.887C1064 236.52 1063.08 238.152 1061.78 238.714Z" fill="black"/>
<path d="M1064.91 253.217C1065.55 254.691 1067.26 255.367 1068.74 254.727C1070.21 254.087 1070.89 252.373 1070.25 250.899C1069.61 249.426 1067.89 248.75 1066.42 249.389C1064.95 250.029 1064.27 251.743 1064.91 253.217Z" fill="black"/>
<path d="M915.353 234.879C915.838 234.521 916.134 233.968 916.168 233.366C917.025 218.295 922.221 196.168 933.562 195.073C945.143 193.956 947.689 205.074 947.515 210.773C947.688 232.529 942.024 260.494 924.486 258.09" stroke="black" stroke-width="5" stroke-linecap="round"/>
<path d="M932.133 241.209C932.337 239.818 931.375 238.526 929.984 238.322C928.594 238.118 927.301 239.081 927.098 240.471C926.894 241.862 927.856 243.154 929.247 243.358C930.637 243.561 931.93 242.599 932.133 241.209Z" fill="black"/>
<path d="M932.05 224.223C933.273 224.402 934.424 225.569 934.199 227.11C933.973 228.651 932.535 229.438 931.312 229.258C930.089 229.079 928.938 227.913 929.163 226.372C929.389 224.831 930.827 224.044 932.05 224.223Z" fill="black"/>
<path d="M936.264 213.01C936.468 211.62 935.506 210.328 934.115 210.124C932.725 209.92 931.432 210.882 931.229 212.273C931.025 213.663 931.987 214.956 933.378 215.159C934.768 215.363 936.061 214.401 936.264 213.01Z" fill="black"/>
<path d="M959.399 322.162C951.744 319.726 950.73 326.286 951.339 331.421C951.445 332.316 950.413 333.042 949.605 332.643C945.915 330.821 940.711 329.528 939.042 333.867C937.083 338.959 950.046 344.775 957.527 347.323C958.013 347.489 958.544 347.241 958.746 346.77C965.993 329.885 962.236 323.33 959.399 322.162Z" fill="black"/>
<path d="M859.651 110.451C851.996 108.015 850.982 114.575 851.59 119.71C851.696 120.605 850.664 121.331 849.857 120.932C846.166 119.11 840.963 117.817 839.294 122.156C837.335 127.249 850.298 133.064 857.779 135.612C858.264 135.778 858.795 135.531 858.998 135.059C866.245 118.174 862.488 111.619 859.651 110.451Z" fill="black"/>
<path d="M1026.38 330.289L1103.22 317.566" stroke="black" stroke-width="5" stroke-linecap="round"/>
<path d="M985.664 185.247L1060.98 127.23" stroke="black" stroke-width="5" stroke-linecap="round"/>
<path d="M860.469 220.871L892.531 132.319" stroke="black" stroke-width="5" stroke-linecap="round"/>
<path d="M805.506 171.506L799.399 123.159" stroke="black" stroke-width="5" stroke-linecap="round"/>
</svg>
